<svg width="100" height="100" viewBox="0 0 100 100" fill="none" xmlns="http://www.w3.org/2000/svg">
<circle cx="50" cy="50" r="50" fill="#776C61"/>
<path d="M78.0787 50.6289L77.5842 50.3135C75.8971 48.6297 73.5476 47.8999 70.4065 48.0835C67.7912 48.2434 65.7166 49.2807 64.1331 50.2437C64.1331 50.22 64.1308 50.1964 64.1308 50.1727C64.1308 49.3528 64.2232 48.4653 64.3156 47.6026C64.4057 46.7263 64.5003 45.8343 64.5003 44.9907C64.5003 44.1291 64.4034 43.3126 64.1061 42.6143C64.0317 42.4352 63.8662 42.3282 63.6578 42.3282C62.8131 42.3473 61.1631 42.9251 60.7633 43.2765C60.7633 43.2788 60.5459 43.7529 60.5459 43.7529C60.5324 44.6889 60.3263 47.3007 60.1168 47.6183C60.1258 47.6071 60.0064 47.9337 60.0064 47.9337C59.6505 51.665 59.6438 54.9459 59.9715 57.7627C60.0087 58.0443 60.5527 58.4666 60.9705 58.6198C61.43 58.7899 62.8672 58.4047 63.6961 58.0938C63.6848 58.0972 64.0058 58.0443 64.0058 58.0443C64.2671 58.0161 64.4214 57.7954 64.4102 57.4969C64.4057 57.4901 64.4304 56.686 64.4304 56.686C65.0285 54.2555 67.4489 51.3542 70.313 50.9183C71.9326 50.6615 73.2098 51.0782 74.22 52.1775C74.3563 52.3757 74.6514 54.1248 73.5848 56.1352C72.7908 57.623 71.2027 58.8788 69.1124 59.6616C67.1346 60.414 64.9587 60.7169 62.2714 60.6246C62.1587 60.5525 59.7553 58.9228 59.7553 58.9228C57.6232 57.4259 54.9753 55.5642 52.5752 54.653C52.1529 54.4909 51.3983 53.8635 50.9433 53.4874L50.6944 53.2835C49.3102 52.1741 46.6758 50.416 44.5595 49.0081C44.5595 49.0081 43.6044 48.3673 43.4197 48.2434C43.422 48.1646 43.422 48.0046 43.422 48.0046C43.4839 47.9371 44.8141 47.1397 44.8141 47.1397C46.6747 46.0505 47.5352 45.5167 47.7176 45.2408C47.6804 45.2858 47.9643 45.0955 47.9643 45.0955C47.9823 45.0876 52.5797 42.4848 52.5797 42.4848C57.0105 40.052 62.0281 37.2892 64.6636 34.5603C64.6681 34.5569 64.7931 34.1424 64.7931 34.1424L64.8472 33.7707C65.0229 33.1862 65.0319 32.7402 64.8843 32.221C64.8472 32.0723 64.7109 31.9011 64.5284 31.8685C62.4696 31.6624 59.8161 32.8968 57.3991 35.164C56.854 35.6742 56.3956 35.9253 55.9124 36.1877L55.5419 36.395C52.8782 37.9098 46.8774 41.6344 43.734 43.6448C43.9412 40.266 44.5652 35.4602 45.3355 31.454L45.2499 30.9753C45.2409 30.9596 44.9244 30.3694 44.9244 30.3694L44.6789 29.9358L44.608 29.9166C43.9806 29.6001 43.4682 29.7285 43.092 29.822L42.4647 30.054L41.6267 30.3581C41.4623 30.3908 41.3451 30.4933 41.2809 30.6532C39.7807 34.2798 38.5294 40.2446 38.2321 45.0166C35.234 43.1098 32.4622 41.738 31.1028 41.0758L31.0656 41.0544L30.9045 41.0195C30.4157 40.9564 29.8199 40.5971 29.2478 40.2502C29.1858 40.2131 28.1058 39.5103 28.1058 39.5103L26.3645 38.3941C26.3769 38.4054 25.9039 38.2894 25.9039 38.2894C25.156 38.4189 23.72 39.3841 23.2932 40.0419C23.238 40.1297 23.2143 40.2232 23.2143 40.3212C23.2143 40.4608 23.2583 40.5994 23.2932 40.7356L23.3698 41.0904L23.4508 41.3033C24.2865 42.1593 26.3938 43.5851 28.4594 44.6968L30.855 45.9661L34.5221 47.9686C34.5221 47.9855 35.1472 48.4653 35.1472 48.4653L35.5786 48.7131C35.5786 48.7131 35.6293 48.7423 35.6574 48.7615C34.681 49.4159 28.9876 53.2159 28.9876 53.2159L25.4815 55.5394C25.1493 55.7647 23.7662 56.3841 23.4599 56.5069C22.7007 56.8166 22.1241 57.2919 21.8876 57.8077L21.793 58.0116L21.8876 58.1456L22.1556 58.3495C22.1421 58.3495 22.5138 58.5838 22.5138 58.5838L22.9012 58.8484C22.9102 58.8518 23.2661 58.907 23.2661 58.907C23.8822 58.9306 24.7945 58.5792 26.5019 57.8314C28.0708 57.1376 32.3293 54.5674 34.1505 53.4705L34.9265 53.0053C35.2475 53.0312 35.6 52.7598 35.9165 52.5221C36.2814 52.2304 37.0754 51.7427 37.5597 51.5288C37.5755 51.5242 37.8503 51.3699 38.1116 51.2247C38.1093 51.3046 38.1071 51.433 38.1071 51.433C38.1882 57.0036 38.5069 61.0525 39.1162 64.1746L39.1252 64.2275L39.1849 64.3537C39.4845 64.7929 39.8247 66.114 40.1288 67.2775L40.8214 69.6021C40.8372 69.6303 41.0174 69.8206 41.0174 69.8206C41.4138 70.0898 42.6212 70.5527 43.4265 70.457L43.627 70.4333L43.7554 70.1495C43.8241 69.8015 43.8477 69.4602 43.8477 69.084C43.8477 68.6594 43.8173 68.192 43.779 67.6176L43.7238 66.7797C43.4682 62.8918 43.2136 57.2773 43.2136 53.5448C43.2136 53.44 43.2136 53.3454 43.2136 53.2475C43.8759 53.6608 46.7637 55.482 46.7637 55.482C51.6821 58.6727 59.111 63.4921 63.6004 64.7659C63.8335 64.8368 64.0802 64.7828 64.2514 64.6172C64.2581 64.6082 64.9418 64.1735 64.9418 64.1735L65.0713 64.1205C65.3292 63.9978 65.5004 63.5641 65.5308 63.0934C69.314 62.903 74.5917 61.4456 77.4164 57.8956C78.51 56.5182 78.9999 54.8333 78.9999 53.3905C79.0022 52.2102 78.6745 51.1897 78.0787 50.6289Z" fill="#FCAF16"/>
</svg>
