<svg width="22" height="14" viewBox="0 0 22 14" fill="none" xmlns="http://www.w3.org/2000/svg">
<g id="Mastercard">
<path id="Left" fill-rule="evenodd" clip-rule="evenodd" d="M10.8773 11.7208C9.72516 12.7122 8.23071 13.3107 6.59768 13.3107C2.95388 13.3107 0 10.331 0 6.65534C0 2.9797 2.95388 0 6.59768 0C8.23071 0 9.72516 0.598479 10.8773 1.58987C12.0293 0.598479 13.5238 0 15.1568 0C18.8006 0 21.7545 2.9797 21.7545 6.65534C21.7545 10.331 18.8006 13.3107 15.1568 13.3107C13.5238 13.3107 12.0293 12.7122 10.8773 11.7208Z" fill="#ED0006"/>
<path id="Right" fill-rule="evenodd" clip-rule="evenodd" d="M10.8772 11.7208C12.2958 10.5001 13.1953 8.68368 13.1953 6.65534C13.1953 4.627 12.2958 2.81059 10.8772 1.58988C12.0293 0.598484 13.5238 0 15.1568 0C18.8006 0 21.7545 2.9797 21.7545 6.65534C21.7545 10.331 18.8006 13.3107 15.1568 13.3107C13.5238 13.3107 12.0293 12.7122 10.8772 11.7208Z" fill="#F9A000"/>
<path id="Middle" fill-rule="evenodd" clip-rule="evenodd" d="M10.8772 11.7208C12.2958 10.5001 13.1953 8.6837 13.1953 6.65536C13.1953 4.62702 12.2958 2.81061 10.8772 1.5899C9.45866 2.81061 8.55914 4.62702 8.55914 6.65536C8.55914 8.6837 9.45866 10.5001 10.8772 11.7208Z" fill="#FF5E00"/>
</g>
</svg>
