<svg width="83" height="57" viewBox="0 0 83 57" fill="none" xmlns="http://www.w3.org/2000/svg">
<rect x="0.592863" y="0.592863" width="81.815" height="55.7291" rx="6.52149" fill="white" stroke="#D9D9D9" stroke-width="1.18573"/>
<path fill-rule="evenodd" clip-rule="evenodd" d="M42.0933 40.6869C39.2675 43.1254 35.6021 44.5974 31.5968 44.5974C22.6596 44.5974 15.4146 37.2683 15.4146 28.2273C15.4146 19.1864 22.6596 11.8573 31.5968 11.8573C35.6021 11.8573 39.2675 13.3293 42.0933 15.7678C44.919 13.3293 48.5844 11.8573 52.5897 11.8573C61.5269 11.8573 68.772 19.1864 68.772 28.2273C68.772 37.2683 61.5269 44.5974 52.5897 44.5974C48.5844 44.5974 44.919 43.1254 42.0933 40.6869Z" fill="#ED0006"/>
<path fill-rule="evenodd" clip-rule="evenodd" d="M42.0933 40.6869C45.5727 37.6843 47.779 33.2165 47.779 28.2273C47.779 23.2382 45.5727 18.7704 42.0933 15.7678C44.919 13.3293 48.5845 11.8573 52.5898 11.8573C61.527 11.8573 68.772 19.1864 68.772 28.2273C68.772 37.2683 61.527 44.5974 52.5898 44.5974C48.5845 44.5974 44.919 43.1254 42.0933 40.6869Z" fill="#F9A000"/>
<path fill-rule="evenodd" clip-rule="evenodd" d="M42.0933 40.6867C45.5726 37.6842 47.7788 33.2164 47.7788 28.2273C47.7788 23.2383 45.5726 18.7705 42.0933 15.7679C38.6139 18.7705 36.4077 23.2383 36.4077 28.2273C36.4077 33.2164 38.6139 37.6842 42.0933 40.6867Z" fill="#FF5E00"/>
</svg>
