<svg width="83" height="57" viewBox="0 0 83 57" fill="none" xmlns="http://www.w3.org/2000/svg">
<rect x="0.592863" y="0.592863" width="81.815" height="55.7291" rx="6.52149" fill="white" stroke="#D9D9D9" stroke-width="1.18573"/>
<path d="M52.5903 11.8574C61.5274 11.8576 68.772 19.1867 68.772 28.2275C68.772 37.2683 61.5273 44.5974 52.5903 44.5977C48.5846 44.5977 44.9191 43.1245 42.0933 40.6855C39.2675 43.1243 35.6027 44.5976 31.5972 44.5977C22.66 44.5977 15.4146 37.2685 15.4146 28.2275C15.4146 19.1866 22.66 11.8574 31.5972 11.8574C35.6025 11.8575 39.2676 13.33 42.0933 15.7686C44.9191 13.3299 48.5848 11.8574 52.5903 11.8574Z" fill="#ED0006"/>
<path d="M52.5894 11.8574C61.5266 11.8574 68.772 19.1866 68.772 28.2275C68.772 37.2685 61.5265 44.5977 52.5894 44.5977C48.5839 44.5975 44.919 43.1243 42.0933 40.6855C45.5722 37.683 47.7788 33.2163 47.7788 28.2275C47.7788 23.2386 45.5725 18.7711 42.0933 15.7686C44.9189 13.33 48.5841 11.8575 52.5894 11.8574Z" fill="#F9A000"/>
<path d="M42.0935 15.7686C45.5728 18.771 47.7789 23.2386 47.7791 28.2275C47.7791 33.2164 45.5726 37.684 42.0935 40.6865C38.6144 37.684 36.408 33.2164 36.408 28.2275C36.4081 23.2387 38.6143 18.771 42.0935 15.7686Z" fill="#FF5E00"/>
</svg>
