<svg width="54" height="34" viewBox="0 0 54 34" fill="none" xmlns="http://www.w3.org/2000/svg">
<g id="Mastercard">
<path id="Left" fill-rule="evenodd" clip-rule="evenodd" d="M27.0933 29.6869C24.2675 32.1254 20.6021 33.5974 16.5968 33.5974C7.65958 33.5974 0.414551 26.2683 0.414551 17.2273C0.414551 8.18639 7.65958 0.857254 16.5968 0.857254C20.6021 0.857254 24.2675 2.3293 27.0933 4.76775C29.919 2.3293 33.5844 0.857254 37.5897 0.857254C46.5269 0.857254 53.772 8.18639 53.772 17.2273C53.772 26.2683 46.5269 33.5974 37.5897 33.5974C33.5844 33.5974 29.919 32.1254 27.0933 29.6869Z" fill="#ED0006"/>
<path id="Right" fill-rule="evenodd" clip-rule="evenodd" d="M27.0933 29.6869C30.5727 26.6843 32.779 22.2165 32.779 17.2273C32.779 12.2382 30.5727 7.77038 27.0933 4.76781C29.919 2.32932 33.5845 0.857254 37.5898 0.857254C46.527 0.857254 53.772 8.18639 53.772 17.2273C53.772 26.2683 46.527 33.5974 37.5898 33.5974C33.5845 33.5974 29.919 32.1254 27.0933 29.6869Z" fill="#F9A000"/>
<path id="Middle" fill-rule="evenodd" clip-rule="evenodd" d="M27.0933 29.6867C30.5726 26.6842 32.7788 22.2164 32.7788 17.2273C32.7788 12.2383 30.5726 7.7705 27.0933 4.76792C23.6139 7.7705 21.4077 12.2383 21.4077 17.2273C21.4077 22.2164 23.6139 26.6842 27.0933 29.6867Z" fill="#FF5E00"/>
</g>
</svg>
