<svg width="78" height="64" viewBox="0 0 37 30" fill="none" xmlns="http://www.w3.org/2000/svg">
<path d="M33.9362 1H4.06383C2.37172 1 1 2.27093 1 3.83871V20.1613C1 21.7291 2.37172 23 4.06383 23H33.9362C35.6283 23 37 21.7291 37 20.1613V3.83871C37 2.27093 35.6283 1 33.9362 1Z" fill="white" stroke="black" stroke-opacity="0.1" stroke-width="0.5"/>
<path fill-rule="evenodd" clip-rule="evenodd" d="M18.8773 16.7208C17.7252 17.7122 16.2307 18.3107 14.5977 18.3107C10.9539 18.3107 8 15.331 8 11.6553C8 7.9797 10.9539 5 14.5977 5C16.2307 5 17.7252 5.59848 18.8773 6.58987C20.0293 5.59848 21.5238 5 23.1568 5C26.8006 5 29.7545 7.9797 29.7545 11.6553C29.7545 15.331 26.8006 18.3107 23.1568 18.3107C21.5238 18.3107 20.0293 17.7122 18.8773 16.7208Z" fill="#ED0006"/>
<path fill-rule="evenodd" clip-rule="evenodd" d="M18.8772 16.7208C20.2958 15.5001 21.1953 13.6837 21.1953 11.6553C21.1953 9.627 20.2958 7.81059 18.8772 6.58988C20.0293 5.59848 21.5238 5 23.1568 5C26.8006 5 29.7545 7.9797 29.7545 11.6553C29.7545 15.331 26.8006 18.3107 23.1568 18.3107C21.5238 18.3107 20.0293 17.7122 18.8772 16.7208Z" fill="#F9A000"/>
<path fill-rule="evenodd" clip-rule="evenodd" d="M18.8773 16.7208C20.2959 15.5001 21.1954 13.6837 21.1954 11.6554C21.1954 9.62702 20.2959 7.81061 18.8773 6.5899C17.4587 7.81061 16.5592 9.62702 16.5592 11.6554C16.5592 13.6837 17.4587 15.5001 18.8773 16.7208Z" fill="#FF5E00"/>
</svg>
