<svg width="10" height="16" viewBox="0 0 10 16" fill="none" xmlns="http://www.w3.org/2000/svg">
<path d="M3.55469 10.8203C3.55469 9.95443 3.66211 9.26432 3.87695 8.75C4.0918 8.23568 4.51497 7.67253 5.14648 7.06055C5.78451 6.44206 6.18815 6.0026 6.35742 5.74219C6.61784 5.34505 6.74805 4.91536 6.74805 4.45312C6.74805 3.84115 6.59505 3.37565 6.28906 3.05664C5.98958 2.73112 5.54688 2.56836 4.96094 2.56836C4.40104 2.56836 3.94857 2.72786 3.60352 3.04688C3.26497 3.35938 3.0957 3.78581 3.0957 4.32617H0.722656C0.735677 3.17383 1.1263 2.26237 1.89453 1.5918C2.66927 0.921224 3.69141 0.585938 4.96094 0.585938C6.26953 0.585938 7.28841 0.917969 8.01758 1.58203C8.75326 2.24609 9.12109 3.17383 9.12109 4.36523C9.12109 5.42643 8.6263 6.47135 7.63672 7.5L6.43555 8.68164C6.00586 9.16992 5.78451 9.88281 5.77148 10.8203H3.55469ZM3.38867 13.8574C3.38867 13.4733 3.50911 13.1641 3.75 12.9297C3.99089 12.6888 4.31641 12.5684 4.72656 12.5684C5.14323 12.5684 5.47201 12.6921 5.71289 12.9395C5.95378 13.1803 6.07422 13.4863 6.07422 13.8574C6.07422 14.2155 5.95703 14.515 5.72266 14.7559C5.48828 14.9967 5.15625 15.1172 4.72656 15.1172C4.29688 15.1172 3.96484 14.9967 3.73047 14.7559C3.5026 14.515 3.38867 14.2155 3.38867 13.8574Z" fill="#969696"/>
</svg>
