<svg width="83" height="50" viewBox="0 0 83 50" fill="none" xmlns="http://www.w3.org/2000/svg">
<rect width="83" height="50" rx="4" fill="url(#paint0_linear_1_30)"/>
<rect x="1.5" y="1.5" width="80" height="47" rx="2.5" stroke="#929292" stroke-opacity="0.21" stroke-width="3"/>
<rect y="10" width="83" height="12" fill="#4D4D4D"/>
<rect x="7" y="28" width="57" height="8" rx="2" fill="white"/>
<path d="M16.7988 27.5819C16.5457 27.902 16.2404 28.2352 16.0791 28.6142C15.9154 28.999 15.7903 29.403 15.6175 29.781C15.1913 30.7133 14.7113 31.5643 14.1817 32.4308C13.7039 33.2127 13.3015 34.0584 12.7278 34.7789C12.4644 35.1097 12.2043 35.7676 11.8264 35.9565" stroke="black" stroke-linecap="round"/>
<path d="M16.0137 28.6942C16.5807 28.2352 17.2197 27.9745 17.962 27.9745C18.799 27.9745 18.6426 28.8497 18.6308 29.4793C18.6137 30.3847 17.5933 31.3247 16.8352 31.7038C16.3592 31.9418 15.8697 32.1661 15.3921 32.3944C15.2584 32.4584 14.99 32.5385 14.8869 32.6416C14.7534 32.7751 15.1905 32.4135 15.3594 32.329C16.1461 31.9357 17.0858 31.9655 17.9438 31.9655C18.4822 31.9655 18.5318 32.8174 18.3327 33.1432C17.5923 34.3549 15.9365 35.0313 14.6906 35.4949C14.2393 35.6629 13.7686 35.821 13.3312 36.022C12.9107 36.2152 12.3959 36.2 12.0227 36.48" stroke="black" stroke-linecap="round"/>
<path d="M23.6032 28.0399C22.3454 29.0102 21.6378 30.7371 21.0188 32.1654C20.7767 32.7243 20.4627 33.3018 20.4627 33.9283C20.4627 34.4259 19.8739 34.7857 19.8739 35.2659C19.8739 35.6553 21.0393 34.9471 21.117 34.9134C21.9033 34.5715 22.5805 34.0967 23.2761 33.6012C24.1335 32.9904 25.0602 32.4897 25.8931 31.8419C26.0035 31.7561 26.1608 31.7191 26.2857 31.6529C26.4774 31.5515 26.183 31.9261 26.1403 31.9946C25.7797 32.5733 25.4437 33.1754 25.0571 33.7321C24.9756 33.8495 24.9311 34.0485 24.9154 34.19C24.9009 34.3202 24.7595 34.5026 24.7845 34.6153C24.8967 35.1201 25.5442 34.6444 25.8277 34.5026C26.5343 34.1493 27.2011 33.7288 27.8232 33.245C28.3976 32.7983 29.0455 32.4576 29.6225 32.0164C29.6571 31.99 29.8842 31.7574 29.8842 31.8456C29.8842 32.1542 29.6238 32.6053 29.4516 32.8524C28.9621 33.5548 28.4964 34.282 28.0013 34.9752C27.7959 35.2627 27.9463 34.9125 28.0304 34.8043C28.3899 34.3421 28.746 33.8888 29.1608 33.474C29.6129 33.0219 30.1504 32.3594 30.7347 32.0673C30.9802 31.9446 31.3073 32.1639 31.469 32.3435C31.7652 32.6727 31.5698 33.4817 31.4181 33.8266C31.1557 34.4229 30.9594 35.1592 30.9964 35.8257C31.0072 36.0187 31.4923 35.4921 31.5198 35.4622C31.9321 35.0156 32.3488 34.604 32.6321 34.0592C33.1822 33.0013 34.0739 32.2182 35.1111 31.642C35.3893 31.4874 35.6915 31.3317 35.9834 31.2095C36.3874 31.0404 36.1726 31.1768 35.9689 31.3767C35.3534 31.9806 34.894 32.7343 34.3586 33.4086C34.0655 33.7777 33.7354 34.1293 33.4972 34.539C33.4247 34.6636 33.5963 34.6842 33.7116 34.7098C33.9109 34.7541 34.2797 34.2849 34.3986 34.1755C34.8684 33.7436 35.276 33.3643 35.8089 33.0124C36.0236 32.8706 36.1745 32.7921 36.2669 32.5544C36.3017 32.465 36.463 32.1237 36.5541 32.0782C36.6644 32.0231 36.5171 32.3226 36.485 32.4417C36.3746 32.8518 36.2429 33.2505 36.0852 33.6448C35.7394 34.5094 35.3725 35.3549 34.9729 36.1965C34.3743 37.4572 33.2538 38.8294 31.7816 39.0971C31.5141 39.1457 31.231 39.3603 31.3817 38.908C31.6673 38.0514 32.3183 37.3232 33.0901 36.8725C33.6804 36.5278 34.337 36.3767 34.9729 36.1419C36.3863 35.6201 37.6511 34.8312 38.8586 33.9392C39.7856 33.2544 40.6323 32.4717 41.5447 31.7692C41.8742 31.5156 42.3632 31.3287 42.6424 31.0496" stroke="black" stroke-linecap="round"/>
<path d="M27.0054 29.3484C27.1335 29.3004 27.2241 29.283 27.3325 29.283" stroke="black" stroke-linecap="round"/>
<defs>
<linearGradient id="paint0_linear_1_30" x1="41.5" y1="0" x2="41.5" y2="50" gradientUnits="userSpaceOnUse">
<stop stop-color="#FFCC17" stop-opacity="0.51"/>
<stop offset="1" stop-color="#FECF29"/>
</linearGradient>
</defs>
</svg>
