<svg width="160" height="160" viewBox="0 0 160 160" fill="none" xmlns="http://www.w3.org/2000/svg">
<circle cx="80" cy="80" r="80" fill="#E13F45"/>
<path d="M130 80.0067C130 107.611 107.595 130 79.9996 130C52.387 130 30 107.611 30 80.0067C30 52.3857 52.387 30 79.9996 30C107.595 30 130 52.3857 130 80.0067Z" fill="#E13F45"/>
<path d="M38.3341 74.4304C38.3341 74.4645 38.4273 75.5331 38.4273 75.5331C38.4107 75.7796 38.5464 76.0137 38.7679 76.0986C38.9636 76.1886 39.1851 76.1461 39.3808 75.9804C41.2445 74.4137 44.0709 73.0129 46.3435 73.7958C48.1223 74.4137 49.3315 76.2485 49.961 79.2577C51.2551 85.5658 46.9306 88.6057 44.2325 89.8433L44.1392 89.8858L40.6824 91.5807C40.6824 91.5807 40.4876 91.6648 40.2744 91.5632C40.062 91.4524 40.0021 91.3158 39.8572 90.9419C37.508 82.271 36.7077 73.1619 37.5846 64.6576C37.6778 64.0188 37.9676 63.2442 38.4615 62.6138L41.3636 59.5197L41.6876 59.1665C43.2623 57.6341 44.743 56.8679 45.5441 57.2002C46.2078 57.4808 46.3693 58.5452 46.3777 59.3798C46.5134 63.8997 43.986 68.5187 38.6913 73.4934C38.6913 73.4934 38.2824 73.8257 38.3341 74.4304ZM54.2431 68.1606C52.6675 67.2195 50.8895 66.9521 49.0933 67.212C52.3694 63.7206 54.1498 59.9244 54.1498 56.0933C54.1498 55.7443 54.1406 55.3954 54.0982 55.0372C53.9283 52.6544 52.8299 50.8662 51.1277 50.2616C49.4247 49.6236 46.3002 49.9468 41.3378 55.0206L38.359 58.3578C37.5338 59.3623 34.4009 64.1037 33.8222 69.0418C32.852 77.4354 33.4733 85.8123 35.6101 93.2397C35.8566 94.1076 36.6569 96.2031 38.5806 96.9785C40.6241 97.8121 42.5645 96.8077 44.2841 95.9216L44.743 95.6925L46.5134 94.9005L48.233 94.1426L50.3274 93.2231C51.8331 92.6101 53.2471 92.0396 54.6253 90.8819C56.4557 89.3195 57.8006 87.2773 58.4901 84.9528C58.8482 83.7526 59.0947 82.4417 59.2221 80.9517C59.3329 79.794 59.452 77.5461 59.0181 75.5714C58.0737 71.2214 55.9111 69.1434 54.2431 68.1606Z" fill="white"/>
<path d="M93.4835 41.8081C92.5125 38.48 90.9294 37.782 90.4698 37.6279C86.3168 36.3004 81.9998 36.028 77.8127 36.7593C71.522 37.9178 66.0833 41.2201 62.4741 46.0565C58.6859 51.1428 57.2219 57.4892 58.3453 63.9081C59.4862 70.3527 62.7381 75.5714 67.7938 78.9853C73.718 82.9781 81.6001 84.1949 90.0276 82.4242C95.0066 81.3432 99.1188 79.4068 102.302 76.6608C103.723 75.4265 103.995 73.8557 103.995 72.753C103.995 72.753 104.072 71.8635 103.382 69.0585C103.196 68.378 102.898 68.1731 102.421 68.1731C102.072 68.1731 101.706 68.5737 101.638 68.6587C99.2628 71.4088 95.6454 73.3235 91.1251 74.213C79.5232 76.4434 70.6027 71.0257 68.39 60.4009C67.4449 55.7993 68.2276 51.386 70.6285 47.9713C73.0377 44.4982 76.9866 42.1995 81.745 41.4849C85.3708 40.9569 89.0566 41.4033 92.3676 42.7875C92.3676 42.7875 93.79 43.1998 93.4835 41.8081Z" fill="white"/>
</svg>
