<svg width="100" height="100" viewBox="0 0 100 100" fill="none" xmlns="http://www.w3.org/2000/svg">
<g clip-path="url(#clip0_151_626)">
<mask id="mask0_151_626" style="mask-type:luminance" maskUnits="userSpaceOnUse" x="-137" y="-91" width="702" height="497">
<path d="M-136.762 -90.0997H564.328V405.686H-136.762V-90.0997Z" fill="white"/>
</mask>
<g mask="url(#mask0_151_626)">
<path d="M100 50.0067C100 77.611 77.5955 100 49.9996 100C22.387 100 0 77.611 0 50.0067C0 22.3856 22.387 1.09988e-06 49.9996 1.09988e-06C77.5955 1.09988e-06 100 22.3856 100 50.0067Z" fill="#E83E44"/>
</g>
<mask id="mask1_151_626" style="mask-type:luminance" maskUnits="userSpaceOnUse" x="-137" y="-91" width="702" height="497">
<path d="M-136.762 -90.0997H564.328V405.686H-136.762V-90.0997Z" fill="white"/>
</mask>
<g mask="url(#mask1_151_626)">
<path d="M8.33409 44.4305C8.33409 44.4647 8.42736 45.5332 8.42736 45.5332C8.41071 45.7798 8.54645 46.0138 8.76796 46.0987C8.96366 46.1887 9.18517 46.1462 9.38087 45.9805C11.2446 44.4139 14.071 43.013 16.3436 43.7959C18.1223 44.4139 19.3315 46.2487 19.961 49.2578C21.2552 55.5659 16.9306 58.6058 14.2325 59.8435L14.1392 59.8859L10.6825 61.5808C10.6825 61.5808 10.4876 61.6649 10.2744 61.5633C10.0621 61.4525 10.0021 61.316 9.85721 60.942C7.508 52.2711 6.70772 43.1621 7.58461 34.6577C7.67788 34.0189 7.96768 33.2444 8.4615 32.6139L11.3637 29.5198L11.6876 29.1667C13.2624 27.6342 14.743 26.868 15.5441 27.2003C16.2078 27.481 16.3694 28.5454 16.3777 29.3799C16.5134 33.8998 13.986 38.5189 8.69135 43.4935C8.69135 43.4935 8.28246 43.8259 8.33409 44.4305ZM24.2431 38.1607C22.6675 37.2196 20.8896 36.9523 19.0933 37.2121C22.3694 33.7208 24.1498 29.9246 24.1498 26.0934C24.1498 25.7444 24.1407 25.3955 24.0982 25.0373C23.9283 22.6545 22.8299 20.8664 21.1277 20.2617C19.4248 19.6237 16.3002 19.9469 11.3378 25.0207L8.35908 28.358C7.53381 29.3624 4.40098 34.1039 3.82221 39.0419C2.85205 47.4355 3.47329 55.8124 5.61014 63.2399C5.85664 64.1077 6.65692 66.2032 8.58059 66.9786C10.6242 67.8123 12.5645 66.8078 14.2841 65.9217L14.743 65.6926L16.5134 64.9006L18.2331 64.1427L20.3275 63.2232C21.8331 62.6102 23.2471 62.0397 24.6253 60.882C26.4557 59.3196 27.8006 57.2774 28.4902 54.9529C28.8482 53.7527 29.0947 52.4418 29.2221 50.9518C29.3329 49.7941 29.452 47.5463 29.0181 45.5715C28.0738 41.2215 25.9111 39.1435 24.2431 38.1607Z" fill="white"/>
<path d="M63.4836 11.8082C62.5126 8.48009 60.9295 7.78215 60.4698 7.62807C56.3168 6.30049 51.9998 6.02814 47.8127 6.7594C41.5221 7.91791 36.0833 11.2202 32.4742 16.0566C28.686 21.1429 27.222 27.4893 28.3454 33.9082C29.4862 40.3529 32.7382 45.5716 37.7938 48.9855C43.7181 52.9782 51.6001 54.195 60.0276 52.4243C65.0067 51.3433 69.1188 49.4069 72.3016 46.6609C73.7231 45.4266 73.9955 43.8559 73.9955 42.7532C73.9955 42.7532 74.0721 41.8637 73.3825 39.0586C73.196 38.3781 72.8979 38.1733 72.4207 38.1733C72.0718 38.1733 71.7062 38.5739 71.6379 38.6588C69.2629 41.4089 65.6454 43.3237 61.1252 44.2132C49.5232 46.4436 40.6027 41.0258 38.3901 30.401C37.4449 25.7994 38.2277 21.3861 40.6285 17.9714C43.0377 14.4983 46.9866 12.1996 51.745 11.4851C55.3708 10.957 59.0566 11.4034 62.3677 12.7876C62.3677 12.7876 63.79 13.1999 63.4836 11.8082Z" fill="white"/>
</g>
</g>
<defs>
<clipPath id="clip0_151_626">
<rect width="100" height="100" fill="white"/>
</clipPath>
</defs>
</svg>
