<?xml version="1.0" encoding="utf-8"?><svg version="1.1" id="Layer_1" xmlns="http://www.w3.org/2000/svg" xmlns:xlink="http://www.w3.org/1999/xlink" x="0px" y="0px" viewBox="0 0 122.88 81.6" style="enable-background:new 0 0 122.88 81.6" xml:space="preserve"><style type="text/css">.st0{fill-rule:evenodd;clip-rule:evenodd;}</style><g><path class="st0" d="M7.05,0h108.78c1.94,0,3.7,0.79,4.98,2.07c1.27,1.27,2.07,3.05,2.07,4.98v67.51c0,1.94-0.79,3.7-2.07,4.98 c-1.27,1.27-3.04,2.08-4.98,2.08H7.05c-1.94,0-3.7-0.79-4.98-2.07C0.79,78.27,0,76.5,0,74.56V7.05c0-1.94,0.79-3.7,2.07-4.99 C3.35,0.79,5.11,0,7.05,0L7.05,0L7.05,0z M95,52.66h5.17l3.85,12.31l3.8-12.31h5.36l-6.35,17.11h-5.73l-6.28-16.63l-6.18,16.63 h-5.73l-6.46-17.11h5.52l3.85,12.31l3.8-12.31h5.01H95L95,52.66z M71.34,62.76l4.63,1.4c-0.31,1.3-0.8,2.39-1.47,3.25 c-0.67,0.87-1.5,1.53-2.49,1.97c-0.99,0.44-2.25,0.67-3.79,0.67c-1.86,0-3.38-0.27-4.56-0.81c-1.18-0.54-2.19-1.49-3.05-2.85 c-0.86-1.36-1.29-3.1-1.29-5.22c0-2.83,0.75-5,2.26-6.52c1.51-1.52,3.64-2.28,6.39-2.28c2.15,0,3.85,0.43,5.08,1.31 c1.23,0.87,2.15,2.21,2.75,4.02l-4.66,1.03c-0.16-0.52-0.33-0.9-0.51-1.13c-0.3-0.4-0.66-0.71-1.09-0.93 c-0.43-0.22-0.91-0.33-1.44-0.33c-1.2,0-2.12,0.48-2.76,1.44c-0.48,0.71-0.72,1.84-0.72,3.36c0,1.9,0.29,3.19,0.86,3.89 c0.58,0.7,1.39,1.05,2.43,1.05c1.01,0,1.78-0.28,2.29-0.85C70.73,64.66,71.11,63.84,71.34,62.76L71.34,62.76z M61.96,26.35h23.19 c1.45,0,2.63,1.19,2.63,2.63v9.1c0,1.45-1.19,2.63-2.63,2.63H61.96c-1.45,0-2.63-1.18-2.63-2.63v-9.1 C59.32,27.54,60.51,26.35,61.96,26.35L61.96,26.35z M90.55,35.47v2.62c0,1.49-0.61,2.84-1.59,3.82c-0.07,0.07-0.14,0.13-0.22,0.19 c-0.96,0.86-2.22,1.39-3.6,1.39H61.96c-1.48,0-2.83-0.61-3.81-1.59l-0.01-0.01l-0.01,0.01c-0.98-0.98-1.59-2.33-1.59-3.82v-2.62 H4.08v39.1c0,0.81,0.33,1.55,0.88,2.1c0.54,0.54,1.28,0.88,2.1,0.88h108.78c0.81,0,1.55-0.33,2.1-0.88 c0.54-0.54,0.88-1.28,0.88-2.1v-39.1l0,0H90.55L90.55,35.47z M15.61,53.02c-1.13,0-2.04-0.92-2.04-2.05c0-1.13,0.92-2.04,2.04-2.04 h29.06c1.13,0,2.04,0.92,2.04,2.04c0,1.13-0.92,2.05-2.04,2.05H15.61L15.61,53.02L15.61,53.02z M15.61,63.74 c-1.13,0-2.04-0.92-2.04-2.05s0.92-2.04,2.04-2.04l17.87,0c1.13,0,2.04,0.92,2.04,2.05s-0.92,2.04-2.04,2.04L15.61,63.74 L15.61,63.74L15.61,63.74z M4.08,15.19H118.8V7.05c0-0.81-0.33-1.55-0.88-2.1c-0.54-0.54-1.28-0.88-2.1-0.88H7.05 c-0.81,0-1.55,0.33-2.1,0.88C4.41,5.5,4.08,6.24,4.08,7.05V15.19L4.08,15.19L4.08,15.19z"/></g></svg>