<?xml version="1.0" standalone="no"?>
<!DOCTYPE svg PUBLIC "-//W3C//DTD SVG 20010904//EN"
 "http://www.w3.org/TR/2001/REC-SVG-20010904/DTD/svg10.dtd">
<svg version="1.0" xmlns="http://www.w3.org/2000/svg"
 width="37px" height="37px" viewBox="0 0 48.000000 48.000000"
 preserveAspectRatio="xMidYMid meet">

<g transform="translate(0.000000,48.000000) scale(0.100000,-0.100000)"
fill="#ff0000" stroke="none">
<path d="M215 435 c-5 -2 -22 -6 -37 -9 -35 -8 -94 -59 -115 -100 -20 -37 -21
-131 -3 -166 37 -73 101 -113 180 -113 79 0 143 40 180 113 18 34 17 129 -2
165 -18 33 -62 77 -93 93 -23 11 -95 23 -110 17z m125 -195 l0 -30 -100 0
-100 0 0 30 0 30 100 0 100 0 0 -30z"/>
</g>
</svg>
