<svg width="160" height="160" viewBox="0 0 160 160" fill="none" xmlns="http://www.w3.org/2000/svg">
<circle cx="80" cy="80" r="80" fill="#1B9592"/>
<circle cx="81" cy="81" r="50" fill="#009692"/>
<path d="M91.4726 86.9194C91.3113 85.9387 91.0468 85.0003 90.6631 84.1293C89.4149 81.4521 87.6924 79.217 85.1122 77.714C81.1027 75.3656 76.2518 75.3915 72.2781 77.7848C70.4847 78.8813 69.0138 80.4392 68.0493 82.3197C67.7335 82.952 67.4718 83.623 67.2528 84.3068C66.2109 87.6257 66.2399 92.0994 68.13 95.1347C68.7493 96.1218 69.6362 96.9731 70.7299 97.3924C71.8198 97.8116 73.1004 97.7667 74.0809 97.1375C75.3452 96.3118 75.568 94.7635 75.3324 93.38C75.0389 91.6028 74.8034 89.8705 75.4582 88.1451C75.6712 87.5805 75.9551 87.0517 76.3903 86.6452C76.6486 86.4 76.9549 86.2032 77.2775 86.0388C77.9644 85.7066 78.7386 85.5518 79.4933 85.6744C80.806 85.8969 81.8866 86.9098 82.4671 88.1064C83.0511 89.2997 83.209 90.6579 83.2704 91.98C83.5509 97.7795 82.1673 103.782 80.6868 109.352C80.5286 109.927 80.377 110.494 80.2158 111.062C80.0869 111.504 79.8676 112.065 80.1447 112.494C80.2641 112.681 80.4547 112.804 80.6609 112.891C81.5188 113.233 82.2222 112.71 82.7962 112.126C86.1925 108.707 88.3762 104.298 89.8533 99.7695C90.4148 98.0762 90.8986 96.357 91.218 94.5926C91.6566 92.2027 91.9018 89.4513 91.4726 86.9194ZM115.799 60.1402C115.799 59.2693 115.021 58.6984 114.199 58.7308C113.363 58.7533 112.579 59.1919 111.812 59.4789C96.8651 65.1655 80.0118 66.2398 64.2716 63.9757C61.5657 63.582 58.8464 63.0435 56.1371 62.6177C54.4403 62.3532 52.7633 61.9726 51.0506 61.8403C49.5991 61.7274 47.7832 61.6759 46.5991 62.6886C45.0546 64.0306 45.1541 66.5786 46.0413 68.2557C47.0994 70.2749 48.9506 71.7845 50.8763 72.9294C52.7505 74.0455 54.9791 75.2356 57.2177 75.094C63.2365 74.7131 69.2388 74.1229 75.2155 73.3521C85.4211 72.0328 96.1164 70.7781 105.693 66.8238C108.838 65.5304 111.925 63.9142 114.615 61.8241C115.092 61.4629 115.799 60.853 115.799 60.1402Z" fill="white"/>
<path d="M72.9374 55.0251C72.9374 58.27 75.5691 60.8988 78.8078 60.8988C82.0621 60.8988 84.6941 58.27 84.6941 55.0251C84.6941 54.5415 84.5811 54.0543 84.3812 53.6157C83.8749 52.5416 83.3071 52.0256 83.3651 50.7482C83.4363 49.0225 81.2267 49 80.0332 49C78.7333 49 77.3594 49.1741 76.1756 49.7643C75.25 50.2419 74.4404 50.961 73.8696 51.8447C73.289 52.7447 72.9662 53.8125 72.9406 54.8866C72.9355 54.938 72.9355 54.9801 72.9355 55.0251" fill="white"/>
</svg>
