<svg width="100" height="100" viewBox="0 0 100 100" fill="none" xmlns="http://www.w3.org/2000/svg">
<circle cx="50" cy="50" r="50" fill="#009692"/>
<path d="M58.4339 54.8096C58.3028 54.0127 58.0879 53.2503 57.7761 52.5426C56.762 50.3674 55.3624 48.5514 53.266 47.3302C50.0083 45.4221 46.0669 45.4432 42.8383 47.3877C41.3812 48.2786 40.1861 49.5444 39.4024 51.0723C39.1459 51.5861 38.9333 52.1312 38.7553 52.6868C37.9087 55.3834 37.9323 59.0183 39.468 61.4845C39.9712 62.2865 40.6918 62.9782 41.5804 63.3188C42.466 63.6595 43.5065 63.623 44.3031 63.1118C45.3304 62.4408 45.5113 61.1829 45.32 60.0588C45.0815 58.6148 44.8901 57.2074 45.4221 55.8054C45.5952 55.3467 45.8259 54.9171 46.1795 54.5868C46.3893 54.3876 46.6382 54.2277 46.9003 54.0941C47.4585 53.8241 48.0875 53.6984 48.7007 53.798C49.7672 53.9787 50.6452 54.8017 51.1169 55.774C51.5914 56.7435 51.7197 57.8471 51.7696 58.9213C51.9975 63.6334 50.8733 68.5105 49.6704 73.0363C49.5419 73.5029 49.4187 73.9642 49.2877 74.4253C49.183 74.7844 49.0048 75.2404 49.2299 75.5889C49.327 75.741 49.4818 75.8406 49.6494 75.9113C50.3464 76.1891 50.9179 75.7646 51.3843 75.2901C54.1438 72.5122 55.918 68.93 57.1182 65.2502C57.5744 63.8744 57.9675 62.4776 58.227 61.044C58.5834 59.1022 58.7826 56.8667 58.4339 54.8096ZM78.1986 33.0515C78.1986 32.3438 77.567 31.88 76.8989 31.9063C76.2201 31.9246 75.5832 32.281 74.9594 32.5142C62.8153 37.1345 49.122 38.0074 36.333 36.1678C34.1345 35.8479 31.9251 35.4104 29.7238 35.0645C28.3452 34.8495 26.9826 34.5403 25.591 34.4328C24.4117 34.3411 22.9363 34.2993 21.9742 35.122C20.7192 36.2124 20.8001 38.2827 21.521 39.6453C22.3807 41.2859 23.8848 42.5124 25.4494 43.4427C26.9722 44.3495 28.7829 45.3165 30.6017 45.2014C35.492 44.892 40.3689 44.4124 45.225 43.7861C53.517 42.7142 62.207 41.6948 69.988 38.4819C72.5431 37.431 75.0511 36.1179 77.2368 34.4197C77.6248 34.1262 78.1986 33.6307 78.1986 33.0515Z" fill="white"/>
<path d="M43.3739 28.8954C43.3739 31.5319 45.5122 33.6678 48.1436 33.6678C50.7877 33.6678 52.9262 31.5319 52.9262 28.8954C52.9262 28.5025 52.8344 28.1066 52.672 27.7502C52.2606 26.8776 51.7993 26.4583 51.8464 25.4204C51.9042 24.0183 50.1089 24 49.1392 24C48.083 24 46.9668 24.1414 46.0049 24.621C45.2529 25.009 44.5951 25.5933 44.1313 26.3113C43.6596 27.0426 43.3973 27.9102 43.3765 28.7828C43.3723 28.8247 43.3723 28.8589 43.3723 28.8954" fill="white"/>
</svg>
