<svg width="100" height="100" viewBox="0 0 100 100" fill="none" xmlns="http://www.w3.org/2000/svg">
<path d="M0 50C0 22.3858 22.3858 0 50 0V0C77.6142 0 100 22.3858 100 50V50C100 77.6142 77.6142 100 50 100V100C22.3858 100 0 77.6142 0 50V50Z" fill="black"/>
<path fill-rule="evenodd" clip-rule="evenodd" d="M25.6449 40C20.8704 40 17 43.8704 17 48.6449V60.0935H20.7383V49.3458C20.7383 46.3779 23.1443 43.972 26.1121 43.972H74.243C77.2109 43.972 79.6168 46.3779 79.6168 49.3458V60.0935H83.3551V48.6449C83.3551 43.8704 79.4847 40 74.7103 40H25.6449Z" fill="white"/>
</svg>
