<svg width="160" height="160" viewBox="0 0 160 160" fill="none" xmlns="http://www.w3.org/2000/svg">
<circle cx="80" cy="80" r="80" fill="#292929"/>
<path d="M30 80C30 52.3858 52.3858 30 80 30V30C107.614 30 130 52.3858 130 80V80C130 107.614 107.614 130 80 130V130C52.3858 130 30 107.614 30 80V80Z" fill="#292929"/>
<path fill-rule="evenodd" clip-rule="evenodd" d="M55.6449 70C50.8704 70 47 73.8704 47 78.6449V90.0935H50.7383V79.3458C50.7383 76.3779 53.1443 73.972 56.1121 73.972H104.243C107.211 73.972 109.617 76.3779 109.617 79.3458V90.0935H113.355V78.6449C113.355 73.8704 109.485 70 104.71 70H55.6449Z" fill="white"/>
</svg>
