<svg width="160" height="160" viewBox="0 0 160 160" fill="none" xmlns="http://www.w3.org/2000/svg">
<circle cx="80" cy="80" r="80" fill="#8C8175"/>
<circle cx="80" cy="80" r="59" fill="#8C8175"/>
<path d="M113.133 80.7419L112.549 80.3698C110.559 78.3829 107.786 77.5217 104.08 77.7384C100.994 77.9271 98.5456 79.1511 96.6771 80.2874C96.6771 80.2595 96.6744 80.2316 96.6744 80.2037C96.6744 79.2362 96.7834 78.1889 96.8924 77.1709C96.9987 76.1369 97.1103 75.0843 97.1103 74.0889C97.1103 73.0722 96.996 72.1087 96.6452 71.2847C96.5574 71.0734 96.3621 70.9471 96.1162 70.9471C95.1195 70.9697 93.1725 71.6515 92.7007 72.0662C92.7007 72.0688 92.4442 72.6283 92.4442 72.6283C92.4282 73.7327 92.185 76.8147 91.9378 77.1895C91.9484 77.1762 91.8076 77.5616 91.8076 77.5616C91.3876 81.9646 91.3796 85.836 91.7664 89.1599C91.8102 89.4921 92.4521 89.9905 92.9452 90.1712C93.4874 90.3719 95.1833 89.9174 96.1614 89.5506C96.1481 89.5546 96.5269 89.4921 96.5269 89.4921C96.8352 89.4589 97.0173 89.1984 97.004 88.8462C96.9987 88.8382 97.0279 87.8893 97.0279 87.8893C97.7336 85.0213 100.59 81.5978 103.969 81.0835C105.88 80.7805 107.388 81.2722 108.58 82.5693C108.74 82.8032 109.089 84.8672 107.83 87.2394C106.893 88.9951 105.019 90.4769 102.553 91.4006C100.219 92.2883 97.6512 92.6458 94.4802 92.5369C94.3473 92.4518 91.5112 90.5287 91.5112 90.5287C88.9954 88.7625 85.8709 86.5656 83.0388 85.4905C82.5404 85.2991 81.65 84.5588 81.1131 84.1149L80.8193 83.8744C79.186 82.5653 76.0775 80.4907 73.5802 78.8295C73.5802 78.8295 72.4532 78.0733 72.2353 77.9271C72.2379 77.8341 72.238 77.6453 72.238 77.6453C72.311 77.5656 73.8806 76.6247 73.8806 76.6247C76.0761 75.3395 77.0915 74.7096 77.3068 74.384C77.2629 74.4371 77.5978 74.2125 77.5978 74.2125C77.6191 74.2032 83.0441 71.1319 83.0441 71.1319C88.2724 68.2612 94.1931 65.0012 97.303 61.781C97.3083 61.777 97.4559 61.2879 97.4559 61.2879L97.5196 60.8494C97.727 60.1596 97.7376 59.6333 97.5635 59.0206C97.5196 58.8452 97.3588 58.6432 97.1435 58.6047C94.7141 58.3615 91.583 59.818 88.7309 62.4933C88.0877 63.0954 87.5468 63.3917 86.9766 63.7014L86.5394 63.9459C83.3963 65.7335 76.3153 70.1285 72.6061 72.5008C72.8506 68.5137 73.5869 62.8429 74.4959 58.1156L74.3949 57.5508C74.3843 57.5322 74.0108 56.8358 74.0108 56.8358L73.7211 56.3241L73.6374 56.3015C72.8971 55.928 72.2924 56.0796 71.8486 56.1899L71.1083 56.4636L70.1195 56.8225C69.9255 56.861 69.7873 56.9819 69.7115 57.1707C67.9413 61.4501 66.4647 68.4885 66.1139 74.1195C62.5761 71.8695 59.3054 70.2507 57.7013 69.4693L57.6574 69.444L57.4674 69.4028C56.8906 69.3284 56.1875 68.9045 55.5124 68.4951C55.4393 68.4513 54.1648 67.622 54.1648 67.622L52.1101 66.3049C52.1248 66.3182 51.5666 66.1813 51.5666 66.1813C50.6841 66.3342 48.9896 67.4731 48.4859 68.2493C48.4208 68.3529 48.3929 68.4632 48.3929 68.5789C48.3929 68.7437 48.4447 68.9071 48.4859 69.0679L48.5763 69.4866L48.672 69.7378C49.6581 70.7478 52.1447 72.4303 54.5821 73.742L57.4089 75.2398L61.7361 77.6028C61.7361 77.6227 62.4737 78.1889 62.4737 78.1889L62.9827 78.4813C62.9827 78.4813 63.0426 78.5158 63.0758 78.5384C61.9235 79.3106 55.2054 83.7947 55.2054 83.7947L51.0682 86.5364C50.6761 86.8022 49.0441 87.5332 48.6826 87.678C47.7869 88.0435 47.1064 88.6043 46.8273 89.213L46.7157 89.4536L46.8273 89.6117L47.1436 89.8523C47.1277 89.8523 47.5663 90.1287 47.5663 90.1287L48.0234 90.441C48.0341 90.445 48.454 90.5101 48.454 90.5101C49.181 90.538 50.2575 90.1234 52.2723 89.2409C54.1236 88.4223 59.1486 85.3895 61.2976 84.095L62.2133 83.5461C62.592 83.5767 63.008 83.2564 63.3814 82.976C63.812 82.6318 64.749 82.0563 65.3205 81.8038C65.3391 81.7985 65.6634 81.6164 65.9717 81.445C65.969 81.5393 65.9664 81.6908 65.9664 81.6908C66.0621 88.2641 66.4382 93.0419 67.1572 96.7259L67.1678 96.7884L67.2382 96.9372C67.5917 97.4555 67.9931 99.0144 68.3519 100.387L69.1693 103.13C69.1879 103.164 69.4005 103.388 69.4005 103.388C69.8683 103.706 71.293 104.252 72.2433 104.139L72.4798 104.111L72.6313 103.776C72.7124 103.366 72.7403 102.963 72.7403 102.519C72.7403 102.018 72.7044 101.466 72.6592 100.789L72.5941 99.7999C72.2924 95.2122 71.9921 88.5871 71.9921 84.1827C71.9921 84.0591 71.9921 83.9475 71.9921 83.8319C72.7735 84.3196 76.1811 86.4686 76.1811 86.4686C81.9849 90.2337 90.751 95.9205 96.0484 97.4236C96.3235 97.5073 96.6146 97.4436 96.8166 97.2482C96.8246 97.2376 97.6313 96.7246 97.6313 96.7246L97.7841 96.6621C98.0885 96.5172 98.2905 96.0056 98.3264 95.45C102.79 95.2254 109.018 93.5057 112.351 89.3167C113.642 87.6913 114.22 85.7031 114.22 84.0007C114.223 82.6079 113.836 81.4038 113.133 80.7419Z" fill="#FCAF16"/>
</svg>
