<svg width="current" height="current" viewBox="0 0 100 100" fill="none" xmlns="http://www.w3.org/2000/svg">
<circle cx="50" cy="50" r="50" fill="#E60012"/>
<path d="M37.5912 80.7393C35.9252 80.7032 34.599 79.3321 34.6176 77.6663C34.6358 75.9996 35.9912 74.6586 37.6573 74.6586C39.3238 74.6586 40.6792 75.9996 40.6972 77.6663C40.7154 79.3321 39.3898 80.7032 37.724 80.7393H37.591M48.8494 23.5935C48.0814 23.5652 47.3158 23.6948 46.5999 23.9743C45.884 24.2538 45.2331 24.6772 44.6875 25.2184C42.3221 27.5844 41.0776 32.4495 41.1824 38.9299C41.3152 46.9311 43.2248 62.6092 49.5046 70.6863C50.4165 71.888 51.5171 72.934 52.7635 73.7837C53.9989 74.7152 55.501 75.225 57.0481 75.2378C57.6122 75.2327 58.1748 75.1786 58.7296 75.0763C62.3303 74.2115 66.843 70.2013 70.206 64.8612C71.0197 63.5787 72.7136 63.1889 74.0062 63.987C74.3156 64.1788 74.5836 64.4306 74.7941 64.7277C75.0046 65.0247 75.1535 65.361 75.232 65.7165C75.315 66.0724 75.3267 66.4413 75.2663 66.8017C75.2059 67.1622 75.0747 67.5071 74.8802 67.8165C70.6337 74.5633 65.0287 79.3047 59.8793 80.5018H59.7559C58.847 80.669 57.9249 80.7548 57.0007 80.7581C54.3741 80.7396 51.8167 79.9138 49.6753 78.3927C47.9254 77.2084 46.379 75.7482 45.0966 74.0688C36.2512 62.6665 35.6433 41.3908 35.5959 38.9966C35.5006 33.2955 36.318 25.6934 40.7453 21.2562C41.7968 20.1989 43.0524 19.3664 44.4357 18.8094C45.819 18.2524 47.3011 17.9824 48.7919 18.0159H49.305C50.7969 17.9798 52.2805 18.2477 53.6655 18.8031C55.0506 19.3585 56.3082 20.1899 57.3617 21.2468C61.7884 25.6367 62.6058 33.3236 62.511 38.9874C62.4157 44.8973 61.3327 56.3475 55.2051 66.6001C54.3783 67.8189 52.7442 68.1793 51.4817 67.4218C50.2198 66.6643 49.7682 65.0525 50.4547 63.7495C54.7393 56.5757 56.82 48.6793 56.9812 38.8919C57.0861 32.4114 55.8416 27.5372 53.4661 25.1804C52.9244 24.6394 52.277 24.2159 51.5642 23.9363C50.8515 23.6567 50.0888 23.5271 49.3237 23.5555L48.8494 23.5935Z" fill="white"/>
</svg>
