<svg width="160" height="160" viewBox="0 0 160 160" fill="none" xmlns="http://www.w3.org/2000/svg">
<circle cx="80" cy="80" r="80" fill="#B11824"/>
<circle cx="80" cy="80" r="50" fill="#B11824"/>
<path d="M67.5912 110.739C65.9252 110.703 64.599 109.332 64.6176 107.666C64.6358 106 65.9912 104.659 67.6573 104.659C69.3238 104.659 70.6792 106 70.6972 107.666C70.7154 109.332 69.3898 110.703 67.724 110.739H67.591M78.8494 53.5935C78.0814 53.5652 77.3158 53.6948 76.5999 53.9743C75.884 54.2538 75.2331 54.6772 74.6875 55.2184C72.3221 57.5844 71.0776 62.4495 71.1824 68.9299C71.3152 76.9311 73.2248 92.6092 79.5046 100.686C80.4165 101.888 81.5171 102.934 82.7635 103.784C83.9989 104.715 85.501 105.225 87.0481 105.238C87.6122 105.233 88.1748 105.179 88.7296 105.076C92.3303 104.211 96.843 100.201 100.206 94.8612C101.02 93.5787 102.714 93.1889 104.006 93.987C104.316 94.1788 104.584 94.4306 104.794 94.7277C105.005 95.0247 105.154 95.361 105.232 95.7165C105.315 96.0724 105.327 96.4413 105.266 96.8017C105.206 97.1622 105.075 97.5071 104.88 97.8165C100.634 104.563 95.0287 109.305 89.8793 110.502H89.7559C88.847 110.669 87.9249 110.755 87.0007 110.758C84.3741 110.74 81.8167 109.914 79.6753 108.393C77.9254 107.208 76.379 105.748 75.0966 104.069C66.2512 92.6665 65.6433 71.3908 65.5959 68.9966C65.5006 63.2955 66.318 55.6934 70.7453 51.2562C71.7968 50.1989 73.0524 49.3664 74.4357 48.8094C75.819 48.2524 77.3011 47.9824 78.7919 48.0159H79.305C80.7969 47.9798 82.2805 48.2477 83.6655 48.8031C85.0506 49.3585 86.3082 50.1899 87.3617 51.2468C91.7884 55.6367 92.6058 63.3236 92.511 68.9874C92.4157 74.8973 91.3327 86.3475 85.2051 96.6001C84.3783 97.8189 82.7442 98.1793 81.4817 97.4218C80.2198 96.6643 79.7682 95.0525 80.4547 93.7495C84.7393 86.5757 86.82 78.6793 86.9812 68.8919C87.0861 62.4114 85.8416 57.5372 83.4661 55.1804C82.9244 54.6394 82.277 54.2159 81.5642 53.9363C80.8515 53.6567 80.0888 53.5271 79.3237 53.5555L78.8494 53.5935Z" fill="white"/>
</svg>
