<svg width="83" height="57" viewBox="0 0 83 57" fill="none" xmlns="http://www.w3.org/2000/svg">
<rect x="0.592863" y="0.592863" width="81.815" height="55.7291" rx="6.52149" fill="white" stroke="#D9D9D9" stroke-width="1.18573"/>
<path fill-rule="evenodd" clip-rule="evenodd" d="M42.0933 40.6868C39.2675 43.1253 35.602 44.5974 31.5967 44.5974C22.6595 44.5974 15.4144 37.2683 15.4144 28.2273C15.4144 19.1864 22.6595 11.8572 31.5967 11.8572C35.602 11.8572 39.2675 13.3293 42.0933 15.7679C44.919 13.3293 48.5845 11.8573 52.5899 11.8573C61.5271 11.8573 68.7721 19.1864 68.7721 28.2273C68.7721 37.2683 61.5271 44.5974 52.5899 44.5974C48.5845 44.5974 44.919 43.1253 42.0933 40.6868Z" fill="#ED0006"/>
<path fill-rule="evenodd" clip-rule="evenodd" d="M42.0933 40.6868C45.5726 37.6842 47.7789 33.2164 47.7789 28.2273C47.7789 23.2382 45.5726 18.7704 42.0933 15.7679C44.919 13.3293 48.5845 11.8572 52.5899 11.8572C61.5271 11.8572 68.7721 19.1864 68.7721 28.2273C68.7721 37.2683 61.5271 44.5974 52.5899 44.5974C48.5845 44.5974 44.919 43.1253 42.0933 40.6868Z" fill="#F9A000"/>
<path fill-rule="evenodd" clip-rule="evenodd" d="M42.0934 40.6867C45.5727 37.6842 47.7789 33.2164 47.7789 28.2273C47.7789 23.2383 45.5727 18.7705 42.0934 15.7679C38.6141 18.7705 36.4078 23.2383 36.4078 28.2273C36.4078 33.2164 38.6141 37.6842 42.0934 40.6867Z" fill="#FF5E00"/>
</svg>
