<svg width="23" height="15" viewBox="0 0 54 34" fill="none" xmlns="http://www.w3.org/2000/svg">
<path fill-rule="evenodd" clip-rule="evenodd" d="M27.0933 29.6868C24.2675 32.1253 20.602 33.5974 16.5967 33.5974C7.65946 33.5974 0.414429 26.2683 0.414429 17.2273C0.414429 8.18638 7.65946 0.857239 16.5967 0.857239C20.602 0.857239 24.2675 2.32933 27.0933 4.76786C29.919 2.32934 33.5845 0.857253 37.5899 0.857253C46.5271 0.857253 53.7721 8.18639 53.7721 17.2273C53.7721 26.2683 46.5271 33.5974 37.5899 33.5974C33.5845 33.5974 29.919 32.1253 27.0933 29.6868Z" fill="#ED0006"/>
<path fill-rule="evenodd" clip-rule="evenodd" d="M27.0933 29.6868C30.5726 26.6842 32.7789 22.2164 32.7789 17.2273C32.7789 12.2382 30.5726 7.77043 27.0933 4.76785C29.919 2.32933 33.5845 0.857239 37.5899 0.857239C46.5271 0.857239 53.7721 8.18638 53.7721 17.2273C53.7721 26.2683 46.5271 33.5974 37.5899 33.5974C33.5845 33.5974 29.919 32.1253 27.0933 29.6868Z" fill="#F9A000"/>
<path fill-rule="evenodd" clip-rule="evenodd" d="M27.0934 29.6867C30.5727 26.6842 32.7789 22.2164 32.7789 17.2273C32.7789 12.2383 30.5727 7.77049 27.0934 4.76791C23.6141 7.77049 21.4078 12.2383 21.4078 17.2273C21.4078 22.2164 23.6141 26.6842 27.0934 29.6867Z" fill="#FF5E00"/>
</svg>
