<svg width="125" height="323" viewBox="0 0 125 323" fill="none" xmlns="http://www.w3.org/2000/svg">
<path fill-rule="evenodd" clip-rule="evenodd" d="M44.141 296.34L41.9657 311.198L20.596 313.406L23.9094 298.098L44.141 296.34Z" fill="white"/>
<path fill-rule="evenodd" clip-rule="evenodd" d="M20.526 313.944L42.0728 311.829C42.3345 311.803 42.5451 311.602 42.5833 311.342L44.7827 296.311C44.8285 295.998 44.6117 295.707 44.2988 295.661C43.9854 295.618 43.6954 295.833 43.6494 296.145L41.5149 310.733L21.2016 312.727L24.4428 298.246C24.512 297.938 24.3176 297.632 24.0093 297.562C23.6993 297.493 23.394 297.688 23.3253 297.996L19.9113 313.249C19.8709 313.429 19.9194 313.616 20.0411 313.754C20.1504 313.877 20.3068 313.947 20.47 313.947C20.4886 313.947 20.5074 313.946 20.526 313.944Z" fill="#141414"/>
<path fill-rule="evenodd" clip-rule="evenodd" d="M42.9333 309.456C42.8638 309.182 42.5946 309.009 42.3164 309.058C42.0517 309.106 41.7165 309.17 41.322 309.246C38.9035 309.712 33.8711 310.68 29.1021 310.684H29.09C26.2805 310.684 23.8097 309.916 22.1327 308.519C21.9994 308.408 21.8211 308.369 21.6526 308.412C13.4674 310.543 7.55346 312.083 3.17086 315.006C2.40076 315.52 -0.377277 317.762 0.103096 319.348C0.325511 320.082 1.11662 320.454 2.45488 320.454C7.34046 320.454 17.8664 320.481 27.1532 320.505C34.6676 320.525 41.157 320.542 43.6003 320.542C43.8585 320.542 44.0914 320.425 44.2565 320.212C45.2186 318.975 43.6517 312.277 42.9333 309.456Z" fill="#FF4949"/>
<path fill-rule="evenodd" clip-rule="evenodd" d="M43.5018 322.913H1.27093C0.569219 322.913 -1.29674e-05 322.344 -1.29674e-05 321.642V321.222C-1.29674e-05 320.521 0.569219 319.952 1.27093 319.952H43.5018C44.2035 319.952 44.7727 320.521 44.7727 321.222V321.642C44.7727 322.344 44.2035 322.913 43.5018 322.913Z" fill="#141414"/>
<path fill-rule="evenodd" clip-rule="evenodd" d="M13.2644 313.486C13.0503 313.486 12.8452 313.366 12.7471 313.159C11.8486 311.272 10.1223 311.734 9.92819 311.794C9.62715 311.885 9.30699 311.717 9.21329 311.416C9.11985 311.115 9.28545 310.796 9.58541 310.701C10.5645 310.39 12.7019 310.401 13.7811 312.667C13.9171 312.953 13.7959 313.294 13.5103 313.43C13.4308 313.468 13.3471 313.486 13.2644 313.486Z" fill="#141414"/>
<path fill-rule="evenodd" clip-rule="evenodd" d="M18.3216 312.107C18.1075 312.107 17.902 311.986 17.804 311.78C16.9055 309.893 15.1792 310.355 14.9853 310.414C14.684 310.506 14.3639 310.337 14.2704 310.037C14.177 309.736 14.3426 309.417 14.6426 309.321C15.6227 309.011 17.7596 309.022 18.838 311.288C18.974 311.574 18.8528 311.915 18.5671 312.051C18.4877 312.089 18.4042 312.107 18.3216 312.107Z" fill="#141414"/>
<path fill-rule="evenodd" clip-rule="evenodd" d="M82.4937 296.301L83.1336 311.314L101.955 312.928L101.667 297.853L82.4937 296.301Z" fill="white"/>
<path fill-rule="evenodd" clip-rule="evenodd" d="M101.998 313.497C102.143 313.497 102.283 313.442 102.39 313.342C102.508 313.232 102.574 313.076 102.571 312.914L102.296 297.835C102.291 297.519 102.02 297.266 101.714 297.273C101.397 297.279 101.146 297.54 101.151 297.856L101.414 312.301L83.685 310.817L83.0527 296.204C83.0393 295.888 82.7727 295.642 82.456 295.656C82.1399 295.67 81.8949 295.937 81.9086 296.253L82.5624 311.371C82.5748 311.659 82.7996 311.893 83.0869 311.917L101.951 313.495C101.967 313.496 101.983 313.497 101.998 313.497Z" fill="#141414"/>
<path fill-rule="evenodd" clip-rule="evenodd" d="M81.828 309.543C81.8974 309.269 82.1667 309.096 82.4449 309.145C82.7098 309.193 83.0448 309.257 83.4395 309.333C85.8578 309.799 90.8902 310.767 95.6592 310.771H95.6715C98.4808 310.771 100.952 310.003 102.629 308.606C102.762 308.496 102.94 308.456 103.109 308.499C111.294 310.63 117.208 312.17 121.59 315.093C122.361 315.607 125.139 317.849 124.658 319.435C124.436 320.169 123.645 320.541 122.307 320.541C117.421 320.541 106.895 320.568 97.6081 320.592C90.0939 320.612 83.6043 320.629 81.161 320.629C80.903 320.629 80.6698 320.512 80.5048 320.299C79.5427 319.062 81.1096 312.364 81.828 309.543Z" fill="#FF4949"/>
<path fill-rule="evenodd" clip-rule="evenodd" d="M81.2595 323H123.49C124.192 323 124.761 322.431 124.761 321.729V321.31C124.761 320.608 124.192 320.039 123.49 320.039H81.2595C80.5577 320.039 79.9888 320.608 79.9888 321.31V321.729C79.9888 322.431 80.5577 323 81.2595 323Z" fill="#141414"/>
<path fill-rule="evenodd" clip-rule="evenodd" d="M111.497 313.573C111.711 313.573 111.916 313.453 112.014 313.246C112.913 311.359 114.639 311.821 114.833 311.881C115.134 311.972 115.455 311.804 115.548 311.503C115.642 311.202 115.476 310.883 115.176 310.788C114.197 310.477 112.06 310.488 110.981 312.754C110.845 313.04 110.966 313.381 111.251 313.517C111.331 313.555 111.414 313.573 111.497 313.573Z" fill="#141414"/>
<path fill-rule="evenodd" clip-rule="evenodd" d="M106.44 312.194C106.654 312.194 106.859 312.073 106.957 311.867C107.856 309.98 109.582 310.442 109.776 310.501C110.077 310.593 110.398 310.424 110.491 310.124C110.584 309.823 110.419 309.504 110.119 309.408C109.139 309.098 107.002 309.11 105.923 311.375C105.787 311.661 105.909 312.002 106.194 312.138C106.273 312.176 106.357 312.194 106.44 312.194Z" fill="#141414"/>
<path fill-rule="evenodd" clip-rule="evenodd" d="M107.455 127.081L121.53 304.566C107.652 305.701 92.8969 305.537 77.5966 304.566C77.5966 304.566 75.1719 156.22 73.8401 156.069C71.3469 155.788 59.0998 304.566 59.0998 304.566C45.2576 306.809 31.6809 306.126 18.1838 304.566C18.1838 304.566 28.4553 173.135 46.0371 126.418C73.8255 127.652 107.455 127.081 107.455 127.081Z" fill="#0085FF"/>
<path fill-rule="evenodd" clip-rule="evenodd" d="M92.0991 132.866C92.4294 132.695 92.8358 132.823 93.0065 133.153C97.4688 141.76 107.102 140.946 107.521 140.905C107.894 140.869 108.221 141.14 108.257 141.51C108.293 141.88 108.023 142.209 107.653 142.245C107.634 142.247 107.3 142.277 106.735 142.277C104.003 142.277 95.8634 141.589 91.8115 133.773C91.6402 133.443 91.7689 133.037 92.0991 132.866Z" fill="white"/>
<path fill-rule="evenodd" clip-rule="evenodd" d="M42.6807 139.637C43.0771 139.677 52.4245 140.497 56.7532 131.885C56.9196 131.555 57.3135 131.426 57.6329 131.597C57.9531 131.768 58.078 132.175 57.9121 132.505C53.9832 140.321 46.0924 141.009 43.4433 141.009C42.8959 141.009 42.5722 140.979 42.5539 140.977C42.1955 140.941 41.9338 140.612 41.9683 140.242C42.0033 139.873 42.3232 139.602 42.6807 139.637Z" fill="white"/>
<path fill-rule="evenodd" clip-rule="evenodd" d="M107.707 127.317C108.081 124.275 110.835 104.236 111.477 92.9022C116.045 93.8653 116.676 73.0852 110.769 59.7761C101.359 38.574 69.057 45.2028 69.057 45.2028C69.057 45.2028 59.4062 44.751 49.879 52.5481C45.6205 56.0335 40.9307 63.8164 38.598 72.3622C39.328 74.7255 47.0471 85.3199 49.8618 87.1224C45.5112 108.254 42.0684 127.317 42.0684 127.317C42.0684 127.317 98.1539 128.193 107.707 127.317Z" fill="#FF4949"/>
<path fill-rule="evenodd" clip-rule="evenodd" d="M42.7057 127.069C43.3199 123.565 46.512 106.064 50.3895 87.231C50.4345 87.0126 50.34 86.7891 50.1523 86.669C47.4327 84.9274 40.0881 74.7994 39.1613 72.3445C41.3742 64.3499 45.806 56.5775 50.2201 52.965C59.4625 45.4011 68.9385 45.7355 69.0322 45.7409C69.0775 45.7419 69.1216 45.7393 69.1652 45.7304C69.2455 45.7142 77.2877 44.0991 86.3526 45.0769C91.6491 45.6482 96.253 46.9795 100.037 49.0343C104.737 51.5861 108.182 55.2737 110.277 59.9948C112.573 65.1688 114.091 72.0771 114.439 78.9486C114.751 85.0776 114.053 90.1479 112.663 91.8656C112.207 92.4292 111.831 92.4273 111.588 92.3753C111.434 92.3433 111.274 92.3793 111.149 92.4744C111.024 92.57 110.948 92.7149 110.939 92.8718C110.385 102.66 108.106 118.37 107.248 124.993C107.153 125.722 107.077 126.314 107.022 126.742C97.0864 127.473 48.7577 127.267 42.7057 127.069ZM107.551 127.78C107.804 127.757 108.006 127.561 108.037 127.309C108.087 126.9 108.184 126.151 108.316 125.132C109.16 118.615 111.377 103.381 111.983 93.4621C112.449 93.412 112.987 93.1775 113.501 92.5431C115.072 90.6014 115.844 85.3714 115.515 78.8942C115.16 71.8956 113.609 64.8478 111.261 59.5578C107.331 50.7029 98.7491 45.3243 86.442 44.0033C77.6528 43.0592 69.8118 44.5079 69.0147 44.6625C68.0618 44.6296 58.8055 44.5469 49.5381 52.1314C44.9355 55.8984 40.3302 63.9714 38.0786 72.2204C38.0517 72.3192 38.0533 72.4234 38.0837 72.5211C38.7798 74.7744 46.0818 84.964 49.2632 87.3602C44.9939 108.13 41.5721 127.297 41.5379 127.494C41.5112 127.648 41.5521 127.805 41.6507 127.926C41.749 128.047 41.8947 128.119 42.0503 128.125C43.8899 128.186 79.1392 128.017 97.7216 128.017C102.202 128.017 105.71 127.948 107.551 127.78Z" fill="#141414"/>
<path fill-rule="evenodd" clip-rule="evenodd" d="M82.3613 36.9236C82.3613 36.9236 82.7269 46.1967 86.5583 47.5209C87.6007 52.7329 80.5372 56.2918 75.168 56.0397C64.774 55.5518 68.009 47.0562 68.7237 47.033C68.7029 45.9681 68.1289 38.0026 68.1289 38.0026L82.3613 36.9236Z" fill="white"/>
<path fill-rule="evenodd" clip-rule="evenodd" d="M86.0471 47.931C86.2331 49.294 85.8106 50.5857 84.7882 51.7748C82.8043 54.0827 78.7706 55.6382 75.1948 55.4678C71.6224 55.3 69.3258 54.111 68.5538 52.0292C67.8284 50.0741 68.6273 47.9539 68.9499 47.5594C69.1575 47.47 69.3011 47.2616 69.2965 47.0219C69.2784 46.1102 68.8735 40.3859 68.7407 38.5303L81.8244 37.5386C81.9765 39.612 82.724 46.3835 86.0471 47.931ZM75.7145 56.6251C79.4651 56.6251 83.5685 54.9503 85.6566 52.5215C86.976 50.9872 87.482 49.2189 87.1198 47.4089C87.08 47.2094 86.9375 47.0462 86.7455 46.9799C83.9088 45.9995 83.0321 39.3718 82.9335 36.901C82.9273 36.7456 82.8584 36.5994 82.7423 36.496C82.626 36.3926 82.4717 36.3423 82.318 36.3525L68.0856 37.4315C67.7711 37.4554 67.5349 37.729 67.5575 38.0438C67.5629 38.1181 68.0605 45.0269 68.1408 46.7637C67.5174 47.4355 67.1219 49.0821 67.1133 50.2483C67.1014 51.8822 67.6618 53.308 68.7342 54.3713C70.0965 55.7225 72.2522 56.4762 75.1412 56.6119C75.331 56.6205 75.5225 56.6251 75.7145 56.6251Z" fill="#141414"/>
<path fill-rule="evenodd" clip-rule="evenodd" d="M38.619 72.2794L53.3913 74.3495L51.7601 83.8829C51.7601 83.8829 73.0193 81.8238 80.3216 79.4063C83.9968 78.1895 88.7472 79.5442 90.6081 83.3689C91.5926 85.3921 90.9582 90.6569 90.9582 90.6569C90.9582 90.6569 84.1107 90.5634 82.1545 90.5634C81.9544 90.5634 81.6959 90.6307 81.3873 90.7514L91.2183 90.8564L91.711 76.6671L114.853 76.9595C114.853 76.9595 119.248 107.52 101.659 112.278C85.6326 116.613 66.269 101.941 64.7555 100.768C57.2354 104.682 48.2954 107.752 39.8768 105.603C29.2297 102.886 38.1839 73.4846 38.619 72.2794Z" fill="white"/>
<path fill-rule="evenodd" clip-rule="evenodd" d="M36.6709 102.296C37.4676 103.8 38.5598 104.711 40.0098 105.082C53.0237 108.404 67.1727 99.1232 75.6268 93.5787C78.4229 91.7447 80.1349 90.641 81.2618 90.2212C81.2645 90.218 81.268 90.2147 81.2707 90.2115L81.2887 90.2118C81.6245 90.089 81.9102 90.0249 82.1544 90.0249C83.7862 90.0249 88.8697 90.0903 90.4748 90.1119C90.6385 88.416 90.8009 84.9966 90.1237 83.6045C88.7071 80.6937 84.7173 78.5186 80.4904 79.9177C73.2352 82.3195 52.8002 84.3232 51.8217 84.4182L48.3035 84.887C48.2792 84.8902 48.2553 84.8918 48.2316 84.8918C47.9658 84.8918 47.7345 84.695 47.6984 84.4244C47.6591 84.1295 47.8662 83.8587 48.161 83.8194L51.2956 83.4014L52.7666 74.8056L38.9906 72.8752C38.5283 74.3541 37.1273 79.2251 36.1665 84.8022C34.7593 92.9685 34.9341 99.0179 36.6709 102.296ZM95.4247 112.532C97.4844 112.532 99.5308 112.295 101.518 111.758C108.578 109.848 112.884 103.465 114.315 92.7841C115.245 85.8464 114.587 79.2523 114.377 77.4921L92.2307 77.2121L91.7562 90.875C91.746 91.1674 91.5031 91.392 91.2123 91.3949L81.4761 91.2907C80.3697 91.7568 78.4143 93.0383 76.2176 94.4791C73.3109 96.3855 69.7412 98.7249 65.7709 100.856C69.0985 103.297 82.5398 112.532 95.4247 112.532ZM38.1125 72.0965C38.1989 71.8571 38.441 71.7115 38.6936 71.7459L52.9637 73.7458L54.7562 64.8643C54.8154 64.5727 55.1003 64.3836 55.3906 64.4429C55.6825 64.5018 55.871 64.7856 55.8123 65.0773L53.9207 74.4488L52.4098 83.2765C56.1472 82.895 73.7344 81.0195 80.1522 78.8953C82.0903 78.2533 84.3401 78.2878 86.3246 78.9892C88.3683 79.7122 90.0014 81.0855 90.9565 82.8718L91.1695 76.7349C91.1671 76.7118 91.1636 76.6892 91.1638 76.6655L91.3526 65.706C91.3575 65.4087 91.5904 65.1664 91.9003 65.1769C92.1976 65.182 92.4345 65.4273 92.4294 65.7246L92.2501 76.1353L114.859 76.421C115.125 76.4245 115.348 76.6205 115.386 76.883C115.397 76.96 116.482 84.692 115.386 92.9058C113.915 103.913 109.217 110.791 101.799 112.798C99.7128 113.362 97.5732 113.605 95.4336 113.605C88.5686 113.605 81.7115 111.1 76.6651 108.663C70.6519 105.757 66.0444 102.416 64.7137 101.413C58.918 104.41 52.3417 106.86 45.7484 106.86C43.7413 106.86 41.732 106.633 39.7432 106.125C38.007 105.682 36.6531 104.563 35.7193 102.801C31.0976 94.0771 38.0366 72.306 38.1125 72.0965Z" fill="#141414"/>
<path fill-rule="evenodd" clip-rule="evenodd" d="M63.3824 23.7131C64.3725 10.3483 75.3212 10.1604 81.6807 11.3166C86.7491 12.2383 93.2326 16.4284 92.6588 24.8583C95.5577 24.3618 97.2576 26.0216 97.2576 28.0537C97.2576 30.0859 96.8144 32.5195 93.0793 32.5195C92.7175 38.7113 88.6927 49.5668 73.1282 47.3281C62.8797 45.8542 62.3829 37.2075 63.3824 23.7131Z" fill="white"/>
<path fill-rule="evenodd" clip-rule="evenodd" d="M97.0814 22.7868C96.6759 11.6882 72.4851 -1.03337 65.2066 15.8532C61.597 21.3358 62.0106 35.5735 63.6249 40.4268C62.4886 43.4841 61.3668 47.6704 62.3499 50.5039C64.0646 55.4458 69.6018 53.7211 70.7688 51.9598C71.299 51.1593 71.6367 49.5237 71.6625 47.6039C75.7702 48.4779 80.6254 48.4141 84.2812 46.8534C84.5989 49.1538 85.2985 50.9966 86.6287 51.693C91.441 54.2133 103.897 55.7201 106.788 44.2951C109.387 34.0266 100.535 25.6112 97.0814 22.7868ZM66.2177 16.2751C70.0986 14.0938 79.3181 14.8163 83.9083 17.4556C84.6768 19.225 87.5245 25.5964 89.1245 26.6366C90.9741 27.7667 91.4392 24.9999 93.6498 25.3096C95.3492 25.2759 96.723 26.3455 96.7192 28.0537C96.7192 30.0934 96.2782 31.981 93.0795 31.981C92.7941 31.981 92.5585 32.2034 92.5418 32.4883C92.4408 34.2148 91.7531 40.1406 87.1403 43.9076C82.9602 47.2422 77.4879 47.6914 71.6445 46.4948C67.434 45.5483 65.1312 42.6362 64.2741 38.7883L64.2467 38.6551C63.3462 34.1732 62.7133 21.408 66.2177 16.2751ZM94.1801 26.8786L94.1315 26.8815C93.2068 26.8107 93.2992 28.75 94.173 28.6773C95.0664 28.7241 95.0721 26.7921 94.1315 26.8815L94.1801 26.8786Z" fill="#141414"/>
<path fill-rule="evenodd" clip-rule="evenodd" d="M60.4097 10.2727C61.8904 9.06202 64.0935 8.11582 66.7178 7.65429C68.6083 4.33423 72.4457 0.0167922 79.4716 0.590332C94.7114 1.83462 103.53 12.3848 96.1503 23.4514C94.2342 22.0488 92.68 20.9356 91.044 19.9547C87.8986 18.362 80.5713 14.9514 75.2355 14.8112C63.3805 14.4996 63.9847 18.1573 63.5361 20.6607C60.8198 19.9482 56.4415 13.5162 60.4097 10.2727Z" fill="#FFC81A"/>
<path fill-rule="evenodd" clip-rule="evenodd" d="M59.4859 14.7822C59.9633 16.9754 61.7052 19.147 63.1054 19.9066C63.4374 17.4999 63.9091 14.2547 73.9143 14.2547C74.3414 14.2547 74.7873 14.2606 75.2496 14.2728C78.2078 14.3506 82.0712 15.3889 86.7325 17.3591C88.395 18.0616 89.8676 18.7641 90.9506 19.3051C86.5346 13.1793 80.5561 9.25389 73.9291 8.17709C67.7077 7.16572 62.9417 8.89845 60.7504 10.6896C59.2382 11.9258 59.2279 13.5977 59.4859 14.7822ZM96.0077 22.6804C98.5631 18.5967 98.9662 14.4887 97.1672 10.7709C94.621 5.50784 87.8236 1.81241 79.4278 1.12713C79.0148 1.09347 78.6093 1.0765 78.2102 1.0765C74.2991 1.0765 71.0504 2.69372 68.5405 5.89478C68.2613 6.25102 68.0087 6.60941 67.7758 6.96431C69.7969 6.72816 71.9559 6.76478 74.102 7.11375C81.6466 8.33999 88.3716 13.0848 93.038 20.4743C93.0684 20.5222 93.0883 20.5742 93.102 20.6269C94.0216 21.2441 94.9635 21.9186 96.0077 22.6804ZM60.0689 9.8557C61.6629 8.55271 63.8868 7.63747 66.402 7.16976C68.4221 3.75706 72.4035 -0.528868 79.5153 0.0535578C88.4227 0.78058 95.3838 4.61172 98.1368 10.3016C100.151 14.4656 99.6051 19.2416 96.5985 23.7502C96.5169 23.8724 96.389 23.9562 96.2444 23.9817C96.2132 23.9874 96.1817 23.9901 96.1504 23.9901C96.0368 23.9901 95.9253 23.9543 95.8324 23.8861C94.3692 22.815 93.1195 21.9138 91.8747 21.1097C91.8747 21.1097 81.1913 15.5063 75.2213 15.3496C64.8602 15.0752 64.4926 17.731 64.1701 20.0722C64.1375 20.3065 64.1057 20.5357 64.0664 20.7559C64.0397 20.9037 63.9528 21.0338 63.8262 21.1148C63.6994 21.1954 63.5446 21.2199 63.3994 21.1819C61.2006 20.6049 58.964 17.4482 58.4336 15.0114C57.9783 12.9205 58.5593 11.0898 60.0689 9.8557Z" fill="#141414"/>
<path fill-rule="evenodd" clip-rule="evenodd" d="M74.9775 39.7092C73.811 39.5403 72.7762 40.0196 72.6664 40.7798C72.5562 41.5397 73.4128 42.2925 74.5792 42.4614C75.746 42.6302 76.7808 42.1506 76.8906 41.3908C77.0005 40.6309 76.1442 39.8777 74.9775 39.7092ZM74.7517 32.3987L74.7175 32.3999C74.5549 32.4142 74.4294 32.5432 74.4146 32.7002C74.3702 33.1674 74.3246 33.6343 74.2579 34.0751C74.2409 34.1844 74.221 34.2915 74.1976 34.3896C74.1881 34.434 74.1733 34.4822 74.1599 34.5202C74.1133 34.5444 74.0667 34.5684 74.0206 34.5969C73.8965 34.6726 73.7748 34.7641 73.6612 34.875C73.4347 35.088 73.2336 35.4163 73.212 35.7946C73.1873 36.1735 73.355 36.5305 73.5831 36.7653C73.8133 37.0055 74.099 37.1517 74.3874 37.2268C74.5317 37.2656 74.6779 37.2831 74.8217 37.2898C74.965 37.2904 75.1114 37.3103 75.2418 37.2217C75.4144 37.1046 75.4593 36.8698 75.3422 36.6974C75.3142 36.656 75.2795 36.6221 75.2402 36.5959L75.1683 36.5485C75.0638 36.4791 74.9739 36.5138 74.8818 36.492C74.7907 36.4793 74.7019 36.4613 74.6208 36.4306C74.4569 36.3743 74.3144 36.2833 74.2245 36.1748C74.1316 36.0668 74.0977 35.954 74.11 35.8587C74.1222 35.7634 74.1779 35.6551 74.2991 35.5528C74.357 35.5014 74.4272 35.4532 74.5064 35.4098C74.5449 35.3867 74.5853 35.3651 74.6289 35.3455L74.6607 35.3298L74.6849 35.318C74.7229 35.2989 74.7622 35.2749 74.7934 35.2499C74.9041 35.1556 74.9345 35.088 74.9695 35.0275C75.07 34.8123 75.0724 34.6868 75.0964 34.5468C75.1128 34.4124 75.1217 34.2851 75.1276 34.1596C75.1481 33.6604 75.1206 33.1819 75.0786 32.7029C75.0627 32.5195 74.9011 32.3838 74.7175 32.3999L74.7517 32.3987ZM83.2645 31.1418C83.1546 30.3819 82.5086 29.8464 81.8217 29.9457C81.1348 30.0451 80.6671 30.742 80.777 31.5018C80.8868 32.2617 81.5328 32.7973 82.22 32.6979C82.9066 32.5986 83.3743 31.902 83.2645 31.1418ZM69.7444 29.481C69.0575 29.3816 68.4115 29.9172 68.3016 30.6771C68.1915 31.4372 68.6592 32.1338 69.3461 32.2332C70.033 32.3325 70.679 31.7969 70.7891 31.0371C70.899 30.2769 70.4313 29.5803 69.7444 29.481ZM82.0002 24.7659C81.5535 24.764 81.19 25.1246 81.1881 25.571C81.1862 26.0175 81.5465 26.381 81.993 26.3829C82.0123 26.3831 82.0333 26.3823 82.0522 26.381C82.7741 26.3312 83.514 26.5307 84.1856 26.94C84.5227 27.1419 84.8405 27.395 85.1323 27.6848C85.4232 27.9764 85.6959 28.293 85.9945 28.6129L86.0037 28.6226C86.176 28.8071 86.4652 28.817 86.6497 28.6447C86.7867 28.5168 86.8271 28.3237 86.7684 28.1576C86.6044 27.6974 86.3494 27.2723 86.0406 26.884C85.7331 26.4941 85.379 26.1298 84.9727 25.8126C84.5669 25.4948 84.1029 25.2342 83.6002 25.0478C83.0975 24.8612 82.552 24.7683 82.0072 24.7659H82.0002ZM70.4899 24.5038C70.4406 24.5022 70.3873 24.5057 70.3399 24.5124C69.8789 24.5811 69.4142 24.6565 68.9451 24.7634C68.4766 24.8714 68.0043 25.024 67.542 25.2386C67.0826 25.4541 66.627 25.7381 66.2635 26.1178C65.8973 26.4934 65.6267 26.9412 65.4565 27.3998C65.3579 27.6655 65.4934 27.9607 65.7589 28.0595C65.9856 28.1435 66.2339 28.0573 66.3631 27.8653L66.3682 27.8575C66.8166 27.1911 67.3362 26.7107 68.0493 26.4573C68.4036 26.3313 68.7954 26.2691 69.1974 26.2282C69.6 26.1875 70.0168 26.1789 70.4379 26.1921C70.904 26.2064 71.2937 25.8402 71.3079 25.3741C71.3225 24.908 70.9563 24.5181 70.4899 24.5038Z" fill="#141414"/>
<path fill-rule="evenodd" clip-rule="evenodd" d="M81.4863 38.0292C80.8279 37.722 80.3526 38.7441 81.0097 39.0505C81.6683 39.3578 82.1433 38.3359 81.4863 38.0292ZM84.0309 39.0028C85.0788 38.8251 83.9223 37.4709 83.561 38.3353C83.3345 38.677 83.6 39.1608 84.0309 39.0028ZM69.0047 36.4196C68.3399 36.4143 68.33 37.4472 68.9961 37.4528C69.6609 37.4585 69.6706 36.4256 69.0047 36.4196ZM82.6185 36.1104C82.22 35.9246 81.9321 36.5433 82.3301 36.7289C82.7289 36.9147 83.0167 36.2962 82.6185 36.1104ZM80.6409 35.4274C80.0972 35.1741 79.7049 36.018 80.2475 36.2711C80.7914 36.5244 81.1837 35.6808 80.6409 35.4274ZM67.5374 35.5852C67.5794 34.7273 66.0882 35.3919 66.8852 35.952C67.1795 36.253 67.5896 35.9571 67.5374 35.5852ZM70.4993 34.5453C69.9502 34.5407 69.9421 35.3937 70.4923 35.3983C71.041 35.4032 71.0491 34.5501 70.4993 34.5453ZM68.504 33.7362C68.1014 33.7327 68.0952 34.3585 68.4986 34.3617C68.9014 34.3652 68.9071 33.7397 68.504 33.7362Z" fill="#FF4949"/>
<path fill-rule="evenodd" clip-rule="evenodd" d="M69.5062 32.3842C72.0144 32.3842 73.906 30.4312 73.906 27.8414C73.906 25.2586 71.89 23.1572 69.4117 23.1572C66.8388 23.1572 64.8231 25.1334 64.8231 27.6561C64.8231 30.219 66.9678 32.3842 69.5062 32.3842ZM83.5027 34.1848C86.0168 34.1848 88.1408 31.7514 88.1408 28.8716C88.1408 26.2204 85.9153 24.0638 83.1798 24.0638C80.5771 24.0638 78.4596 26.382 78.4596 29.2316C78.4596 31.9165 80.7691 34.1848 83.5027 34.1848ZM69.4117 22.0801C71.7726 22.0801 73.7897 23.6088 74.5999 25.757C75.6 25.6832 77.3876 25.9159 78.1669 26.1008C79.1718 24.2407 81.0419 22.9868 83.1798 22.9868C86.5093 22.9868 89.2179 25.6267 89.2179 28.8716C89.2179 32.3952 86.6542 35.2619 83.5027 35.2619C80.1853 35.2619 77.3825 32.5002 77.3825 29.2316C77.3825 28.4812 77.5061 27.7614 77.7326 27.0942C77.0661 26.9611 75.6239 26.8101 74.8886 26.8104C74.9475 27.1453 74.9831 27.4889 74.9831 27.8414C74.9831 30.9929 72.5772 33.4613 69.5062 33.4613C66.3837 33.4613 63.746 30.8028 63.746 27.6561C63.746 24.5294 66.2348 22.0801 69.4117 22.0801Z" fill="#FF4949"/>
</svg>
