<?xml version="1.0" ?><svg id="Layer_1" style="enable-background:new 0 0 156 128;" version="1.1" viewBox="0 0 156 128" xml:space="preserve" xmlns="http://www.w3.org/2000/svg" xmlns:xlink="http://www.w3.org/1999/xlink"><style type="text/css">
	.st0{clip-path:url(#SVGID_2_);fill:#D9D9D9;stroke:#CBCBCB;stroke-width:2;stroke-miterlimit:10;}
	.st1{clip-path:url(#SVGID_4_);}
	.st2{clip-path:url(#SVGID_6_);fill:#FFFFFF;stroke:#D0021B;stroke-width:2;stroke-miterlimit:10;}
	.st3{clip-path:url(#SVGID_8_);}
</style><g><defs><path d="M14,26c0-1.1,0.9-2,2-2h124c1.1,0,2,0.9,2,2v76c0,1.1-0.9,2-2,2H16c-1.1,0-2-0.9-2-2V26z" id="SVGID_1_"/></defs><use style="overflow:visible;fill-rule:evenodd;clip-rule:evenodd;fill:#D9D9D9;" xlink:href="#SVGID_1_"/><clipPath id="SVGID_2_"><use style="overflow:visible;" xlink:href="#SVGID_1_"/></clipPath><path class="st0" d="M14,26c0-1.1,0.9-2,2-2h124c1.1,0,2,0.9,2,2v76c0,1.1-0.9,2-2,2H16c-1.1,0-2-0.9-2-2V26z"/></g><g><defs><path d="M19.3,35.7c0-0.6,0.4-1,1-1h115.3c0.6,0,1,0.4,1,1v14c0,0.6-0.4,1-1,1H20.3c-0.6,0-1-0.4-1-1V35.7z" id="SVGID_3_"/></defs><clipPath id="SVGID_4_"><use style="overflow:visible;" xlink:href="#SVGID_3_"/></clipPath><rect class="st1" height="26" width="127.3" x="14.3" y="29.7"/></g><g><defs><rect height="28" id="SVGID_5_" width="93.3" x="32.7" y="61.3"/></defs><use style="overflow:visible;fill-rule:evenodd;clip-rule:evenodd;fill:#FFFFFF;" xlink:href="#SVGID_5_"/><clipPath id="SVGID_6_"><use style="overflow:visible;" xlink:href="#SVGID_5_"/></clipPath><rect class="st2" height="28" width="93.3" x="32.7" y="61.3"/></g><g><defs><path d="M113.5,75.3c1,0,1.7-0.7,1.7-1.9c0-1.2-0.7-1.9-1.7-1.9c-1,0-1.7,0.7-1.7,1.9    C111.8,74.6,112.5,75.3,113.5,75.3z M111.1,82.7l2.8-5.5c-0.3,0.1-0.7,0.2-1,0.2c-1.8,0-3.5-1.5-3.5-3.9c0-2.6,1.8-4.1,4.1-4.1    c2.3,0,4.1,1.5,4.1,4.1c0,1-0.2,1.8-1,3.4l-2.9,5.9H111.1z M102.6,74.8c1,0,1.6-0.7,1.6-1.7c0-1-0.7-1.7-1.6-1.7    c-1,0-1.7,0.7-1.7,1.7C100.9,74.1,101.6,74.8,102.6,74.8z M102.6,80.6c1,0,1.8-0.8,1.8-1.8c0-1-0.8-1.8-1.8-1.8    c-1,0-1.8,0.8-1.8,1.8C100.7,79.8,101.5,80.6,102.6,80.6z M102.6,82.8c-2.4,0-4.3-1.4-4.3-4c0-1.6,0.9-2.5,1.7-3    c-0.7-0.5-1.5-1.3-1.5-2.8c0-2.3,1.9-3.8,4.1-3.8c2.2,0,4.1,1.5,4.1,3.8c0,1.4-0.8,2.3-1.5,2.8c0.7,0.5,1.7,1.4,1.7,3    C106.8,81.4,104.9,82.8,102.6,82.8z M91.7,75.3c1,0,1.7-0.7,1.7-1.9c0-1.2-0.7-1.9-1.7-1.9c-1,0-1.7,0.7-1.7,1.9    C90,74.6,90.6,75.3,91.7,75.3z M89.3,82.7l2.8-5.5c-0.3,0.1-0.7,0.2-1,0.2c-1.8,0-3.5-1.5-3.5-3.9c0-2.6,1.8-4.1,4.1-4.1    c2.3,0,4.1,1.5,4.1,4.1c0,1-0.2,1.8-1,3.4l-2.9,5.9H89.3z M76.8,69.4h-1.7l0.1,2.3l-2-1.3l-0.9,1.5l2.1,1.1l-2.1,1.1l0.9,1.5    l2-1.3l-0.1,2.3h1.7l-0.1-2.3l2,1.3l0.9-1.5L77.5,73l2.1-1.1l-0.9-1.5l-2,1.3L76.8,69.4z M66.6,69.4h-1.7l0.1,2.3l-2-1.3l-0.9,1.5    l2.1,1.1l-2.1,1.1l0.9,1.5l2-1.3l-0.1,2.3h1.7l-0.1-2.3l2,1.3l0.9-1.5L67.3,73l2.1-1.1l-0.9-1.5l-2,1.3L66.6,69.4z M56.4,69.4    h-1.7l0.1,2.3l-2-1.3L52,71.9L54,73L52,74.1l0.9,1.5l2-1.3l-0.1,2.3h1.7l-0.1-2.3l2,1.3l0.9-1.5L57.1,73l2.1-1.1l-0.9-1.5l-2,1.3    L56.4,69.4z M46.2,69.4h-1.7l0.1,2.3l-2-1.3l-0.9,1.5l2.1,1.1l-2.1,1.1l0.9,1.5l2-1.3l-0.1,2.3h1.7l-0.1-2.3l2,1.3l0.9-1.5    L46.9,73l2.1-1.1l-0.9-1.5l-2,1.3L46.2,69.4z" id="SVGID_7_"/></defs><clipPath id="SVGID_8_"><use style="overflow:visible;" xlink:href="#SVGID_7_"/></clipPath><rect class="st3" height="23.5" width="85.9" x="36.8" y="64.3"/></g></svg>