<svg xmlns="http://www.w3.org/2000/svg" viewBox="0 0 265.09 183.64"><defs><style>.cls-1,.cls-2,.cls-5{fill:#fff;}.cls-1,.cls-4{stroke:#727272;}.cls-1,.cls-2,.cls-4,.cls-6{stroke-miterlimit:10;}.cls-2,.cls-6{stroke:#000;}.cls-3{fill:#e2e2e2;}.cls-4,.cls-6,.cls-7{fill:none;}.cls-7{stroke:#20d9e2;stroke-linecap:round;stroke-linejoin:round;stroke-width:5px;}.cls-8{fill:#20d9e2;}.cls-9{font-size:12px;font-family:BMHANNAProOTF-KSCpc-EUC-H, BM HANNA Pro OTF;}</style></defs><g id="레이어_2" data-name="레이어 2"><g id="레이어_1-2" data-name="레이어 1"><path class="cls-1" d="M229.5,45.89v3.25H.5V45.89a7.75,7.75,0,0,1,7.75-7.75h213.5A7.75,7.75,0,0,1,229.5,45.89Z"/><path class="cls-2" d="M.5,72.14h229V175.39a7.75,7.75,0,0,1-7.75,7.75H8.25A7.75,7.75,0,0,1,.5,175.39Z"/><rect x="0.5" y="49.14" width="229" height="23"/><rect class="cls-3" x="0.5" y="81.14" width="175" height="30"/><path class="cls-4" d="M.5,72.14h229V175.39a7.75,7.75,0,0,1-7.75,7.75H8.25A7.75,7.75,0,0,1,.5,175.39Z"/><path class="cls-2" d="M236.47,35.14H155.53a54.5,54.5,0,0,1,80.94,0Z"/><path class="cls-5" d="M250.5,71.64a54.5,54.5,0,0,1-101.26,28H222V61.93H142.36c.23-1.28.51-2.54.83-3.79H248.81A54.16,54.16,0,0,1,250.5,71.64Z"/><path class="cls-3" d="M222,61.93V99.64H149.24a54.14,54.14,0,0,1-7.74-28,55.48,55.48,0,0,1,.86-9.71Z"/><path d="M248.81,58.14H143.19a54.24,54.24,0,0,1,12.34-23h80.94A54.24,54.24,0,0,1,248.81,58.14Z"/><circle class="cls-6" cx="196" cy="71.64" r="54.5"/><line class="cls-1" x1="0.5" y1="47.14" x2="0.5" y2="72.64"/><path d="M49.64,1V2.19c0,2.88-3.13,5.87-4.51,6.64V6.88a8.24,8.24,0,0,0,1.81-1.95h-2.2V3.69H47.6a2.77,2.77,0,0,0,.3-1.21H44.59V1ZM54,3.39V4.94h-1.5v5.18H50.89V.16h1.65V3.39Z"/><path d="M54.77,8.78V7.35h9.09V8.78Zm2.58-4.23h5.44V6h-7V1h7V2.43H57.35Z"/><path d="M76,4.15V0h1.6v6.8H76V5.41H72.56V7H70.92V5.41H68.78V4.15ZM71.11,1.46v.78H74.8V3.38H69.58V.25H74.8V1.46Zm4.13,5.33a22,22,0,0,0,2.27,3.32H75.72c-.54-.71-.83-1.13-1.24-1.75-.4.56-.71,1.11-1.2,1.75H71.39a21,21,0,0,0,1.8-2.36q.33-.52.57-1Z"/><path d="M83.65,5.67h-4.5v-5h4.5Zm-3.31,1h1.39v2h5.82v1.46H80.34ZM80.43,2v2.3h1.94V2ZM87.5,6.45H86.05V4.69h-1.3V3.47h1.3v-1H84.76V1.25h1.29V0H87.5Z"/><path d="M97.47,10.12h-1.8V7.05a7.65,7.65,0,0,1-4.3,1.59,14.45,14.45,0,0,1-2.55,0V7c2.64.53,6.13-.75,6.83-1V0h1.82Zm-5-9.83a1.57,1.57,0,0,1,1.63,1.64V3.56a1.57,1.57,0,0,1-1.76,1.63H90.91a1.58,1.58,0,0,1-1.67-1.51V1.93A1.63,1.63,0,0,1,90.91.29Zm.18,2A.68.68,0,0,0,92,1.56h-.52a.73.73,0,0,0-.76.68v1a.73.73,0,0,0,.76.69H92a.68.68,0,0,0,.69-.69Z"/><path d="M111.74,5.49h-3.85V6.57h-1.51V5.49h-3.63V4.15h9ZM108.16.36c0,.84,1.3,1.91,3,2.16v1.2c-1.08-.19-3.22-.72-3.86-2-.58,1.39-3.2,1.93-4,2V2.43c1.76-.13,3.15-1.21,3.15-2.08V0h1.66ZM108,7a27.82,27.82,0,0,0,2.31,3.12H108.5L107.64,9l-.42-.55-1.37,1.66H104c.74-.86,1.35-1.64,1.78-2.2l.68-.92Z"/><path d="M116.32,2.3c0,.72-.08,3.48,1.9,4.15V7.84a4.4,4.4,0,0,1-1.13-.43,3.16,3.16,0,0,1-1.56-1.76A3,3,0,0,1,114,7.46a4,4,0,0,1-1.13.38V6.45c2-.67,1.9-3.43,1.85-4.15h-1.86V1h5.42V2.3Zm6,1.09V4.94h-1.5v5.18h-1.67V.16h1.67V3.39Z"/><path d="M130.58,5.82H127V4.61h8.74V5.82h-3.63v.82h1.22c1,0,1.65.57,1.65,1.32V9a1.23,1.23,0,0,1-1.3,1.18H129a1.28,1.28,0,0,1-1.31-1.23v-1c0-.9,1-1.23,1.77-1.23h1.1ZM135,0V1.31h-2.57A4.45,4.45,0,0,0,135,3V4.13a6.45,6.45,0,0,1-3.53-1.91,8.13,8.13,0,0,1-3.61,2V3a4.54,4.54,0,0,0,2.51-1.64h-2.43V0Zm-5.16,7.85c-.46,0-.63.15-.63.33v.41c0,.34.31.39.63.39h3.22c.29,0,.51-.09.51-.34V8.29c0-.25-.22-.42-.52-.42Z"/><path d="M145.94,1V7.16h-5V1Zm-1.38,1.51h-2.25V5.77h2.25Zm5.81.87V4.94h-1.52v5.18h-1.66V.16h1.66V3.39Z"/><path d="M154.65,2.3c-.05.72-.08,3.48,1.9,4.15V7.84a4.4,4.4,0,0,1-1.13-.43,3.16,3.16,0,0,1-1.56-1.76,3,3,0,0,1-1.57,1.81,4,4,0,0,1-1.13.38V6.45c2-.67,1.9-3.43,1.85-4.15h-1.86V1h5.42V2.3Zm2.86,7.81V0h1.6V10.11Z"/><path d="M165.76.6V5.54h-5.08V.6Zm2.91,6V7.93a6.49,6.49,0,0,1-.27,1.53,5.49,5.49,0,0,1-.23.65H166.7a4.29,4.29,0,0,0,.45-1.49,3.24,3.24,0,0,0,0-.69h-5.74V6.56ZM164.35,2h-2.26V4.13h2.26ZM170,3.48h-1.35v2.1h-1.54V0h1.54V2.06H170Z"/><path d="M181.87,4.15V0h1.59v6.8h-1.59V5.41h-3.43V7h-1.65V5.41h-2.13V4.15ZM177,1.46v.78h3.7V3.38h-5.23V.25h5.23V1.46Zm4.13,5.33a22,22,0,0,0,2.28,3.32h-1.8c-.54-.71-.83-1.13-1.24-1.75-.39.56-.7,1.11-1.19,1.75h-1.9a19.83,19.83,0,0,0,1.8-2.36,10.85,10.85,0,0,0,.57-1Z"/><path d="M191.91,3.37a2.9,2.9,0,0,1,2.7,3c0,1.84-1.27,3.17-3.55,3.13a4.35,4.35,0,0,1-2.53-1.1V6.5a3.61,3.61,0,0,0,2.53,1.39,1.43,1.43,0,0,0,1.64-1.55c0-1.64-1.92-2-3.13-2.35h0l1.7-2.3h-2.41V.62H194Z"/><path d="M199.06,2.3C199,3,199,5.78,201,6.45V7.84a4.4,4.4,0,0,1-1.13-.43,3.16,3.16,0,0,1-1.56-1.76,3,3,0,0,1-1.57,1.81,4,4,0,0,1-1.13.38V6.45c2-.67,1.9-3.43,1.85-4.15h-1.86V1H201V2.3Zm6,1.09V4.94h-1.5v5.18h-1.66V.16h1.66V3.39Z"/><path d="M211.39,4.73h-3.66V6.4h3.66V7.68h-5.2V3.31H210V2.06h-3.93V.65h5.34Zm1.39,5.4V0h1.57V10.13Z"/><path d="M224.93,5.64h-5.06V.58h1.56V2.12h2V.58h1.54Zm-3.57,1.14h1.58V8.71h5.6v1.4h-7.18Zm2-3.4h-2v1h2Zm5.12,3.17H227V3.83h-1.63V2.42H227V0h1.54Z"/><path d="M239.14,7.62V9h-9.31V7.62h3.85v-1h-.8A1.68,1.68,0,0,1,231,5.15v-1a1.66,1.66,0,0,1,1.8-1.49h3.24c1.05,0,1.8.52,1.8,1.48v1c0,.86-.87,1.45-1.92,1.45h-.71v1ZM238.41,1V2.28H230.5V1h2.86v-1h2V1Zm-2.62,4.43a.77.77,0,0,0,0-1.54h-2.72a.76.76,0,0,0-.74.78.74.74,0,0,0,.74.76Z"/><path class="cls-7" d="M248.5,11.14c2.21,2.63,15.29,17.07,14,33-1.05,12.91-17,26.31-31.42,34.18"/><polygon class="cls-8" points="229.76 71.03 222 82.64 235.93 83.56 229.76 71.03"/><text class="cls-9" transform="translate(192.02 77.19)">123</text><text class="cls-9" transform="translate(164.02 77.19)">***</text></g></g></svg>
