<svg width="current" height="current" viewBox="0 0 100 100" fill="none" xmlns="http://www.w3.org/2000/svg">
<g clip-path="url(#clip0_151_649)">
<path d="M99.9349 47.7787C99.97 48.5109 99.9911 49.238 99.9961 49.9622V50.0023C99.9961 73.1345 84.292 92.5988 62.959 98.3087C59.4582 99.2392 55.8675 99.7904 52.2489 99.9525C51.1653 100.001 50.0805 100.016 48.9961 99.9967C23.6932 99.5012 2.9981 80.2073 0.294991 55.5025C0.180086 54.4323 0.100805 53.3585 0.0572781 52.283C0.0219511 51.5584 0.00155145 50.8331 -0.00390625 50.1076V50.0023C-0.00390625 22.3939 22.3792 0.00488281 49.9951 0.00488281C73.5468 0.00488281 93.29 16.2859 98.5959 38.1995C99.3504 41.3419 99.7988 44.5499 99.9349 47.7787ZM76.3853 24.9113C73.4605 24.1019 71.297 23.4079 70.6591 22.0639C70.3572 21.428 70.5417 20.7882 70.958 20.4883C71.4093 20.1593 72.0172 20.2686 72.7263 20.6146C73.7734 21.1221 75.0553 21.8744 76.0392 21.9957C78.9068 22.3417 78.3823 17.9568 73.2308 15.4113C70.2007 13.9059 67.2358 13.289 63.2188 13.4385C61.7313 13.4997 60.3281 13.4455 59.0844 13.2489C57.2067 12.9591 54.9058 12.1627 53.3552 11.8398C52.1696 11.59 51.4936 11.6221 51.2107 12.0173C50.949 12.3914 51.0332 12.943 51.7554 13.8567C53.2057 15.6851 55.4906 17.7181 54.3211 22.4751C51.4284 34.2679 55.3893 39.6658 59.4254 40.5514C61.6872 41.0539 63.7704 40.5233 65.0422 39.2024C66.2509 37.9377 66.7724 35.7994 65.6079 33.9881C63.8266 31.2129 63.1977 28.8008 64.7895 27.7978C66.2438 26.8791 68.311 27.7256 69.8828 31.241C72.3963 36.8746 75.6681 38.368 78.9389 34.3612C81.619 31.0795 81.5137 26.3275 76.3853 24.9113ZM67.282 55.691C53.7223 47.5661 46.9971 44.3526 41.5086 40.4341C32.4154 33.95 30.977 29.1187 30.6992 25.7568C30.2027 19.7401 34.7554 14.3241 39.3903 11.7716C39.7484 11.5549 40.3612 11.0545 40.0944 10.3694C39.8256 9.6774 38.9951 9.81079 38.6842 9.87899C28.3181 12.0785 18.2448 21.2064 19.8085 33.3913C20.4334 38.2185 23.5036 46.3696 39.4023 55.7312C44.8246 58.9216 49.5066 61.3417 56.8557 65.5491C66.8075 71.2379 71.3883 78.5685 65.2248 86.5651C64.7574 87.1237 64.3552 87.7034 64.5227 88.2089C64.7123 88.7926 65.4816 88.8939 66.1997 88.571C70.9299 86.3925 74.8376 83.1219 76.6992 80.09C79.975 74.7512 81.6069 64.2814 67.282 55.691ZM51.4214 88.1357C50.2198 87.7907 48.3953 87.225 46.8757 86.561C44.958 85.7236 43.2258 84.8049 42.4605 84.0476C41.96 83.5452 41.8828 82.9775 42.283 82.3928C44.5748 79.0991 45.2198 77.7952 45.8607 76.2456C47.2218 72.963 45.8767 72.645 43.7654 73.2528C41.4695 73.9098 39.6521 74.5807 38.2448 75.1093C36.2709 75.8455 35.0503 76.2968 34.3321 75.9458C33.5839 75.5837 33.4465 74.2839 33.1776 72.1285C32.9618 70.4502 32.6534 68.7851 32.2539 67.1408C31.4053 63.7207 29.9409 64.3777 28.7323 65.7758C27.2268 67.6032 26.3963 69.8658 25.7714 71.0533C25.4374 71.6892 25.0543 71.8998 24.5859 71.7995C23.5437 71.5769 22.1656 69.9621 20.6621 68.0425C18.4665 65.2352 17.4866 63.0778 16.3431 62.9444C13.9138 62.6616 14.9941 68.4075 17.2739 73.1435C19.4976 77.7782 22.9469 82.3416 28.7253 85.9924C35.3171 90.1647 45.0583 91.6801 51.0422 90.8387C52.9319 90.5719 53.306 88.6783 51.4214 88.1357Z" fill="#0046FF"/>
</g>
<defs>
<clipPath id="clip0_151_649">
<rect width="100" height="100" fill="white"/>
</clipPath>
</defs>
</svg>
