<svg width="160" height="160" viewBox="0 0 160 160" fill="none" xmlns="http://www.w3.org/2000/svg">
<circle cx="80" cy="80" r="80" fill="#5881EC"/>
<g clip-path="url(#clip0_318_7)">
<path d="M129.935 77.7787C129.97 78.5109 129.991 79.238 129.996 79.9622V80.0023C129.996 103.134 114.292 122.599 92.9589 128.309C89.4581 129.239 85.8674 129.79 82.2487 129.953C81.1652 130.001 80.0804 130.016 78.996 129.997C53.6931 129.501 32.998 110.207 30.2949 85.5025C30.18 84.4323 30.1007 83.3585 30.0572 82.283C30.0218 81.5584 30.0014 80.8331 29.996 80.1076V80.0023C29.996 52.3939 52.3791 30.0049 79.995 30.0049C103.547 30.0049 123.29 46.2859 128.596 68.1995C129.35 71.3419 129.799 74.5499 129.935 77.7787ZM106.385 54.9113C103.46 54.1019 101.297 53.4079 100.659 52.0639C100.357 51.428 100.542 50.7882 100.958 50.4883C101.409 50.1593 102.017 50.2686 102.726 50.6146C103.773 51.1221 105.055 51.8744 106.039 51.9957C108.907 52.3417 108.382 47.9568 103.231 45.4113C100.201 43.9059 97.2357 43.289 93.2186 43.4385C91.7312 43.4997 90.328 43.4455 89.0842 43.2489C87.2066 42.9591 84.9057 42.1627 83.3551 41.8398C82.1695 41.59 81.4935 41.6221 81.2106 42.0173C80.9488 42.3914 81.0331 42.943 81.7553 43.8567C83.2056 45.6851 85.4905 47.7181 84.3209 52.4751C81.4283 64.2679 85.3892 69.6658 89.4253 70.5514C91.687 71.0539 93.7703 70.5233 95.0421 69.2024C96.2507 67.9377 96.7723 65.7994 95.6078 63.9881C93.8265 61.2129 93.1976 58.8008 94.7894 57.7978C96.2437 56.8791 98.3109 57.7256 99.8826 61.241C102.396 66.8746 105.668 68.368 108.939 64.3612C111.619 61.0795 111.514 56.3275 106.385 54.9113ZM97.2818 85.691C83.7222 77.5661 76.997 74.3526 71.5085 70.4341C62.4152 63.95 60.9769 59.1187 60.6991 55.7568C60.2026 49.7401 64.7553 44.3241 69.3902 41.7716C69.7482 41.5549 70.3611 41.0545 70.0943 40.3694C69.8255 39.6774 68.995 39.8108 68.684 39.879C58.3179 42.0785 48.2447 51.2064 49.8084 63.3913C50.4333 68.2185 53.5035 76.3696 69.4022 85.7312C74.8245 88.9216 79.5065 91.3417 86.8556 95.5491C96.8074 101.238 101.388 108.568 95.2247 116.565C94.7573 117.124 94.3551 117.703 94.5226 118.209C94.7121 118.793 95.4814 118.894 96.1996 118.571C100.93 116.393 104.838 113.122 106.699 110.09C109.975 104.751 111.607 94.2814 97.2818 85.691ZM81.4212 118.136C80.2196 117.791 78.3952 117.225 76.8756 116.561C74.9579 115.724 73.2257 114.805 72.4604 114.048C71.9599 113.545 71.8826 112.977 72.2828 112.393C74.5747 109.099 75.2196 107.795 75.8606 106.246C77.2217 102.963 75.8766 102.645 73.7653 103.253C71.4694 103.91 69.6519 104.581 68.2447 105.109C66.2708 105.845 65.0501 106.297 64.332 105.946C63.5837 105.584 63.4463 104.284 63.1775 102.129C62.9616 100.45 62.6532 98.7851 62.2537 97.1408C61.4052 93.7207 59.9408 94.3777 58.7322 95.7758C57.2267 97.6032 56.3962 99.8658 55.7713 101.053C55.4373 101.689 55.0541 101.9 54.5857 101.8C53.5436 101.577 52.1655 99.9621 50.662 98.0425C48.4664 95.2352 47.4864 93.0778 46.343 92.9444C43.9137 92.6616 44.994 98.4075 47.2738 103.144C49.4975 107.778 52.9468 112.342 58.7252 115.992C65.3169 120.165 75.0582 121.68 81.0421 120.839C82.9318 120.572 83.3059 118.678 81.4212 118.136Z" fill="white"/>
</g>
<defs>
<clipPath id="clip0_318_7">
<rect x="30" y="30" width="100" height="100" rx="50" fill="white"/>
</clipPath>
</defs>
</svg>
