<svg width="24" height="16" viewBox="0 0 59 19" fill="none" xmlns="http://www.w3.org/2000/svg">
<path fill-rule="evenodd" clip-rule="evenodd" d="M15.1973 18.5556H10.169L6.39845 4.1707C6.21949 3.509 5.83949 2.92401 5.28052 2.6483C3.88556 1.95543 2.34841 1.404 0.671509 1.1259V0.572076H8.77161C9.88954 0.572076 10.728 1.404 10.8677 2.37019L12.8241 12.7465L17.8499 0.572076H22.7384L15.1973 18.5556ZM25.5332 18.5556H20.7844L24.6947 0.572076H29.4435L25.5332 18.5556ZM35.5873 5.55406C35.727 4.58548 36.5655 4.03166 37.5436 4.03166C39.0808 3.8926 40.7552 4.17071 42.1527 4.86119L42.9911 0.989246C41.5937 0.435427 40.0565 0.157318 38.6616 0.157318C34.0526 0.157318 30.6988 2.64831 30.6988 6.10548C30.6988 8.73553 33.0744 10.1165 34.7513 10.9484C36.5655 11.7779 37.2642 12.3318 37.1244 13.1613C37.1244 14.4056 35.727 14.9594 34.332 14.9594C32.6551 14.9594 30.9782 14.5446 29.4435 13.8518L28.6051 17.7261C30.282 18.4166 32.0962 18.6947 33.7731 18.6947C38.9411 18.8313 42.1527 16.3427 42.1527 12.6075C42.1527 7.9036 35.5873 7.62789 35.5873 5.55406V5.55406ZM58.772 18.5556L55.0014 0.572076H50.9514C50.1129 0.572076 49.2745 1.1259 48.995 1.95543L42.0128 18.5556H46.9013L47.8771 15.928H53.8835L54.4425 18.5556H58.772ZM51.6502 5.41503L53.0452 12.1927H49.1348L51.6502 5.41503Z" fill="#172B85"/>
</svg>
