<svg width="83" height="57" viewBox="0 0 83 57" fill="none" xmlns="http://www.w3.org/2000/svg">
<rect x="0.592863" y="0.592863" width="81.815" height="55.7291" rx="6.52149" fill="white" stroke="#D9D9D9" stroke-width="1.18573"/>
<path fill-rule="evenodd" clip-rule="evenodd" d="M25.1973 38.5556H20.169L16.3985 24.1707C16.2195 23.509 15.8395 22.924 15.2805 22.6483C13.8856 21.9554 12.3484 21.404 10.6715 21.1259V20.5721H18.7716C19.8895 20.5721 20.728 21.404 20.8677 22.3702L22.8241 32.7465L27.8499 20.5721H32.7384L25.1973 38.5556ZM35.5332 38.5556H30.7844L34.6947 20.5721H39.4435L35.5332 38.5556ZM45.5873 25.5541C45.727 24.5855 46.5655 24.0317 47.5436 24.0317C49.0808 23.8926 50.7552 24.1707 52.1527 24.8612L52.9911 20.9892C51.5937 20.4354 50.0565 20.1573 48.6616 20.1573C44.0526 20.1573 40.6988 22.6483 40.6988 26.1055C40.6988 28.7355 43.0744 30.1165 44.7513 30.9484C46.5655 31.7779 47.2642 32.3318 47.1244 33.1613C47.1244 34.4056 45.727 34.9594 44.332 34.9594C42.6551 34.9594 40.9782 34.5446 39.4435 33.8518L38.6051 37.7261C40.282 38.4166 42.0962 38.6947 43.7731 38.6947C48.9411 38.8313 52.1527 36.3427 52.1527 32.6075C52.1527 27.9036 45.5873 27.6279 45.5873 25.5541V25.5541ZM68.772 38.5556L65.0014 20.5721H60.9514C60.1129 20.5721 59.2745 21.1259 58.995 21.9554L52.0128 38.5556H56.9013L57.8771 35.928H63.8835L64.4425 38.5556H68.772ZM61.6502 25.415L63.0452 32.1927H59.1348L61.6502 25.415Z" fill="#172B85"/>
</svg>
