<svg width="101" height="101" viewBox="0 0 101 101" fill="none" xmlns="http://www.w3.org/2000/svg">
<path d="M100.482 50.1282C100.482 77.7446 78.0824 100.128 50.5113 100.128C22.8729 100.128 0.483398 77.7446 0.483398 50.1282C0.483398 22.5402 22.8729 0.12793 50.5113 0.12793C78.0824 0.12793 100.482 22.5402 100.482 50.1282Z" fill="white"/>
<path d="M50.5409 97.77C76.8151 97.77 98.1381 76.4532 98.1381 50.1383C98.1381 23.8322 76.8151 2.50592 50.5309 2.50592C24.2135 2.50592 2.90479 23.8322 2.90479 50.1383C2.90479 76.4632 24.2135 97.77 50.5409 97.77Z" fill="#0083CA"/>
<mask id="mask0_151_1003" style="mask-type:luminance" maskUnits="userSpaceOnUse" x="2" y="2" width="97" height="96">
<path d="M2.9043 50.1578C2.9043 76.4632 24.2124 97.77 50.5404 97.77C76.8146 97.77 98.1375 76.4532 98.1375 50.1578C98.1375 23.8511 76.8146 2.54429 50.5304 2.54429C24.2125 2.54429 2.9043 23.8511 2.9043 50.1578Z" fill="white"/>
</mask>
<g mask="url(#mask0_151_1003)">
<path d="M50.9569 73.1167C71.9131 73.1167 89.832 78.9674 97.5466 87.2446C100.09 81.3537 101.51 74.8008 101.51 67.981C101.51 40.6386 78.8652 18.5204 50.9569 18.5204C23.0888 18.5204 0.428223 40.6486 0.428223 68.0005C0.428223 74.8197 1.85798 81.3448 4.40154 87.2446C12.096 78.9674 30.0397 73.1167 50.9569 73.1167Z" fill="#0083CA"/>
<path d="M50.9506 73.17C71.8537 73.17 89.7265 78.9724 97.4204 87.1829C99.9581 81.3404 101.374 74.8394 101.374 68.0739C101.374 40.9518 78.7881 18.9429 50.9506 18.9429C23.154 18.9429 0.55127 40.9618 0.55127 68.0928C0.55127 74.8577 1.9769 81.3315 4.51514 87.1829C12.1895 78.9724 30.0878 73.17 50.9506 73.17Z" fill="#0085CC"/>
<path d="M50.944 73.2232C71.7927 73.2232 89.6206 78.9778 97.2932 87.1221C99.8262 81.3274 101.238 74.8796 101.238 68.1673C101.238 41.266 78.7105 19.3651 50.944 19.3651C23.2187 19.3651 0.67334 41.2748 0.67334 68.1856C0.67334 74.8967 2.09542 81.3191 4.62835 87.1221C12.2827 78.9778 30.1354 73.2232 50.944 73.2232Z" fill="#0087CD"/>
<path d="M50.9378 73.2769C71.7322 73.2769 89.5152 78.9836 97.1666 87.0618C99.6954 81.3137 101.103 74.9185 101.103 68.2611C101.103 41.5795 78.6329 19.7879 50.9378 19.7879C23.284 19.7879 0.795898 41.5883 0.795898 68.2776C0.795898 74.9362 2.21443 81.3072 4.74205 87.0618C12.3763 78.9836 30.183 73.2769 50.9378 73.2769Z" fill="#0088CE"/>
<path d="M50.931 73.3299C71.6716 73.3299 89.4098 78.9888 97.0405 87.0002C99.564 81.3006 100.968 74.958 100.968 68.3543C100.968 41.8935 78.5553 20.2106 50.931 20.2106C23.3499 20.2106 0.918457 41.9018 0.918457 68.3708C0.918457 74.9745 2.33345 81.2941 4.85516 87.0002C12.4705 78.9888 30.2311 73.3299 50.931 73.3299Z" fill="#008ACF"/>
<path d="M50.9243 73.3837C71.6106 73.3837 89.3039 78.9941 96.9134 86.9395C99.4321 81.2877 100.833 74.9976 100.833 68.4482C100.833 42.2071 78.4777 20.6328 50.9243 20.6328C23.4147 20.6328 1.04053 42.2154 1.04053 68.463C1.04053 75.0135 2.45198 81.2818 4.96896 86.9395C12.5636 78.9941 30.2782 73.3837 50.9243 73.3837Z" fill="#008CD0"/>
<path d="M50.9181 73.4368C71.5513 73.4368 89.1985 78.9994 96.7873 86.8792C99.3013 81.274 100.697 75.0371 100.697 68.5414C100.697 42.5212 78.4007 21.0555 50.9181 21.0555C23.4799 21.0555 1.16309 42.5289 1.16309 68.555C1.16309 75.0524 2.57099 81.2693 5.08266 86.8792C12.6572 78.9994 30.3263 73.4368 50.9181 73.4368Z" fill="#008ED2"/>
<path d="M50.9113 73.4902C71.4907 73.4902 89.0931 79.0049 96.6606 86.8174C99.1699 81.2607 100.562 75.0769 100.562 68.6344C100.562 42.8344 78.3235 21.478 50.9113 21.478C23.5457 21.478 1.28613 42.8421 1.28613 68.648C1.28613 75.091 2.6899 81.256 5.19567 86.8174C12.7508 79.0049 30.3744 73.4902 50.9113 73.4902Z" fill="#0090D3"/>
<path d="M50.9047 73.5436C71.4298 73.5436 88.9873 79.0105 96.5341 86.7568C99.0381 81.2486 100.426 75.1161 100.426 68.7286C100.426 43.1482 78.2461 21.9011 50.9047 21.9011C23.6106 21.9011 1.40771 43.1553 1.40771 68.7404C1.40771 75.1303 2.80854 81.2438 5.30899 86.7568C12.8446 79.0105 30.4216 73.5436 50.9047 73.5436Z" fill="#0091D4"/>
<path d="M50.8985 73.597C71.3693 73.597 88.8819 79.0155 96.4074 86.6963C98.9067 81.2352 100.292 75.1554 100.292 68.8215C100.292 43.4621 78.169 22.323 50.8985 22.323C23.6759 22.323 1.53027 43.4686 1.53027 68.8328C1.53027 75.1689 2.92755 81.2311 5.42269 86.6963C12.9382 79.0155 30.4697 73.597 50.8985 73.597Z" fill="#0093D5"/>
<path d="M50.8922 73.65C71.3086 73.65 88.7764 79.0213 96.2807 86.6348C98.7752 81.2216 100.157 75.1948 100.157 68.9147C100.157 43.7755 78.0919 22.7457 50.8922 22.7457C23.7416 22.7457 1.65332 43.782 1.65332 68.9254C1.65332 75.2078 3.04587 81.218 5.53628 86.6348C13.0317 79.0213 30.5178 73.65 50.8922 73.65Z" fill="#0095D7"/>
<path d="M50.8855 73.7038C71.2481 73.7038 88.671 79.0267 96.154 86.574C98.6438 81.2086 100.022 75.2344 100.022 69.0086C100.022 44.0897 78.0148 23.1685 50.8855 23.1685C23.8069 23.1685 1.77588 44.0956 1.77588 69.0175C1.77588 75.2462 3.16489 81.2062 5.64939 86.574C13.1253 79.0267 30.5659 73.7038 50.8855 73.7038Z" fill="#0097D8"/>
<path d="M50.8793 73.7566C71.1888 73.7566 88.5656 79.0317 96.0279 86.5134C98.5124 81.1953 99.8861 75.2737 99.8861 69.1016C99.8861 44.4029 77.9372 23.5904 50.8793 23.5904C23.8728 23.5904 1.89844 44.4088 1.89844 69.1105C1.89844 75.2855 3.28391 81.1935 5.7631 86.5134C13.219 79.0317 30.6141 73.7566 50.8793 73.7566Z" fill="#0099D9"/>
<path d="M50.8726 73.8105C71.1278 73.8105 88.4597 79.0371 95.9014 86.4521C98.3806 81.1818 99.7507 75.3133 99.7507 69.1957C99.7507 44.7166 77.8596 24.0133 50.8726 24.0133C23.9375 24.0133 2.02051 44.722 2.02051 69.2027C2.02051 75.324 3.40243 81.1807 5.87689 86.4521C13.3121 79.0371 30.6611 73.8105 50.8726 73.8105Z" fill="#009BDA"/>
<path d="M50.8664 73.8634C71.0673 73.8634 88.3549 79.0428 95.7747 86.3911C98.2492 81.1686 99.6157 75.3521 99.6157 69.2888C99.6157 45.0306 77.7826 24.4359 50.8664 24.4359C24.0034 24.4359 2.14307 45.0359 2.14307 69.2952C2.14307 75.3627 3.52144 81.168 5.99 86.3911C13.4057 79.0428 30.7087 73.8634 50.8664 73.8634Z" fill="#009DDC"/>
<path d="M50.8596 73.9172C71.0068 73.9172 88.2495 79.0476 95.6487 86.3303C98.1178 81.1557 99.4802 75.3923 99.4802 69.3821C99.4802 45.3442 77.7055 24.8582 50.8596 24.8582C24.0687 24.8582 2.26562 45.3489 2.26562 69.388C2.26562 75.4023 3.64046 81.1557 6.1037 86.3303C13.4993 79.0476 30.7568 73.9172 50.8596 73.9172Z" fill="#009FDD"/>
<path d="M50.8529 73.9701C70.9456 73.9701 88.1435 79.0527 95.5214 86.2693C97.987 81.1425 99.3447 75.4316 99.3447 69.4758C99.3447 45.6575 77.6279 25.2808 50.8529 25.2808C24.1334 25.2808 2.38818 45.6622 2.38818 69.4799C2.38818 75.4405 3.75888 81.1425 6.21681 86.2693C13.593 79.0527 30.8044 73.9701 50.8529 73.9701Z" fill="#00A1DE"/>
<path d="M50.8468 74.0237C70.8864 74.0237 88.0382 79.0578 95.3954 86.2083C97.8557 81.1287 99.2099 75.4704 99.2099 69.5688C99.2099 45.9709 77.5509 25.7034 50.8468 25.7034C24.1993 25.7034 2.51025 45.9756 2.51025 69.5724C2.51025 75.4793 3.878 81.1299 6.33062 86.2083C13.6867 79.0578 30.8526 74.0237 50.8468 74.0237Z" fill="#00A3E0"/>
<path d="M50.8401 74.0766C70.8254 74.0766 87.9323 79.0635 95.2677 86.1472C97.7239 81.1155 99.0745 75.5104 99.0745 69.6625C99.0745 46.2848 77.4728 26.126 50.8401 26.126C24.2641 26.126 2.63232 46.2889 2.63232 69.6649C2.63232 75.518 3.99653 81.1172 6.44323 86.1472C13.7798 79.0635 30.8997 74.0766 50.8401 74.0766Z" fill="#00A5E1"/>
<path d="M50.8332 74.1306C70.7648 74.1306 87.8262 79.069 95.1415 86.0867C97.5924 81.1028 98.9389 75.5496 98.9389 69.7567C98.9389 46.5986 77.3957 26.5485 50.8332 26.5485C24.3293 26.5485 2.75537 46.6028 2.75537 69.7579C2.75537 75.5573 4.11544 81.1057 6.55684 86.0867C13.8733 79.069 30.9477 74.1306 50.8332 74.1306Z" fill="#00A7E2"/>
<path d="M50.827 74.1835C70.7043 74.1835 87.7208 79.0741 95.0149 86.0256C97.461 81.089 98.8039 75.5895 98.8039 69.8498C98.8039 46.912 77.318 26.971 50.827 26.971C24.3946 26.971 2.87793 46.9155 2.87793 69.8504C2.87793 75.596 4.23387 81.0925 6.67054 86.0256C13.9676 79.0741 30.9959 74.1835 50.827 74.1835Z" fill="#00A9E3"/>
<path d="M50.8205 74.2371C70.6434 74.2371 87.615 79.0792 94.8884 85.9646C97.3292 81.0758 98.6686 75.6283 98.6686 69.9435C98.6686 47.2259 77.2406 27.3936 50.8205 27.3936C24.46 27.3936 2.99951 47.2295 2.99951 69.9429C2.99951 75.6348 4.35249 81.0799 6.78385 85.9646C14.0608 79.0792 31.0437 74.2371 50.8205 74.2371Z" fill="#00ABE5"/>
<path d="M50.8142 74.29C70.5839 74.29 87.5095 79.0849 94.7616 85.9036C97.1977 81.0626 98.5336 75.6677 98.5336 70.0365C98.5336 47.5393 77.1634 27.8156 50.8142 27.8156C24.5252 27.8156 3.12256 47.5422 3.12256 70.0348C3.12256 75.6736 4.47141 81.0673 6.89745 85.9036C14.1543 79.0849 31.0911 74.29 50.8142 74.29Z" fill="#00ADE6"/>
<path d="M50.8074 74.3438C70.5234 74.3438 87.4041 79.0903 94.6356 85.8428C97.0663 81.049 98.3981 75.7078 98.3981 70.1299C98.3981 47.8535 77.0864 28.2385 50.8074 28.2385C24.5905 28.2385 3.24512 47.8564 3.24512 70.1275C3.24512 75.712 4.59042 81.0543 7.01115 85.8428C14.2479 79.0903 31.1387 74.3438 50.8074 74.3438Z" fill="#00AFE7"/>
<path d="M50.8012 74.3969C70.4629 74.3969 87.2987 79.0956 94.5095 85.782C96.935 81.0366 98.2631 75.7468 98.2631 70.2238C98.2631 48.1671 77.0093 28.6613 50.8012 28.6613C24.6563 28.6613 3.36768 48.1694 3.36768 70.2203C3.36768 75.7516 4.70944 81.042 7.12485 85.782C14.3421 79.0956 31.1868 74.3969 50.8012 74.3969Z" fill="#00B2E9"/>
<path d="M50.7946 74.4505C70.4019 74.4505 87.1928 79.1007 94.3823 85.7209C96.8031 81.0234 98.1271 75.7868 98.1271 70.3169C98.1271 48.4804 76.9318 29.0833 50.7946 29.0833C24.7217 29.0833 3.48975 48.4822 3.48975 70.3122C3.48975 75.7903 4.82797 81.0293 7.23747 85.7209C14.4353 79.1007 31.2345 74.4505 50.7946 74.4505Z" fill="#00B4EA"/>
<path d="M50.7884 74.5036C70.3414 74.5036 87.0874 79.1067 94.2563 85.6602C96.6723 81.0105 97.9922 75.8258 97.9922 70.4102C97.9922 48.7946 76.8547 29.5062 50.7884 29.5062C24.787 29.5062 3.6123 48.7964 3.6123 70.4055C3.6123 75.8287 4.94698 81.0164 7.35117 85.6602C14.5289 79.1067 31.2826 74.5036 50.7884 74.5036Z" fill="#00B6EC"/>
<path d="M50.7815 74.5572C70.2819 74.5572 86.9819 79.1118 94.1289 85.5991C96.5408 80.9967 97.8572 75.8651 97.8572 70.5039C97.8572 49.1079 76.7776 29.9287 50.7815 29.9287C24.8522 29.9287 3.73535 49.1091 3.73535 70.4974C3.73535 75.8681 5.0659 81.0038 7.46477 85.5991C14.6218 79.1118 31.3301 74.5572 50.7815 74.5572Z" fill="#00B9ED"/>
<path d="M50.7748 74.6101C70.2209 74.6101 86.876 79.1169 94.0024 85.5381C96.4089 80.9835 97.7212 75.9045 97.7212 70.597C97.7212 49.4219 76.6994 30.3513 50.7748 30.3513C24.9175 30.3513 3.85742 49.4231 3.85742 70.5899C3.85742 75.9063 5.18442 80.9917 7.57739 85.5381C14.7155 79.1169 31.3777 74.6101 50.7748 74.6101Z" fill="#07BBEE"/>
<path d="M50.7687 74.6636C70.1605 74.6636 86.7707 79.122 93.8758 85.4771C96.2782 80.9703 97.5863 75.9438 97.5863 70.6901C97.5863 49.7352 76.6225 30.7733 50.7687 30.7733C24.9829 30.7733 3.97949 49.7358 3.97949 70.6824C3.97949 75.945 5.30354 80.9785 7.69178 85.4771C14.8093 79.122 31.426 74.6636 50.7687 74.6636Z" fill="#0FBDEF"/>
<path d="M50.7625 74.717C70.0999 74.717 86.6652 79.1282 93.7497 85.4165C96.1468 80.957 97.4513 75.9837 97.4513 70.7842C97.4513 50.0497 76.5453 31.1964 50.7625 31.1964C25.0481 31.1964 4.10254 50.0496 4.10254 70.7748C4.10254 75.9843 5.42245 80.9664 7.80538 85.4165C14.9028 79.1282 31.474 74.717 50.7625 74.717Z" fill="#19C0F1"/>
<path d="M50.7557 74.7706C70.0394 74.7706 86.5598 79.1333 93.623 85.3555C96.0154 80.9438 97.3164 76.023 97.3164 70.8773C97.3164 50.363 76.4677 31.619 50.7557 31.619C25.114 31.619 4.2251 50.363 4.2251 70.8679C4.2251 76.023 5.54087 80.9538 7.91908 85.3555C14.9964 79.1333 31.5216 74.7706 50.7557 74.7706Z" fill="#1FC4F4"/>
<path d="M50.7556 74.8916C70.0133 74.8916 86.5119 79.2265 93.5644 85.408C95.9527 81.0246 97.2525 76.1364 97.2525 71.0243C97.2525 50.6428 76.4327 32.0069 50.7556 32.0069C25.1475 32.0069 4.2876 50.6428 4.2876 71.0149C4.2876 76.1364 5.60278 81.0335 7.97626 85.408C15.0435 79.2265 31.5475 74.8921 50.7556 74.8916Z" fill="#33C6F4"/>
<path d="M50.7553 75.0128C69.987 75.0128 86.4638 79.32 93.5062 85.4601C95.8898 81.1045 97.189 76.2505 97.189 71.1715C97.189 50.9217 76.397 32.3951 50.7553 32.3951C25.1809 32.3951 4.35107 50.9217 4.35107 71.1621C4.35107 76.2511 5.6633 81.1139 8.03324 85.4607C15.0905 79.32 31.5731 75.0134 50.7553 75.0128Z" fill="#3FC7F4"/>
<path d="M50.7557 75.1338C69.9614 75.1338 86.4163 79.4132 93.4482 85.5126C95.8275 81.1853 97.1268 76.3638 97.1268 71.3185C97.1268 51.2016 76.362 32.783 50.7557 32.783C25.2149 32.783 4.41406 51.2016 4.41406 71.3085C4.41406 76.3644 5.72512 81.1942 8.09151 85.5132C15.1381 79.4132 31.5989 75.135 50.7557 75.1338Z" fill="#4AC8F5"/>
<path d="M50.7554 75.2549C69.9351 75.2549 86.3682 79.5066 93.3894 85.5646C95.7652 81.2657 97.0627 76.4773 97.0627 71.4656C97.0627 51.481 76.3262 33.171 50.7554 33.171C25.2489 33.171 4.47754 51.481 4.47754 71.4556C4.47754 76.4784 5.78623 81.274 8.14849 85.5664C15.1857 79.5066 31.6246 75.2567 50.7554 75.2549Z" fill="#54CAF5"/>
<path d="M50.7553 75.3767C69.9084 75.3767 86.3202 79.6001 93.3314 85.6174C95.7019 81.3462 96.9994 76.5914 96.9994 71.6128C96.9994 51.761 76.2907 33.5597 50.7553 33.5597C25.2818 33.5597 4.54004 51.761 4.54004 71.6028C4.54004 76.5932 5.84755 81.3545 8.20626 85.6191C15.2322 79.6001 31.6505 75.3779 50.7553 75.3767Z" fill="#5DCCF5"/>
<path d="M50.7559 75.4977C69.8831 75.4977 86.2737 79.6933 93.2736 85.6699C95.6406 81.4265 96.9369 76.7047 96.9369 71.7598C96.9369 52.0403 76.2565 33.9476 50.7559 33.9476C25.3168 33.9476 4.60449 52.0403 4.60449 71.7498C4.60449 76.7065 5.90964 81.4347 8.26481 85.6716C15.2801 79.6933 31.6772 75.4995 50.7559 75.4977Z" fill="#64CDF6"/>
<path d="M50.7558 75.6187C69.8571 75.6187 86.2257 79.7871 93.2151 85.7218C95.5779 81.5073 96.8736 76.818 96.8736 71.9068C96.8736 52.3195 76.2204 34.3355 50.7558 34.3355C25.3497 34.3355 4.66699 52.3195 4.66699 71.8967C4.66699 76.8204 5.97096 81.5144 8.32141 85.7241C15.3273 79.7871 31.703 75.6211 50.7558 75.6187Z" fill="#6DCFF6"/>
<path d="M50.7556 75.7399C69.8303 75.7399 86.1771 79.8806 93.1576 85.7745C95.5157 81.5872 96.8102 76.9322 96.8102 72.054C96.8102 52.599 76.1853 34.7237 50.7556 34.7237C25.3838 34.7237 4.72998 52.599 4.72998 72.0439C4.72998 76.934 6.03218 81.5949 8.37908 85.7769C15.3743 79.8806 31.7288 75.7423 50.7556 75.7399Z" fill="#73D1F6"/>
<path d="M50.7554 75.8611C69.8041 75.8611 86.1291 79.974 93.0989 85.8271C95.4529 81.6682 96.7468 77.0456 96.7468 72.2011C96.7468 52.879 76.1497 35.1117 50.7554 35.1117C25.4173 35.1117 4.79297 52.879 4.79297 72.1911C4.79297 77.0486 6.0934 81.6752 8.43676 85.8301C15.4214 79.974 31.7546 75.864 50.7554 75.8611Z" fill="#7AD2F7"/>
<path d="M50.7557 75.9821C69.7778 75.9821 86.0815 80.0672 93.0413 85.879C95.3906 81.7484 96.6839 77.159 96.6839 72.3481C96.6839 53.1588 76.114 35.4996 50.7557 35.4996C25.4512 35.4996 4.85645 53.1588 4.85645 72.3374C4.85645 77.1619 6.1551 81.7549 8.49433 85.8826C15.4689 80.0672 31.7803 75.9856 50.7557 75.9821Z" fill="#81D4F7"/>
<path d="M50.7555 76.1038C69.7516 76.1038 86.0335 80.1606 92.9827 85.9316C95.3284 81.8288 96.6205 77.2724 96.6205 72.4951C96.6205 53.4382 76.0789 35.8876 50.7555 35.8876C25.4847 35.8876 4.91943 53.4382 4.91943 72.4845C4.91943 77.2759 6.21631 81.8352 8.552 85.9346C15.5153 80.1606 31.8061 76.1073 50.7555 76.1038Z" fill="#88D6F8"/>
<path d="M50.7558 76.2249C69.7253 76.2249 85.9859 80.2539 92.9245 85.9837C95.2655 81.9091 96.5576 77.3864 96.5576 72.6423C96.5576 53.7176 76.0438 36.2763 50.7558 36.2763C25.5192 36.2763 4.98291 53.7176 4.98291 72.6316C4.98291 77.39 6.27802 81.9156 8.61016 85.9878C15.5629 80.2539 31.8323 76.2284 50.7558 76.2249Z" fill="#8FD8F8"/>
<path d="M50.7556 76.3461C69.6991 76.3461 85.9379 80.3474 92.8664 86.0364C95.2033 81.9902 96.4936 77.5 96.4936 72.7895C96.4936 53.9971 76.0081 36.665 50.7556 36.665C25.5521 36.665 5.0459 53.9971 5.0459 72.7788C5.0459 77.5041 6.33924 81.9955 8.66724 86.0405C15.6099 80.3474 31.8581 76.3503 50.7556 76.3461Z" fill="#95DAF8"/>
<path d="M50.7554 76.467C69.673 76.467 85.8899 80.4406 92.8077 86.0888C95.1405 82.0704 96.4309 77.6132 96.4309 72.9363C96.4309 54.2768 75.9725 37.0528 50.7554 37.0528C25.5861 37.0528 5.10889 54.2768 5.10889 72.9257C5.10889 77.6173 6.40045 82.0757 8.72432 86.0935C15.657 80.4405 31.8839 76.4717 50.7554 76.467Z" fill="#9ADCF9"/>
<path d="M50.7558 76.5882C69.6468 76.5882 85.8424 80.5346 92.7496 86.1415C95.0782 82.1508 96.3674 77.7273 96.3674 73.083C96.3674 54.5563 75.938 37.4409 50.7558 37.4409C25.6196 37.4409 5.17188 54.5563 5.17188 73.0729C5.17188 77.7321 6.46167 82.1562 8.78259 86.1462C15.7046 80.5346 31.9103 76.593 50.7558 76.5882Z" fill="#A1DEF9"/>
<path d="M50.7555 76.7093C69.6205 76.7093 85.7943 80.628 92.6915 86.1941C95.0153 82.2318 96.3039 77.8407 96.3039 73.23C96.3039 54.8362 75.9017 37.8289 50.7555 37.8289C25.6529 37.8289 5.23535 54.8362 5.23535 73.22C5.23535 77.8455 6.52338 82.2359 8.83957 86.1982C15.7521 80.628 31.936 76.7146 50.7555 76.7093Z" fill="#A7DFF9"/>
<path d="M50.7554 76.8311C69.5938 76.8311 85.7463 80.7213 92.6329 86.2456C94.9532 82.3116 96.2413 77.9542 96.2413 73.3772C96.2413 55.1156 75.8668 38.217 50.7554 38.217C25.6871 38.217 5.29785 55.1156 5.29785 73.3671C5.29785 77.9595 6.5841 82.3163 8.89734 86.2515C15.7987 80.7213 31.9618 76.8364 50.7554 76.8311Z" fill="#ADE1FA"/>
<path d="M50.7556 76.952C69.568 76.952 85.6987 80.8146 92.5752 86.298C94.8902 82.3924 96.1777 78.0681 96.1777 73.5241C96.1777 55.3949 75.8315 38.6055 50.7556 38.6055C25.7203 38.6055 5.36182 55.3949 5.36182 73.5141C5.36182 78.0734 6.64629 82.3965 8.9554 86.304C15.8461 80.8146 31.988 76.9574 50.7556 76.952Z" fill="#B2E3FA"/>
<path d="M50.7555 77.0732C69.5425 77.0732 85.6513 80.9079 92.5166 86.3507C94.8281 82.4728 96.1144 78.1816 96.1144 73.6712C96.1144 55.6748 75.7954 38.9935 50.7555 38.9935C25.7545 38.9935 5.42432 55.6748 5.42432 73.6612C5.42432 78.1875 6.70702 82.4763 9.01259 86.3572C15.8933 80.9079 32.0139 77.0791 50.7555 77.0732Z" fill="#B9E5FB"/>
<path d="M50.7556 77.1943C69.5161 77.1943 85.6037 81.0013 92.4584 86.4033C94.7657 82.5531 96.0514 78.295 96.0514 73.8183C96.0514 55.9542 75.7607 39.3815 50.7556 39.3815C25.7883 39.3815 5.48828 55.9542 5.48828 73.8083C5.48828 78.3015 6.76863 82.5567 9.07006 86.4092C15.9407 81.0013 32.0395 77.2008 50.7556 77.1943Z" fill="#BEE7FB"/>
<path d="M50.7555 77.3153C69.49 77.3153 85.5557 81.0945 92.4004 86.4558C94.703 82.6334 95.9881 78.4089 95.9881 73.9653C95.9881 56.2334 75.7252 39.7694 50.7555 39.7694C25.8219 39.7694 5.55078 56.2334 5.55078 73.9552C5.55078 78.4148 6.82994 82.6369 9.12783 86.4617C15.9878 81.0945 32.0654 77.3223 50.7555 77.3153Z" fill="#C3E9FB"/>
<path d="M50.7553 77.4364C69.4633 77.4364 85.5077 81.1885 92.3417 86.5078C94.6408 82.7144 95.9241 78.5223 95.9241 74.1124C95.9241 56.5128 75.6902 40.1575 50.7553 40.1575C25.8554 40.1575 5.61377 56.5128 5.61377 74.1024C5.61377 78.5294 6.89116 82.7167 9.18492 86.5149C16.0343 81.1885 32.0911 77.4435 50.7553 77.4364Z" fill="#CAEBFC"/>
<path d="M50.7556 77.5576C69.4375 77.5576 85.4602 81.282 92.2835 86.5605C94.5785 82.7943 95.8618 78.6359 95.8618 74.2596C95.8618 56.7929 75.6544 40.5456 50.7556 40.5456C25.8899 40.5456 5.67725 56.7929 5.67725 74.249C5.67725 78.643 6.95287 82.7972 9.24308 86.5676C16.0818 81.282 32.1168 77.5653 50.7556 77.5576Z" fill="#CFEDFC"/>
<path d="M50.7554 77.6791C69.4114 77.6791 85.4121 81.3751 92.2255 86.6123C94.5157 82.875 95.7984 78.7491 95.7984 74.4065C95.7984 57.0726 75.6194 40.9334 50.7554 40.9334C25.9228 40.9334 5.74023 57.0726 5.74023 74.3959C5.74023 78.7568 7.01408 82.8774 9.30075 86.6206C16.1289 81.3751 32.1426 77.6868 50.7554 77.6791Z" fill="#D5EFFC"/>
<path d="M50.7557 77.8004C69.3851 77.8004 85.3646 81.4687 92.1673 86.6652C94.4534 82.9556 95.7349 78.8634 95.7349 74.5538C95.7349 57.3522 75.5842 41.3222 50.7557 41.3222C25.9573 41.3222 5.80371 57.3522 5.80371 74.5432C5.80371 78.8704 7.07519 82.9574 9.35832 86.6729C16.1764 81.4687 32.1689 77.8081 50.7557 77.8004Z" fill="#DBF1FD"/>
<path d="M50.7555 77.9214C69.3589 77.9214 85.3159 81.5619 92.1086 86.7177C94.3911 83.0358 95.6721 78.9767 95.6721 74.7008C95.6721 57.6315 75.548 41.7101 50.7555 41.7101C25.9902 41.7101 5.8667 57.6315 5.8667 74.6901C5.8667 78.9849 7.13701 83.0376 9.4154 86.7253C16.2234 81.5619 32.1947 77.9297 50.7555 77.9214Z" fill="#E0F3FD"/>
<path d="M50.7553 78.0426C69.3321 78.0426 85.2679 81.6553 92.0505 86.7697C94.3278 83.1168 95.6081 79.0901 95.6081 74.8479C95.6081 57.9109 75.513 42.0982 50.7553 42.0982C26.0242 42.0982 5.92969 57.9109 5.92969 74.8373C5.92969 79.0984 7.19763 83.118 9.47307 86.7786C16.2705 81.6553 32.2204 78.0514 50.7553 78.0426Z" fill="#E6F6FD"/>
<path d="M50.7556 78.1635C69.3064 78.1635 85.2204 81.7485 91.9924 86.8222C94.266 83.1965 95.5452 79.204 95.5452 74.9949C95.5452 58.1907 75.4778 42.4867 50.7556 42.4867C26.0582 42.4867 5.99316 58.1907 5.99316 74.9842C5.99316 79.2123 7.25992 83.1976 9.53064 86.8311C16.318 81.7485 32.2467 78.173 50.7556 78.1635Z" fill="#EBF7FE"/>
<path d="M50.7554 78.2847C69.2802 78.2847 85.1723 81.8419 91.9343 86.8748C94.2032 83.2774 95.4818 79.3169 95.4818 75.142C95.4818 58.4701 75.4422 42.8747 50.7554 42.8747C26.0916 42.8747 6.05615 58.4701 6.05615 75.1313C6.05615 79.3263 7.32055 83.278 9.58832 86.8843C16.3651 81.8419 32.2725 78.2941 50.7554 78.2847Z" fill="#F0F9FE"/>
<path d="M50.7552 78.4066C69.2534 78.4066 85.1243 81.9361 91.8756 86.9277C94.1404 83.358 95.4184 79.4305 95.4184 75.2893C95.4184 58.7503 75.4065 43.263 50.7552 43.263C26.1251 43.263 6.11914 58.7503 6.11914 75.2787C6.11914 79.4406 7.38177 83.3586 9.64599 86.9365C16.4121 81.9361 32.2977 78.416 50.7552 78.4066Z" fill="#F7FCFE"/>
<path d="M50.7556 78.5276C69.2278 78.5276 85.0774 82.0293 91.8175 86.9796C94.0782 83.4383 95.3556 79.5444 95.3556 75.4363C95.3556 59.0289 75.3721 43.6509 50.7556 43.6509C26.1597 43.6509 6.18213 59.0289 6.18213 75.4256C6.18213 79.5539 7.44357 83.4383 9.70366 86.989C16.4597 82.0293 32.3241 78.5376 50.7556 78.5276Z" fill="white"/>
</g>
<path d="M50.5309 62.1605C34.3689 62.1605 19.3751 64.9093 7.00391 69.556C14.4397 86.1872 31.1102 97.77 50.5409 97.77C69.9327 97.77 86.5837 86.1777 94.0395 69.556C81.6719 64.9093 66.6551 62.1605 50.5309 62.1605Z" fill="#0083CA"/>
</svg>
