<svg width="160" height="160" viewBox="0 0 160 160" fill="none" xmlns="http://www.w3.org/2000/svg">
<circle cx="80" cy="80" r="80" fill="#34A9E9"/>
<path d="M129.999 80.0003C129.999 107.617 107.599 130 80.0279 130C52.3895 130 30 107.617 30 80.0003C30 52.4122 52.3895 30 80.0279 30C107.599 30 129.999 52.4122 129.999 80.0003Z" fill="#34A9E9"/>
<path d="M80.0573 127.642C106.331 127.642 127.654 106.325 127.654 80.0103C127.654 53.7043 106.331 32.378 80.0472 32.378C53.7299 32.378 32.4211 53.7043 32.4211 80.0103C32.4211 106.335 53.7299 127.642 80.0573 127.642Z" fill="#0083CA"/>
<mask id="mask0_318_31" style="mask-type:luminance" maskUnits="userSpaceOnUse" x="32" y="32" width="96" height="96">
<path d="M32.421 80.0298C32.421 106.335 53.7291 127.642 80.0571 127.642C106.331 127.642 127.654 106.325 127.654 80.0298C127.654 53.7232 106.331 32.4164 80.047 32.4164C53.7291 32.4164 32.421 53.7232 32.421 80.0298Z" fill="white"/>
</mask>
<g mask="url(#mask0_318_31)">
<path d="M80.4734 102.989C101.43 102.989 119.348 108.84 127.063 117.117C129.606 111.226 131.026 104.673 131.026 97.8531C131.026 70.5107 108.382 48.3925 80.4734 48.3925C52.6053 48.3925 29.9447 70.5207 29.9447 97.8726C29.9447 104.692 31.3745 111.217 33.918 117.117C41.6125 108.84 59.5562 102.989 80.4734 102.989Z" fill="#0083CA"/>
<path d="M80.4669 103.042C101.37 103.042 119.243 108.845 126.937 117.055C129.474 111.213 130.891 104.712 130.891 97.9463C130.891 70.8241 108.304 48.8152 80.4669 48.8152C52.6702 48.8152 30.0676 70.8341 30.0676 97.9652C30.0676 104.73 31.4932 111.204 34.0314 117.055C41.7058 108.845 59.6041 103.042 80.4669 103.042Z" fill="#0085CC"/>
<path d="M80.4606 103.095C101.309 103.095 119.137 108.85 126.81 116.994C129.343 111.199 130.755 104.752 130.755 98.0393C130.755 71.1381 108.227 49.2372 80.4606 49.2372C52.7353 49.2372 30.1899 71.1469 30.1899 98.0577C30.1899 104.769 31.612 111.191 34.145 116.994C41.7993 108.85 59.652 103.095 80.4606 103.095Z" fill="#0087CD"/>
<path d="M80.4543 103.149C101.249 103.149 119.032 108.856 126.683 116.934C129.212 111.186 130.62 104.791 130.62 98.1334C130.62 71.4518 108.149 49.6602 80.4543 49.6602C52.8005 49.6602 30.3124 71.4606 30.3124 98.1499C30.3124 104.809 31.7309 111.18 34.2585 116.934C41.8928 108.856 59.6995 103.149 80.4543 103.149Z" fill="#0088CE"/>
<path d="M80.4473 103.202C101.188 103.202 118.926 108.861 126.557 116.872C129.08 111.172 130.485 104.83 130.485 98.2261C130.485 71.7653 108.072 50.0824 80.4473 50.0824C52.8662 50.0824 30.4348 71.7736 30.4348 98.2426C30.4348 104.846 31.8497 111.166 34.3715 116.872C41.9868 108.861 59.7474 103.202 80.4473 103.202Z" fill="#008ACF"/>
<path d="M80.4409 103.256C101.127 103.256 118.821 108.866 126.43 116.812C128.949 111.16 130.35 104.87 130.35 98.3203C130.35 72.0792 107.994 50.5049 80.4409 50.5049C52.9313 50.5049 30.5571 72.0874 30.5571 98.335C30.5571 104.886 31.9686 111.154 34.4856 116.812C42.0802 108.866 59.7948 103.256 80.4409 103.256Z" fill="#008CD0"/>
<path d="M80.4346 103.309C101.068 103.309 118.715 108.871 126.304 116.751C128.818 111.146 130.214 104.909 130.214 98.4133C130.214 72.393 107.917 50.9274 80.4346 50.9274C52.9964 50.9274 30.6796 72.4007 30.6796 98.4268C30.6796 104.924 32.0875 111.141 34.5991 116.751C42.1737 108.871 59.8428 103.309 80.4346 103.309Z" fill="#008ED2"/>
<path d="M80.4278 103.362C101.007 103.362 118.61 108.877 126.177 116.689C128.686 111.133 130.079 104.949 130.079 98.5065C130.079 72.7065 107.84 51.3501 80.4278 51.3501C53.0622 51.3501 30.8026 72.7141 30.8026 98.52C30.8026 104.963 32.2064 111.128 34.7121 116.689C42.2672 108.877 59.8909 103.362 80.4278 103.362Z" fill="#0090D3"/>
<path d="M80.4214 103.416C100.946 103.416 118.504 108.883 126.051 116.629C128.555 111.121 129.943 104.988 129.943 98.6006C129.943 73.0203 107.763 51.7731 80.4214 51.7731C53.1272 51.7731 30.9244 73.0274 30.9244 98.6124C30.9244 105.002 32.3252 111.116 34.8256 116.629C42.3613 108.883 59.9382 103.416 80.4214 103.416Z" fill="#0091D4"/>
<path d="M80.415 103.469C100.886 103.469 118.398 108.888 125.924 116.568C128.423 111.107 129.809 105.027 129.809 98.6936C129.809 73.3341 107.685 52.195 80.415 52.195C53.1923 52.195 31.0468 73.3406 31.0468 98.7048C31.0468 105.041 32.444 111.103 34.9392 116.568C42.4547 108.888 59.9862 103.469 80.415 103.469Z" fill="#0093D5"/>
<path d="M80.4087 103.522C100.825 103.522 118.293 108.893 125.797 116.507C128.292 111.094 129.673 105.067 129.673 98.7868C129.673 73.6476 107.608 52.6177 80.4087 52.6177C53.2581 52.6177 31.1698 73.6541 31.1698 98.7974C31.1698 105.08 32.5623 111.09 35.0528 116.507C42.5482 108.893 60.0342 103.522 80.4087 103.522Z" fill="#0095D7"/>
<path d="M80.402 103.576C100.765 103.576 118.188 108.899 125.671 116.446C128.16 111.081 129.538 105.107 129.538 98.881C129.538 73.962 107.531 53.0408 80.402 53.0408C53.3234 53.0408 31.2924 73.9679 31.2924 98.8898C31.2924 105.119 32.6814 111.079 35.1659 116.446C42.6419 108.899 60.0824 103.576 80.402 103.576Z" fill="#0097D8"/>
<path d="M80.3956 103.629C100.705 103.629 118.082 108.904 125.544 116.386C128.029 111.068 129.402 105.146 129.402 98.9739C129.402 74.2753 107.454 53.4627 80.3956 53.4627C53.3891 53.4627 31.4148 74.2812 31.4148 98.9828C31.4148 105.158 32.8003 111.066 35.2795 116.386C42.7353 108.904 60.1304 103.629 80.3956 103.629Z" fill="#0099D9"/>
<path d="M80.3893 103.683C100.645 103.683 117.976 108.909 125.418 116.324C127.897 111.054 129.267 105.185 129.267 99.0677C129.267 74.5887 107.376 53.8854 80.3893 53.8854C53.4543 53.8854 31.5372 74.594 31.5372 99.0748C31.5372 105.196 32.9192 111.053 35.3936 116.324C42.8288 108.909 60.1778 103.683 80.3893 103.683Z" fill="#009BDA"/>
<path d="M80.3827 103.736C100.584 103.736 117.871 108.915 125.291 116.263C127.765 111.041 129.132 105.224 129.132 99.1608C129.132 74.9027 107.299 54.308 80.3827 54.308C53.5197 54.308 31.6594 74.908 31.6594 99.1673C31.6594 105.235 33.0377 111.04 35.5063 116.263C42.922 108.915 60.225 103.736 80.3827 103.736Z" fill="#009DDC"/>
<path d="M80.376 103.789C100.523 103.789 117.766 108.919 125.165 116.202C127.634 111.028 128.997 105.264 128.997 99.2539C128.997 75.216 107.222 54.73 80.376 54.73C53.585 54.73 31.782 75.2207 31.782 99.2598C31.782 105.274 33.1568 111.028 35.6201 116.202C43.0157 108.919 60.2732 103.789 80.376 103.789Z" fill="#009FDD"/>
<path d="M80.3695 103.842C100.462 103.842 117.66 108.925 125.038 116.142C127.504 111.015 128.861 105.304 128.861 99.3481C128.861 75.5298 107.145 55.1531 80.3695 55.1531C53.65 55.1531 31.9048 75.5346 31.9048 99.3522C31.9048 105.313 33.2755 111.015 35.7335 116.142C43.1096 108.925 60.321 103.842 80.3695 103.842Z" fill="#00A1DE"/>
<path d="M80.3631 103.896C100.403 103.896 117.555 108.93 124.912 116.081C127.372 111.001 128.726 105.343 128.726 99.4412C128.726 75.8432 107.067 55.5757 80.3631 55.5757C53.7157 55.5757 32.0266 75.8479 32.0266 99.4447C32.0266 105.352 33.3944 111.002 35.847 116.081C43.203 108.93 60.369 103.896 80.3631 103.896Z" fill="#00A3E0"/>
<path d="M80.3568 103.949C100.342 103.949 117.449 108.936 124.784 116.02C127.241 110.988 128.591 105.383 128.591 99.5348C128.591 76.1571 106.989 55.9983 80.3568 55.9983C53.7808 55.9983 32.149 76.1613 32.149 99.5372C32.149 105.39 33.5132 110.99 35.9599 116.02C43.2965 108.936 60.4164 103.949 80.3568 103.949Z" fill="#00A5E1"/>
<path d="M80.3499 104.002C100.281 104.002 117.343 108.941 124.658 115.958C127.109 110.975 128.456 105.421 128.456 99.6285C128.456 76.4705 106.912 56.4203 80.3499 56.4203C53.846 56.4203 32.272 76.4746 32.272 99.6297C32.272 105.429 33.6321 110.978 36.0735 115.958C43.39 108.941 60.4644 104.002 80.3499 104.002Z" fill="#00A7E2"/>
<path d="M80.3435 104.055C100.221 104.055 117.237 108.946 124.531 115.897C126.977 110.961 128.32 105.461 128.32 99.7216C128.32 76.7838 106.834 56.8429 80.3435 56.8429C53.911 56.8429 32.3944 76.7874 32.3944 99.7222C32.3944 105.468 33.7503 110.964 36.187 115.897C43.484 108.946 60.5124 104.055 80.3435 104.055Z" fill="#00A9E3"/>
<path d="M80.3371 104.109C100.16 104.109 117.132 108.951 124.405 115.836C126.846 110.948 128.185 105.5 128.185 99.8153C128.185 77.0978 106.757 57.2655 80.3371 57.2655C53.9767 57.2655 32.5162 77.1013 32.5162 99.8147C32.5162 105.507 33.8692 110.952 36.3005 115.836C43.5774 108.951 60.5603 104.109 80.3371 104.109Z" fill="#00ABE5"/>
<path d="M80.3309 104.162C100.101 104.162 117.026 108.957 124.278 115.776C126.714 110.935 128.05 105.54 128.05 99.9089C128.05 77.4116 106.68 57.688 80.3309 57.688C54.0419 57.688 32.6392 77.4146 32.6392 99.9071C32.6392 105.546 33.9881 110.94 36.4141 115.776C43.671 108.957 60.6078 104.162 80.3309 104.162Z" fill="#00ADE6"/>
<path d="M80.3239 104.216C100.04 104.216 116.921 108.962 124.152 115.715C126.583 110.921 127.915 105.58 127.915 100.002C127.915 77.7255 106.603 58.1105 80.3239 58.1105C54.107 58.1105 32.7616 77.7285 32.7616 99.9996C32.7616 105.584 34.1069 110.926 36.5276 115.715C43.7644 108.962 60.6551 104.216 80.3239 104.216Z" fill="#00AFE7"/>
<path d="M80.3176 104.269C99.9793 104.269 116.815 108.967 124.026 115.654C126.451 110.908 127.779 105.619 127.779 100.096C127.779 78.0389 106.526 58.5331 80.3176 58.5331C54.1727 58.5331 32.884 78.0412 32.884 100.092C32.884 105.623 34.2258 110.914 36.6412 115.654C43.8585 108.967 60.7032 104.269 80.3176 104.269Z" fill="#00B2E9"/>
<path d="M80.3112 104.322C99.9186 104.322 116.709 108.973 123.899 115.593C126.32 110.895 127.644 105.659 127.644 100.189C127.644 78.3522 106.448 58.9551 80.3112 58.9551C54.2384 58.9551 33.0064 78.354 33.0064 100.184C33.0064 105.662 34.3446 110.901 36.7541 115.593C43.9519 108.973 60.7511 104.322 80.3112 104.322Z" fill="#00B4EA"/>
<path d="M80.3049 104.376C99.8579 104.376 116.604 108.979 123.773 115.532C126.189 110.883 127.509 105.698 127.509 100.282C127.509 78.6667 106.371 59.3782 80.3049 59.3782C54.3035 59.3782 33.1288 78.6684 33.1288 100.278C33.1288 105.701 34.4635 110.888 36.8677 115.532C44.0454 108.979 60.7992 104.376 80.3049 104.376Z" fill="#00B6EC"/>
<path d="M80.2978 104.429C99.7982 104.429 116.498 108.984 123.645 115.471C126.057 110.869 127.373 105.737 127.373 100.376C127.373 78.98 106.294 59.8008 80.2978 59.8008C54.3685 59.8008 33.2516 78.9812 33.2516 100.369C33.2516 105.74 34.5822 110.876 36.9811 115.471C44.1381 108.984 60.8464 104.429 80.2978 104.429Z" fill="#00B9ED"/>
<path d="M80.2914 104.482C99.7375 104.482 116.393 108.989 123.519 115.41C125.926 110.856 127.238 105.777 127.238 100.469C127.238 79.2939 106.216 60.2234 80.2914 60.2234C54.4341 60.2234 33.374 79.2951 33.374 100.462C33.374 105.778 34.701 110.864 37.094 115.41C44.2321 108.989 60.8943 104.482 80.2914 104.482Z" fill="#07BBEE"/>
<path d="M80.2853 104.536C99.6771 104.536 116.287 108.994 123.392 115.349C125.795 110.842 127.103 105.816 127.103 100.562C127.103 79.6073 106.139 60.6454 80.2853 60.6454C54.4995 60.6454 33.496 79.6079 33.496 100.554C33.496 105.817 34.8201 110.851 37.2083 115.349C44.3258 108.994 60.9425 104.536 80.2853 104.536Z" fill="#0FBDEF"/>
<path d="M80.279 104.589C99.6164 104.589 116.182 109 123.266 115.289C125.663 110.829 126.968 105.856 126.968 100.656C126.968 79.9217 106.062 61.0685 80.279 61.0685C54.5646 61.0685 33.6191 79.9217 33.6191 100.647C33.6191 105.856 34.939 110.838 37.3219 115.289C44.4193 109 60.9906 104.589 80.279 104.589Z" fill="#19C0F1"/>
<path d="M80.272 104.643C99.5557 104.643 116.076 109.005 123.139 115.228C125.532 110.816 126.833 105.895 126.833 100.749C126.833 80.2351 105.984 61.4911 80.272 61.4911C54.6303 61.4911 33.7415 80.2351 33.7415 100.74C33.7415 105.895 35.0572 110.826 37.4354 115.228C44.5128 109.005 61.0379 104.643 80.272 104.643Z" fill="#1FC4F4"/>
<path d="M80.2722 104.764C99.5299 104.764 116.028 109.099 123.081 115.28C125.469 110.897 126.769 106.009 126.769 100.897C126.769 80.5151 105.949 61.8792 80.2722 61.8792C54.6641 61.8792 33.8042 80.5151 33.8042 100.887C33.8042 106.009 35.1194 110.906 37.4929 115.28C44.5601 109.099 61.0641 104.764 80.2722 104.764Z" fill="#33C6F4"/>
<path d="M80.2719 104.885C99.5037 104.885 115.98 109.192 123.023 115.332C125.406 110.977 126.706 106.123 126.706 101.044C126.706 80.794 105.914 62.2674 80.2719 62.2674C54.6975 62.2674 33.8677 80.794 33.8677 101.034C33.8677 106.123 35.18 110.986 37.5499 115.333C44.6071 109.192 61.0898 104.886 80.2719 104.885Z" fill="#3FC7F4"/>
<path d="M80.2721 105.006C99.4778 105.006 115.933 109.285 122.965 115.385C125.344 111.057 126.643 106.236 126.643 101.191C126.643 81.0736 105.878 62.655 80.2721 62.655C54.7313 62.655 33.9305 81.0736 33.9305 101.181C33.9305 106.236 35.2415 111.066 37.6079 115.385C44.6545 109.285 61.1153 105.007 80.2721 105.006Z" fill="#4AC8F5"/>
<path d="M80.2721 105.127C99.4519 105.127 115.885 109.379 122.906 115.437C125.282 111.138 126.579 106.349 126.579 101.338C126.579 81.353 105.843 63.0431 80.2721 63.0431C54.7656 63.0431 33.9943 81.353 33.9943 101.328C33.9943 106.351 35.303 111.146 37.6652 115.438C44.7024 109.379 61.1413 105.129 80.2721 105.127Z" fill="#54CAF5"/>
<path d="M80.272 105.249C99.4252 105.249 115.837 109.472 122.848 115.489C125.219 111.218 126.516 106.463 126.516 101.485C126.516 81.6331 105.807 63.4318 80.272 63.4318C54.7986 63.4318 34.0568 81.6331 34.0568 101.475C34.0568 106.465 35.3643 111.227 37.723 115.491C44.7489 109.472 61.1672 105.25 80.272 105.249Z" fill="#5DCCF5"/>
<path d="M80.2722 105.37C99.3994 105.37 115.79 109.565 122.79 115.542C125.157 111.298 126.453 106.577 126.453 101.632C126.453 81.9121 105.773 63.8195 80.2722 63.8195C54.8331 63.8195 34.1208 81.9121 34.1208 101.622C34.1208 106.578 35.4259 111.307 37.7811 115.543C44.7964 109.565 61.1935 105.371 80.2722 105.37Z" fill="#64CDF6"/>
<path d="M80.2721 105.491C99.3734 105.491 115.742 109.659 122.731 115.594C125.094 111.379 126.39 106.69 126.39 101.779C126.39 82.1916 105.737 64.2076 80.2721 64.2076C54.866 64.2076 34.1833 82.1916 34.1833 101.769C34.1833 106.692 35.4873 111.386 37.8377 115.596C44.8436 109.659 61.2193 105.493 80.2721 105.491Z" fill="#6DCFF6"/>
<path d="M80.272 105.612C99.3467 105.612 115.694 109.753 122.674 115.647C125.032 111.459 126.327 106.804 126.327 101.926C126.327 82.4711 105.702 64.5958 80.272 64.5958C54.9002 64.5958 34.2464 82.4711 34.2464 101.916C34.2464 106.806 35.5486 111.467 37.8955 115.649C44.8907 109.753 61.2452 105.614 80.272 105.612Z" fill="#73D1F6"/>
<path d="M80.272 105.733C99.3207 105.733 115.646 109.846 122.616 115.699C124.969 111.54 126.263 106.918 126.263 102.073C126.263 82.7511 105.666 64.9838 80.272 64.9838C54.9339 64.9838 34.3096 82.7511 34.3096 102.063C34.3096 106.921 35.61 111.547 37.9534 115.702C44.938 109.846 61.2712 105.736 80.272 105.733Z" fill="#7AD2F7"/>
<path d="M80.2722 105.854C99.2943 105.854 115.598 109.94 122.558 115.751C124.907 111.621 126.2 107.031 126.2 102.22C126.2 83.0312 105.63 65.3719 80.2722 65.3719C54.9677 65.3719 34.3729 83.0312 34.3729 102.21C34.3729 107.034 35.6716 111.627 38.0108 115.755C44.9854 109.94 61.2968 105.858 80.2722 105.854Z" fill="#81D4F7"/>
<path d="M80.2721 105.976C99.2682 105.976 115.55 110.033 122.499 115.804C124.845 111.701 126.137 107.144 126.137 102.367C126.137 83.3103 105.596 65.7597 80.2721 65.7597C55.0013 65.7597 34.436 83.3103 34.436 102.357C34.436 107.148 35.7329 111.707 38.0686 115.807C45.0319 110.033 61.3227 105.979 80.2721 105.976Z" fill="#88D6F8"/>
<path d="M80.2721 106.097C99.2416 106.097 115.502 110.126 122.441 115.856C124.782 111.781 126.074 107.258 126.074 102.514C126.074 83.5896 105.56 66.1483 80.2721 66.1483C55.0355 66.1483 34.4992 83.5896 34.4992 102.504C34.4992 107.262 35.7943 111.788 38.1265 115.86C45.0792 110.126 61.3486 106.1 80.2721 106.097Z" fill="#8FD8F8"/>
<path d="M80.2721 106.218C99.2156 106.218 115.454 110.219 122.383 115.908C124.72 111.862 126.01 107.372 126.01 102.662C126.01 83.8691 105.525 66.5371 80.2721 66.5371C55.0686 66.5371 34.5624 83.8691 34.5624 102.651C34.5624 107.376 35.8557 111.868 38.1837 115.913C45.1264 110.219 61.3746 106.222 80.2721 106.218Z" fill="#95DAF8"/>
<path d="M80.272 106.339C99.1896 106.339 115.406 110.312 122.324 115.961C124.657 111.942 125.947 107.485 125.947 102.808C125.947 84.1486 105.489 66.9246 80.272 66.9246C55.1027 66.9246 34.6255 84.1486 34.6255 102.798C34.6255 107.489 35.9171 111.947 38.2409 115.965C45.1736 110.312 61.4005 106.344 80.272 106.339Z" fill="#9ADCF9"/>
<path d="M80.2721 106.461C99.1631 106.461 115.359 110.407 122.266 116.014C124.595 112.023 125.884 107.6 125.884 102.955C125.884 84.4286 105.454 67.3133 80.2721 67.3133C55.1359 67.3133 34.6882 84.4286 34.6882 102.945C34.6882 107.604 35.978 112.028 38.2989 116.019C45.221 110.407 61.4266 106.465 80.2721 106.461Z" fill="#A1DEF9"/>
<path d="M80.2719 106.581C99.1369 106.581 115.311 110.5 122.208 116.066C124.532 112.104 125.82 107.713 125.82 103.102C125.82 84.7083 105.418 67.701 80.2719 67.701C55.1694 67.701 34.7518 84.7083 34.7518 103.092C34.7518 107.718 36.0398 112.108 38.356 116.07C45.2685 110.5 61.4524 106.587 80.2719 106.581Z" fill="#A7DFF9"/>
<path d="M80.272 106.703C99.1105 106.703 115.263 110.593 122.15 116.118C124.47 112.184 125.758 107.826 125.758 103.249C125.758 84.9877 105.383 68.089 80.272 68.089C55.2038 68.089 34.8145 84.9877 34.8145 103.239C34.8145 107.832 36.1008 112.188 38.414 116.124C45.3153 110.593 61.4785 106.708 80.272 106.703Z" fill="#ADE1FA"/>
<path d="M80.272 106.824C99.0845 106.824 115.215 110.686 122.092 116.17C124.407 112.264 125.694 107.94 125.694 103.396C125.694 85.2667 105.348 68.4773 80.272 68.4773C55.2368 68.4773 34.8783 85.2667 34.8783 103.386C34.8783 107.945 36.1628 112.268 38.4719 116.176C45.3626 110.686 61.5045 106.829 80.272 106.824Z" fill="#B2E3FA"/>
<path d="M80.2719 106.945C99.059 106.945 115.168 110.78 122.033 116.223C124.345 112.345 125.631 108.053 125.631 103.543C125.631 85.5467 105.312 68.8653 80.2719 68.8653C55.271 68.8653 34.9408 85.5467 34.9408 103.533C34.9408 108.059 36.2235 112.348 38.5291 116.229C45.4097 110.78 61.5304 106.951 80.2719 106.945Z" fill="#B9E5FB"/>
<path d="M80.2719 107.066C99.0324 107.066 115.12 110.873 121.975 116.275C124.282 112.425 125.568 108.167 125.568 103.69C125.568 85.8263 105.277 69.2536 80.2719 69.2536C55.3046 69.2536 35.0046 85.8263 35.0046 103.68C35.0046 108.174 36.2849 112.429 38.5864 116.281C45.457 110.873 61.5558 107.073 80.2719 107.066Z" fill="#BEE7FB"/>
<path d="M80.2718 107.188C99.0063 107.188 115.072 110.967 121.917 116.328C124.219 112.506 125.504 108.281 125.504 103.838C125.504 86.1058 105.241 69.6417 80.2718 69.6417C55.3382 69.6417 35.0671 86.1058 35.0671 103.828C35.0671 108.287 36.3462 112.509 38.6441 116.334C45.5041 110.967 61.5817 107.195 80.2718 107.188Z" fill="#C3E9FB"/>
<path d="M80.272 107.309C98.9799 107.309 115.024 111.061 121.858 116.38C124.157 112.587 125.441 108.395 125.441 103.985C125.441 86.3851 105.207 70.0298 80.272 70.0298C55.372 70.0298 35.1304 86.3851 35.1304 103.975C35.1304 108.402 36.4078 112.589 38.7016 116.387C45.5509 111.061 61.6078 107.316 80.272 107.309Z" fill="#CAEBFC"/>
<path d="M80.272 107.429C98.9539 107.429 114.977 111.154 121.8 116.432C124.095 112.666 125.378 108.508 125.378 104.131C125.378 86.6647 105.171 70.4174 80.272 70.4174C55.4063 70.4174 35.1936 86.6647 35.1936 104.121C35.1936 108.515 36.4692 112.669 38.7594 116.439C45.5982 111.154 61.6332 107.437 80.272 107.429Z" fill="#CFEDFC"/>
<path d="M80.2719 107.551C98.9278 107.551 114.929 111.247 121.742 116.484C124.032 112.747 125.315 108.621 125.315 104.279C125.315 86.9447 105.136 70.8055 80.2719 70.8055C55.4393 70.8055 35.2567 86.9447 35.2567 104.268C35.2567 108.629 36.5306 112.749 38.8172 116.493C45.6453 111.247 61.6591 107.559 80.2719 107.551Z" fill="#D5EFFC"/>
<path d="M80.2721 107.673C98.9014 107.673 114.881 111.341 121.684 116.537C123.97 112.828 125.251 108.735 125.251 104.426C125.251 87.2243 105.101 71.1943 80.2721 71.1943C55.4737 71.1943 35.3201 87.2243 35.3201 104.415C35.3201 108.743 36.5916 112.829 38.8747 116.545C45.6927 111.341 61.6852 107.68 80.2721 107.673Z" fill="#DBF1FD"/>
<path d="M80.2721 107.794C98.8754 107.794 114.832 111.434 121.625 116.59C123.908 112.908 125.189 108.849 125.189 104.573C125.189 87.5038 105.065 71.5824 80.2721 71.5824C55.5067 71.5824 35.3832 87.5038 35.3832 104.562C35.3832 108.857 36.6535 112.91 38.9319 116.598C45.74 111.434 61.7112 107.802 80.2721 107.794Z" fill="#E0F3FD"/>
<path d="M80.272 107.915C98.8488 107.915 114.785 111.528 121.567 116.642C123.844 112.989 125.125 108.962 125.125 104.72C125.125 87.7832 105.03 71.9705 80.272 71.9705C55.541 71.9705 35.4464 87.7832 35.4464 104.71C35.4464 108.971 36.7144 112.99 38.9898 116.651C45.7872 111.528 61.7372 107.924 80.272 107.915Z" fill="#E6F6FD"/>
<path d="M80.272 108.036C98.8228 108.036 114.737 111.621 121.509 116.694C123.782 113.069 125.062 109.076 125.062 104.867C125.062 88.0628 104.994 72.3587 80.272 72.3587C55.5745 72.3587 35.5095 88.0628 35.5095 104.856C35.5095 109.084 36.7763 113.07 39.047 116.703C45.8344 111.621 61.7631 108.045 80.272 108.036Z" fill="#EBF7FE"/>
<path d="M80.2719 108.157C98.7968 108.157 114.689 111.714 121.451 116.747C123.72 113.15 124.998 109.189 124.998 105.014C124.998 88.3422 104.959 72.7468 80.2719 72.7468C55.6082 72.7468 35.5727 88.3422 35.5727 105.003C35.5727 109.198 36.8371 113.15 39.1049 116.756C45.8816 111.714 61.789 108.166 80.2719 108.157Z" fill="#F0F9FE"/>
<path d="M80.2718 108.279C98.7701 108.279 114.641 111.808 121.392 116.8C123.657 113.23 124.935 109.303 124.935 105.161C124.935 88.6223 104.923 73.135 80.2718 73.135C55.6418 73.135 35.6358 88.6223 35.6358 105.151C35.6358 109.313 36.8984 113.231 39.1627 116.809C45.9288 111.808 61.8143 108.288 80.2718 108.279Z" fill="#F7FCFE"/>
<path d="M80.272 108.399C98.7443 108.399 114.594 111.901 121.334 116.851C123.595 113.31 124.872 109.416 124.872 105.308C124.872 88.9008 104.888 73.5227 80.272 73.5227C55.6762 73.5227 35.6985 88.9008 35.6985 105.297C35.6985 109.426 36.96 113.31 39.2201 116.861C45.9761 111.901 61.8405 108.409 80.272 108.399Z" fill="white"/>
</g>
<path d="M80.0474 92.0325C63.8854 92.0325 48.8915 94.7814 36.5204 99.4281C43.9562 116.059 60.6266 127.642 80.0574 127.642C99.4492 127.642 116.1 116.05 123.556 99.4281C111.188 94.7814 96.1715 92.0325 80.0474 92.0325Z" fill="#0083CA"/>
</svg>
