<svg version="1.2" xmlns="http://www.w3.org/2000/svg" viewBox="0 0 1536 1521" width="1536" height="1521">
  <title>[Woori Financial Group]FY2021 Annual Report Corporate Factbook3-1-pdf-svg</title>
  <defs>
    <clipPath clipPathUnits="userSpaceOnUse" id="cp1">
      <path d="m-53220.13-41749.8h72168.51v46676.41h-72168.51z"/>
    </clipPath>
    <clipPath clipPathUnits="userSpaceOnUse" id="cp2">
      <path d="m760.64 1484.84c-400.54 0-724.3-323.68-724.3-724.11 0-400.43 323.76-724.1 724.3-724.1 400.54 0 724.31 323.67 724.31 724.1 0 400.43-323.77 724.11-724.31 724.11z"/>
    </clipPath>
  </defs>
  <style>
    .s0 { fill: #ffffff }
    .s1 { fill: #007bc7 }
    .s2 { fill: #007cc8 }
    .s3 { fill: #007ec9 }
    .s4 { fill: #0080ca }
    .s5 { fill: #0083cd }
    .s6 { fill: #0085ce }
    .s7 { fill: #0087cf }
    .s8 { fill: #0088d0 }
    .s9 { fill: #008ad1 }
    .s10 { fill: #008cd3 }
    .s11 { fill: #008ed4 }
    .s12 { fill: #0090d5 }
    .s13 { fill: #0093d7 }
    .s14 { fill: #0095d8 }
    .s15 { fill: #0097da }
    .s16 { fill: #0099db }
    .s17 { fill: #009bdc }
    .s18 { fill: #009ddd }
    .s19 { fill: #009fde }
    .s20 { fill: #00a1e0 }
    .s21 { fill: #00a5e2 }
    .s22 { fill: #00a7e3 }
    .s23 { fill: #00a9e4 }
    .s24 { fill: #00abe5 }
    .s25 { fill: #00ade7 }
    .s26 { fill: #00afe8 }
    .s27 { fill: #00b1e9 }
    .s28 { fill: #06b4ea }
    .s29 { fill: #21b8ed }
    .s30 { fill: #29baee }
    .s31 { fill: #30bcef }
    .s32 { fill: #37bef0 }
    .s33 { fill: #44c0f0 }
    .s34 { fill: #4fc2f1 }
    .s35 { fill: #59c4f1 }
    .s36 { fill: #62c6f2 }
    .s37 { fill: #6bc8f3 }
    .s38 { fill: #76cbf3 }
    .s39 { fill: #7ecef4 }
    .s40 { fill: #85d0f4 }
    .s41 { fill: #8cd2f5 }
    .s42 { fill: #92d4f5 }
    .s43 { fill: #98d6f6 }
    .s44 { fill: #9fd8f7 }
    .s45 { fill: #a4dbf7 }
    .s46 { fill: #aaddf8 }
    .s47 { fill: #b0dff8 }
    .s48 { fill: #b8e2f9 }
    .s49 { fill: #bde4f9 }
    .s50 { fill: #c2e6fa }
    .s51 { fill: #c7e8fa }
    .s52 { fill: #cceafa }
    .s53 { fill: #d1ecfb }
    .s54 { fill: #d6eefb }
    .s55 { fill: #dbf0fc }
    .s56 { fill: #dff1fc }
    .s57 { fill: #e4f4fd }
    .s58 { fill: #eaf6fd }
    .s59 { fill: #eff8fe }
    .s60 { fill: #f3fafe }
    .s61 { fill: #f7fcfe }
    .s62 { fill: #fcfdff }
  </style>
<path id="Path 5" class="s0" d="m760.3 1520.4c-420.2 0-759.9-339.7-759.9-759.9 0-420.2 339.7-759.8 759.9-759.8 420.2 0 759.8 339.6 759.8 759.8 0 420.2-339.6 759.9-759.8 759.9z"/>
<path id="Path 6" class="s1" d="m762.1 1486.7c-400.5 0-724.3-324.6-724.3-726.2 0-401.5 323.8-726.1 724.3-726.1 400.6 0 724.3 324.6 724.3 726.1 0 401.6-323.7 726.2-724.3 726.2z"/>
<g id="Clip-Path: Mask" clip-path="url(#cp2)">
  <g id="Mask">
    <path id="Path 8" class="s1" d="m60.3 1325.8c-41.2-89.9-59.9-190.9-59.9-292 0-419.2 344.4-756.1 767.4-756.1 422.9 0 767.3 336.9 767.3 752.3 0 104.9-22.5 205.9-59.9 295.8-116-127.3-389.3-217.1-707.4-217.1-318.2 0-591.5 89.8-707.5 217.1z"/>
    <path id="Path 9" class="s2" d="m60.3 1322c-37.4-86.1-59.9-187.1-59.9-288.2 0-411.7 344.4-748.6 767.4-748.6 422.9 0 767.3 336.9 767.3 748.6 0 101.1-22.5 202.1-59.9 288.2-119.8-123.5-389.3-209.6-707.4-209.6-318.2 0-591.5 86.1-707.5 209.6z"/>
    <path id="Path 10" class="s3" d="m64 1322c-41.1-86.1-59.9-183.4-59.9-288.2 0-408 340.7-741.1 763.7-741.1 422.9 0 763.6 333.1 763.6 741.1 0 101.1-22.5 202.1-59.9 288.2-116.1-123.5-385.6-209.6-703.7-209.6-318.2 0-587.7 86.1-703.8 209.6z"/>
    <path id="Path 11" class="s4" d="m64 1322c-37.4-86.1-59.9-183.4-59.9-284.5 0-408 340.7-737.4 763.7-737.4 419.2 0 763.6 329.4 763.6 737.4 0 101.1-22.5 198.4-59.9 284.5-116.1-123.5-389.3-209.6-703.7-209.6-318.2 0-587.7 86.1-703.8 209.6z"/>
    <path id="Path 12" class="s5" d="m67.8 1322c-41.2-86.1-59.9-183.4-59.9-284.5 0-404.2 340.6-733.6 759.9-733.6 419.2 0 759.8 329.4 759.8 733.6 0 101.1-22.4 198.4-59.9 284.5-116-123.5-385.5-209.6-699.9-209.6-314.5 0-584 86.1-700 209.6z"/>
    <path id="Path 13" class="s6" d="m67.8 1318.3c-37.5-86.1-59.9-179.7-59.9-280.8 0-396.7 340.6-726.1 759.9-726.1 419.2 0 756.1 329.4 756.1 726.1 0 101.1-18.7 198.4-56.2 280.8-116-119.8-385.5-205.9-699.9-205.9-314.5 0-584 86.1-700 205.9z"/>
    <path id="Path 14" class="s7" d="m67.8 1318.3c-37.5-86.1-56.2-179.7-56.2-277 0-396.8 336.9-722.4 756.2-722.4 415.4 0 756.1 325.6 756.1 722.4 0 97.3-22.5 190.9-59.9 277-116.1-119.8-381.8-202.2-696.2-202.2-314.5 0-584 82.4-700 202.2z"/>
    <path id="Path 15" class="s8" d="m71.5 1318.3c-37.4-86.1-59.9-179.7-59.9-277 0-393 336.9-718.7 756.2-718.7 415.4 0 752.3 325.7 752.3 718.7 0 97.3-18.7 190.9-56.1 277-116.1-119.8-385.6-202.2-696.2-202.2-314.5 0-580.2 82.4-696.3 202.2z"/>
    <path id="Path 16" class="s9" d="m71.5 1318.3c-37.4-86.1-56.1-179.7-56.1-273.3 0-389.3 336.9-714.9 752.4-714.9 415.4 0 752.3 325.6 752.3 711.2 0 97.3-22.4 190.9-59.9 277-116-119.8-381.8-202.2-692.4-202.2-314.5 0-580.2 82.4-696.3 202.2z"/>
    <path id="Path 17" class="s10" d="m75.3 1314.5c-37.5-82.3-59.9-172.2-59.9-269.5 0-385.5 336.9-707.4 752.4-707.4 411.7 0 748.6 321.9 748.6 707.4q0 146-56.2 269.5c-116-116-381.8-198.4-692.4-198.4-310.7 0-580.2 82.4-692.5 198.4z"/>
    <path id="Path 18" class="s11" d="m75.3 1314.5q-56.2-123.5-56.2-269.5c0-381.8 333.2-699.9 748.7-699.9 411.7 0 748.6 318.1 748.6 699.9 0 97.3-22.5 187.2-59.9 269.5-112.3-116-378.1-198.4-688.7-198.4-310.7 0-576.5 82.4-692.5 198.4z"/>
    <path id="Path 19" class="s12" d="m79 1314.5c-37.4-82.3-59.9-172.2-59.9-265.7 0-381.8 336.9-700 748.7-700 411.7 0 744.8 318.2 744.8 700 0 93.5-18.7 183.4-59.8 265.7-112.3-116-378.1-194.6-685-194.6-310.7 0-576.5 78.6-688.8 194.6z"/>
    <path id="Path 20" class="s13" d="m79 1314.5c-37.4-82.3-56.1-172.2-56.1-265.7 0-374.3 333.1-692.5 744.9-692.5 408 0 744.8 318.2 744.8 692.5 0 93.5-22.4 183.4-59.8 265.7-112.3-116-378.1-194.6-685-194.6-310.7 0-572.8 78.6-688.8 194.6z"/>
    <path id="Path 21" class="s14" d="m82.8 1314.5c-37.5-82.3-59.9-172.2-59.9-265.7 0-370.6 333.1-685 744.9-685 408 0 741.1 314.4 741.1 685 0 93.5-18.7 183.4-59.9 265.7-112.3-116-374.3-194.6-681.2-194.6-310.7 0-572.8 78.6-685 194.6z"/>
    <path id="Path 22" class="s15" d="m82.8 1310.8c-37.5-78.6-56.2-168.5-56.2-258.3 0-370.6 329.4-685 737.4-685 411.8 0 744.9 314.4 744.9 685 0 89.8-22.5 179.7-59.9 258.3-112.3-112.3-374.3-190.9-685-190.9-303.2 0-569 78.6-681.2 190.9z"/>
    <path id="Path 23" class="s16" d="m86.5 1310.8c-37.4-78.6-59.9-164.7-59.9-258.3 0-363.1 333.1-677.5 737.4-677.5 411.8 0 741.2 310.7 741.2 677.5 0 93.6-22.5 179.7-59.9 258.3-112.3-112.3-374.3-187.2-681.3-187.2-303.2 0-565.2 74.9-677.5 187.2z"/>
    <path id="Path 24" class="s17" d="m86.5 1310.8c-37.4-78.6-56.2-164.7-56.2-254.5 0-363.1 329.4-673.8 733.7-673.8 408 0 737.4 310.7 737.4 673.8 0 89.8-18.7 175.9-56.1 254.5-112.3-112.3-374.3-187.2-681.3-187.2-303.2 0-565.2 74.9-677.5 187.2z"/>
    <path id="Path 25" class="s18" d="m90.2 1310.8c-37.4-78.6-59.9-164.7-59.9-254.5 0-359.4 329.4-666.3 733.7-666.3 408 0 737.4 306.9 737.4 666.3 0 89.8-22.4 175.9-59.9 254.5-108.5-112.3-370.5-187.2-677.5-187.2-303.2 0-565.2 74.9-673.8 187.2z"/>
    <path id="Path 26" class="s19" d="m90.2 1307c-37.4-74.8-56.1-160.9-56.1-250.7 0-355.6 325.6-662.6 729.9-662.6 408 0 733.7 307 733.7 662.6 0 89.8-18.7 175.9-56.2 250.7-112.3-108.5-370.5-183.4-677.5-183.4-303.2 0-561.5 74.9-673.8 183.4z"/>
    <path id="Path 27" class="s20" d="m90.2 1307c-33.6-74.8-56.1-160.9-56.1-247 0-351.9 329.4-658.8 729.9-658.8 404.3 0 733.7 306.9 733.7 658.8 0 86.1-22.5 172.2-59.9 247-108.6-104.8-370.6-183.4-673.8-183.4-299.4 0-561.5 78.6-673.8 183.4z"/>
    <path id="Path 28" class="s21" d="m94 1307c-37.4-74.8-56.2-160.9-56.2-247 0-348.1 325.7-651.3 726.2-651.3 404.3 0 729.9 303.2 729.9 651.3 0 86.1-18.7 172.2-56.1 247-112.3-104.8-370.6-179.6-673.8-179.6-299.4 0-557.7 74.8-670 179.6z"/>
    <path id="Path 29" class="s22" d="m94 1303.3c-33.7-71.1-56.2-153.5-56.2-243.3 0-344.4 325.7-643.8 726.2-643.8 404.3 0 729.9 299.4 729.9 643.8 0 86.1-22.4 172.2-59.9 243.3-108.5-101.1-366.8-175.9-670-175.9-299.4 0-557.7 74.8-670 175.9z"/>
    <path id="Path 30" class="s23" d="m97.7 1303.3c-37.4-71.1-56.1-153.5-56.1-239.6 0-344.3 321.9-643.8 722.4-643.8 400.5 0 726.2 299.5 726.2 643.8 0 86.1-18.7 168.5-56.2 239.6-112.3-101.1-366.8-175.9-670-175.9-299.4 0-557.7 74.8-666.3 175.9z"/>
    <path id="Path 31" class="s24" d="m97.7 1303.3c-37.4-71.1-56.1-153.5-56.1-239.6 0-336.8 325.6-636.3 722.4-636.3 400.5 0 726.2 299.5 726.2 636.3 0 86.1-22.5 168.5-59.9 239.6-108.6-101.1-366.8-175.9-666.3-175.9-299.4 0-554 74.8-666.3 175.9z"/>
    <path id="Path 32" class="s25" d="m101.5 1303.3c-37.5-71.1-56.2-153.5-56.2-235.8 0-336.9 321.9-632.6 718.7-632.6 400.5 0 722.4 295.7 722.4 632.6q0 123.5-56.1 235.8c-112.3-101.1-366.8-172.2-666.3-172.2-295.7 0-554 71.1-662.5 172.2z"/>
    <path id="Path 33" class="s26" d="m101.5 1303.3q-56.2-112.3-56.2-235.8c0-333.2 321.9-628.9 718.7-628.9 396.8 0 722.4 295.7 722.4 628.9 0 82.3-22.4 160.9-59.8 235.8-108.6-101.1-363.1-172.2-662.6-172.2-295.7 0-554 71.1-662.5 172.2z"/>
    <path id="Path 34" class="s27" d="m105.2 1299.6c-37.4-71.2-59.9-149.8-59.9-232.1 0-329.4 325.7-621.4 718.7-621.4 396.8 0 718.7 292 718.7 621.4 0 82.3-18.7 160.9-56.1 232.1-108.6-97.4-363.1-168.5-662.6-168.5-295.7 0-550.2 71.1-658.8 168.5z"/>
    <path id="Path 35" class="s28" d="m105.2 1299.6c-37.4-71.2-56.1-149.8-56.1-228.4 0-325.6 321.9-617.6 714.9-617.6 396.8 0 715 292 715 617.6 0 78.6-18.8 157.2-56.2 228.4-108.5-97.4-363.1-168.5-658.8-168.5-295.7 0-550.2 71.1-658.8 168.5z"/>
    <path id="Path 36" class="s29" d="m109 1299.6c-37.5-71.2-56.2-146-56.2-228.4 0-321.9 318.2-610.1 711.2-610.1 393 0 715 288.2 715 610.1 0 82.4-18.8 157.2-56.2 228.4-108.5-97.4-363.1-168.5-658.8-168.5-295.7 0-546.5 71.1-655 168.5z"/>
    <path id="Path 37" class="s30" d="m109 1299.6c-37.5-71.2-56.2-146-56.2-228.4 0-318.1 318.2-606.4 711.2-606.4 393 0 711.2 288.3 711.2 606.4 0 82.4-18.7 157.2-56.1 228.4-108.6-97.4-359.4-164.7-655.1-164.7-292 0-546.5 67.3-655 164.7z"/>
    <path id="Path 38" class="s31" d="m112.7 1295.8c-37.4-67.4-56.1-142.2-56.1-220.8 0-314.5 318.1-602.7 707.4-602.7 393 0 711.2 288.2 711.2 602.7 0 78.6-22.4 153.4-56.1 220.8-108.6-93.6-359.4-160.9-655.1-160.9-292 0-546.5 67.3-651.3 160.9z"/>
    <path id="Path 39" class="s32" d="m112.7 1295.8c-37.4-67.4-56.1-142.2-56.1-220.8 0-310.7 318.1-595.2 707.4-595.2 393 0 707.5 284.5 707.5 595.2 0 78.6-18.7 153.4-56.2 220.8-104.8-93.6-359.3-160.9-651.3-160.9-292 0-542.7 67.3-651.3 160.9z"/>
    <path id="Path 40" class="s33" d="m112.7 1295.8c-33.7-67.4-56.1-138.5-56.1-217.1 0-310.7 318.1-595.1 707.4-595.1 389.3 0 707.5 284.4 707.5 595.1 0 78.6-18.7 149.7-56.2 217.1-108.5-93.6-359.3-157.2-651.3-157.2-292 0-542.7 63.6-651.3 157.2z"/>
    <path id="Path 41" class="s34" d="m112.7 1295.8c-33.7-63.6-52.4-138.5-52.4-217.1 0-306.9 314.4-587.7 703.7-587.7 389.3 0 707.5 280.8 707.5 587.7 0 78.6-22.5 153.5-56.2 217.1-108.5-89.8-359.3-157.2-651.3-157.2-292 0-542.7 67.4-651.3 157.2z"/>
    <path id="Path 42" class="s35" d="m116.4 1299.6c-37.4-67.4-56.1-142.3-56.1-217.1 0-307 314.4-587.7 703.7-587.7 389.3 0 703.7 280.7 703.7 587.7 0 74.8-18.7 149.7-56.1 217.1-104.8-93.6-355.6-161-647.6-161-292 0-542.7 67.4-647.6 161z"/>
    <path id="Path 43" class="s36" d="m116.4 1299.6q-56.1-101.1-56.1-213.4c0-306.9 314.4-583.9 703.7-583.9 389.3 0 703.7 277 703.7 583.9q0 112.3-56.1 213.4c-104.8-93.6-355.6-157.3-647.6-157.3-292 0-539 63.7-647.6 157.3z"/>
    <path id="Path 44" class="s37" d="m116.4 1299.6c-33.6-63.7-56.1-138.5-56.1-213.4 0-299.5 318.2-576.4 703.7-576.4 389.3 0 703.7 276.9 703.7 576.4 0 74.9-18.7 149.7-56.1 213.4-104.8-89.9-355.6-157.3-647.6-157.3-292 0-539 67.4-647.6 157.3z"/>
    <path id="Path 45" class="s38" d="m116.4 1299.6c-33.6-63.7-52.4-134.8-52.4-209.7 0-299.4 314.5-576.4 700-576.4 389.3 0 703.7 277 703.7 576.4 0 74.9-22.4 146-56.1 209.7-108.6-89.9-355.6-153.5-647.6-153.5-288.2 0-539 63.6-647.6 153.5z"/>
    <path id="Path 46" class="s39" d="m120.2 1303.3q-56.2-101.1-56.2-213.4c0-295.7 314.5-568.9 700-568.9 389.3 0 700 273.2 700 568.9 0 74.9-18.7 146-52.4 213.4-108.6-93.6-355.6-157.2-647.6-157.2-288.2 0-539 63.6-643.8 157.2z"/>
    <path id="Path 47" class="s40" d="m120.2 1303.3c-37.4-63.6-56.2-134.8-56.2-209.6 0-295.7 314.5-569 700-569 385.6 0 700 273.3 700 569 0 74.8-18.7 146-56.2 209.6-104.8-89.8-351.8-153.5-643.8-153.5-288.2 0-539 63.7-643.8 153.5z"/>
    <path id="Path 48" class="s41" d="m120.2 1303.3c-33.7-63.6-56.2-134.8-56.2-205.9 0-295.7 314.5-565.2 700-565.2 385.6 0 700 269.5 700 565.2 0 71.1-18.7 142.3-56.2 205.9-104.8-89.8-355.6-153.5-643.8-153.5-288.2 0-539 63.7-643.8 153.5z"/>
    <path id="Path 49" class="s42" d="m120.2 1303.3c-33.7-63.6-52.4-131-52.4-205.9 0-291.9 310.7-561.4 696.2-561.4 385.6 0 700 269.5 700 561.4 0 74.9-22.5 142.3-56.2 205.9-104.8-86.1-355.6-149.7-643.8-149.7-288.2 0-535.3 63.6-643.8 149.7z"/>
    <path id="Path 50" class="s43" d="m123.9 1303.3c-37.4-59.9-56.1-131-56.1-202.1 0-292 310.7-557.8 696.2-557.8 385.6 0 696.2 265.8 696.2 557.8 0 71.1-18.7 142.2-52.4 202.1-108.5-86.1-355.6-149.7-643.8-149.7-288.2 0-535.3 63.6-640.1 149.7z"/>
    <path id="Path 51" class="s44" d="m123.9 1307c-37.4-63.6-56.1-131-56.1-205.8 0-288.3 314.4-550.3 696.2-550.3 385.6 0 696.2 262 696.2 550.3 0 74.8-18.7 142.2-56.1 205.8-104.8-89.8-351.9-149.7-640.1-149.7-288.2 0-535.3 59.9-640.1 149.7z"/>
    <path id="Path 52" class="s45" d="m123.9 1307c-33.7-63.6-56.1-131-56.1-202.1 0-284.5 314.4-550.2 696.2-550.2 385.6 0 696.2 265.7 696.2 550.2q0 106.7-56.1 202.1c-104.8-86.1-351.9-149.7-640.1-149.7-288.2 0-535.3 63.6-640.1 149.7z"/>
    <path id="Path 53" class="s46" d="m123.9 1307c-33.7-59.9-52.4-127.2-52.4-198.3 0-284.5 310.7-546.5 692.5-546.5 385.6 0 696.2 262 696.2 546.5 0 71.1-22.4 138.4-56.1 198.3-104.8-86.1-351.9-145.9-640.1-145.9-288.2 0-535.3 59.8-640.1 145.9z"/>
    <path id="Path 54" class="s47" d="m123.9 1307c-33.7-59.9-52.4-127.2-52.4-198.3 0-280.8 310.7-542.8 692.5-542.8 381.8 0 692.5 262 692.5 542.8 0 71.1-18.7 138.4-52.4 198.3-104.8-86.1-351.9-145.9-640.1-145.9-288.2 0-531.5 59.8-640.1 145.9z"/>
    <path id="Path 55" class="s48" d="m127.7 1307c-37.5-59.9-56.2-123.5-56.2-194.6 0-280.7 310.7-539 692.5-539 381.8 0 692.5 258.3 692.5 539 0 67.4-18.7 134.7-56.1 194.6-104.9-82.3-348.2-142.2-636.4-142.2-284.5 0-531.5 59.9-636.3 142.2z"/>
    <path id="Path 56" class="s49" d="m127.7 1310.8c-33.7-59.9-56.2-127.3-56.2-198.4 0-277 310.7-531.5 692.5-531.5 381.8 0 692.5 254.5 692.5 531.5 0 71.1-18.7 138.5-56.1 198.4-104.9-86.1-348.2-146-636.4-146-284.5 0-531.5 59.9-636.3 146z"/>
    <path id="Path 57" class="s50" d="m127.7 1310.8c-33.7-59.9-52.4-127.3-52.4-194.7 0-276.9 306.9-531.5 688.7-531.5 381.8 0 692.5 254.6 692.5 531.5 0 67.4-22.5 134.8-56.1 194.7-104.9-82.4-351.9-142.3-636.4-142.3-284.5 0-531.5 59.9-636.3 142.3z"/>
    <path id="Path 58" class="s51" d="m127.7 1310.8c-33.7-59.9-52.4-123.5-52.4-190.9 0-277 306.9-527.8 688.7-527.8 381.8 0 688.8 250.8 688.8 527.8 0 67.4-18.8 131-52.4 190.9-104.9-82.4-351.9-142.3-636.4-142.3-284.5 0-531.5 59.9-636.3 142.3z"/>
    <path id="Path 59" class="s52" d="m131.4 1310.8c-37.4-56.2-56.1-123.5-56.1-190.9 0-269.5 310.6-524.1 688.7-524.1 381.8 0 688.8 254.6 688.8 524.1 0 67.4-18.8 134.7-56.2 190.9-101.1-82.4-348.1-138.5-632.6-138.5-284.5 0-527.8 56.1-632.6 138.5z"/>
    <path id="Path 60" class="s53" d="m131.4 1314.5c-33.7-59.9-56.1-123.5-56.1-190.9 0-269.5 310.6-520.3 688.7-520.3 381.8 0 688.8 250.8 688.8 520.3q0 101.1-56.2 190.9c-104.8-82.3-348.1-142.2-632.6-142.2-284.5 0-527.8 59.9-632.6 142.2z"/>
    <path id="Path 61" class="s54" d="m131.4 1314.5c-33.7-59.9-52.4-123.5-52.4-190.9 0-265.7 306.9-516.5 685-516.5 378.1 0 688.8 250.8 688.8 516.5 0 67.4-22.5 131-56.2 190.9-104.8-82.3-348.1-138.5-632.6-138.5-284.5 0-527.8 56.2-632.6 138.5z"/>
    <path id="Path 62" class="s55" d="m131.4 1314.5c-33.7-56.1-52.4-119.8-52.4-187.1 0-265.8 306.9-512.8 685-512.8 378.1 0 685 247 685 512.8 0 67.3-18.7 131-52.4 187.1-104.8-82.3-348.1-138.5-632.6-138.5-284.5 0-527.8 56.2-632.6 138.5z"/>
    <path id="Path 63" class="s56" d="m135.2 1314.5c-37.5-56.1-56.2-119.8-56.2-183.4 0-265.7 306.9-509 685-509 378.1 0 685 243.3 685 509 0 63.6-18.7 127.3-52.4 183.4-104.8-78.6-348.1-134.7-632.6-134.7-284.5 0-527.8 56.1-628.8 134.7z"/>
    <path id="Path 64" class="s57" d="m135.2 1314.5c-33.7-56.1-56.2-116-56.2-183.4 0-262 306.9-505.3 685-505.3 378.1 0 685 243.3 685 505.3 0 67.4-18.7 127.3-56.1 183.4-101.1-78.6-344.4-134.7-628.9-134.7-280.7 0-524 56.1-628.8 134.7z"/>
    <path id="Path 65" class="s58" d="m135.2 1318.3c-33.7-56.2-52.4-119.8-52.4-183.4 0-262.1 303.1-501.6 681.2-501.6 378.1 0 685 239.5 685 501.6 0 63.6-22.4 127.2-56.1 183.4-104.8-78.6-344.4-134.8-628.9-134.8-280.7 0-524 56.2-628.8 134.8z"/>
    <path id="Path 66" class="s59" d="m135.2 1318.3c-33.7-56.2-52.4-116.1-52.4-183.4 0-254.6 306.9-497.9 681.2-497.9 378.1 0 681.3 243.3 681.3 497.9 0 67.3-18.7 127.2-52.4 183.4-104.8-78.6-344.4-134.8-628.9-134.8-280.7 0-524 56.2-628.8 134.8z"/>
    <path id="Path 67" class="s60" d="m138.9 1318.3q-56.1-84.3-56.1-179.7c0-254.5 306.9-494.1 681.2-494.1 374.3 0 681.3 239.6 681.3 494.1 0 63.6-18.7 123.5-52.4 179.7-104.8-78.6-348.2-131-628.9-131-280.7 0-524 52.4-625.1 131z"/>
    <path id="Path 68" class="s61" d="m138.9 1318.3c-33.7-52.4-56.1-112.3-56.1-176 0-254.5 306.9-494 681.2-494 374.3 0 681.3 239.5 681.3 494 0 63.7-18.7 123.6-56.2 176-101-74.9-344.4-131-625.1-131-280.7 0-524 56.1-625.1 131z"/>
    <path id="Path 69" class="s62" d="m138.9 1318.3c-33.7-52.4-52.4-112.3-52.4-176 0-250.7 303.2-486.6 677.5-486.6 374.3 0 677.5 235.9 677.5 486.6 0 63.7-18.7 123.6-52.4 176-101-74.9-344.4-127.3-625.1-127.3-280.7 0-520.3 52.4-625.1 127.3z"/>
    <path id="Path 70" class="s0" d="m138.9 1322c-33.7-56.1-52.4-116-52.4-175.9 0-250.8 303.2-482.9 677.5-482.9 374.3 0 677.5 232.1 677.5 482.9 0 59.9-18.7 119.8-52.4 175.9-104.8-74.9-344.4-131-625.1-131-280.7 0-520.3 56.1-625.1 131z"/>
  </g>
</g>
<path id="Path 72" class="s1" d="m1422.8 1056.3c-112.3 250.7-366.8 426.7-662.5 426.7-295.7 0-546.5-176-662.6-426.7 190.9-71.2 415.5-112.3 662.6-112.3 247 0 475.4 41.1 662.5 112.3z"/>
</svg>
